<svg width="400" height="300" viewBox="0 0 400 300" fill="none" xmlns="http://www.w3.org/2000/svg">
<rect width="400" height="300" rx="12" fill="url(#paint0_linear)"/>
<path d="M147.934 66V34.76H161.134C162.483 34.76 163.715 35.0387 164.83 35.596C165.974 36.1533 166.956 36.916 167.778 37.884C168.599 38.8227 169.23 39.8787 169.67 41.052C170.139 42.196 170.374 43.3693 170.374 44.572C170.374 46.0973 170.08 47.52 169.494 48.84C168.936 50.16 168.13 51.2747 167.074 52.184C166.018 53.0933 164.8 53.68 163.422 53.944L171.078 66H167.602L160.254 54.472H151.014V66H147.934ZM151.014 51.744H161.222C162.454 51.744 163.524 51.4067 164.434 50.732C165.343 50.028 166.047 49.1333 166.546 48.048C167.044 46.9627 167.294 45.804 167.294 44.572C167.294 43.3107 167 42.152 166.414 41.096C165.856 40.0107 165.094 39.1453 164.126 38.5C163.158 37.8253 162.102 37.488 160.958 37.488H151.014V51.744ZM185.276 66.44C183.076 66.44 181.111 65.8973 179.38 64.812C177.65 63.7267 176.286 62.2747 175.288 60.456C174.291 58.6373 173.792 56.6427 173.792 54.472C173.792 52.3307 174.276 50.3653 175.244 48.576C176.242 46.7867 177.606 45.364 179.336 44.308C181.067 43.2227 183.032 42.68 185.232 42.68C187.491 42.68 189.471 43.2227 191.172 44.308C192.874 45.3933 194.194 46.8307 195.132 48.62C196.1 50.38 196.584 52.316 196.584 54.428C196.584 54.8973 196.57 55.2933 196.54 55.616H176.916C177.063 57.2587 177.532 58.7253 178.324 60.016C179.116 61.2773 180.128 62.2893 181.36 63.052C182.592 63.7853 183.942 64.152 185.408 64.152C186.904 64.152 188.312 63.7707 189.632 63.008C190.952 62.2453 191.891 61.248 192.448 60.016L195.044 60.72C194.575 61.8347 193.842 62.832 192.844 63.712C191.876 64.5627 190.747 65.2373 189.456 65.736C188.166 66.2053 186.772 66.44 185.276 66.44ZM176.828 53.46H193.768C193.651 51.8173 193.196 50.3653 192.404 49.104C191.612 47.8133 190.6 46.816 189.368 46.112C188.136 45.3787 186.772 45.012 185.276 45.012C183.78 45.012 182.416 45.3787 181.184 46.112C179.952 46.816 178.94 47.8133 178.148 49.104C177.386 50.3653 176.946 51.8173 176.828 53.46ZM211.1 66.44C208.9 66.44 206.935 65.8973 205.204 64.812C203.474 63.7267 202.11 62.2747 201.112 60.456C200.115 58.6373 199.616 56.6427 199.616 54.472C199.616 52.3307 200.1 50.3653 201.068 48.576C202.066 46.7867 203.43 45.364 205.16 44.308C206.891 43.2227 208.856 42.68 211.056 42.68C213.315 42.68 215.295 43.2227 216.996 44.308C218.698 45.3933 220.018 46.8307 220.956 48.62C221.924 50.38 222.408 52.316 222.408 54.428C222.408 54.8973 222.394 55.2933 222.364 55.616H202.74C202.887 57.2587 203.356 58.7253 204.148 60.016C204.94 61.2773 205.952 62.2893 207.184 63.052C208.416 63.7853 209.766 64.152 211.232 64.152C212.728 64.152 214.136 63.7707 215.456 63.008C216.776 62.2453 217.715 61.248 218.272 60.016L220.868 60.72C220.399 61.8347 219.666 62.832 218.668 63.712C217.7 64.5627 216.571 65.2373 215.28 65.736C213.99 66.2053 212.596 66.44 211.1 66.44ZM202.652 53.46H219.592C219.475 51.8173 219.02 50.3653 218.228 49.104C217.436 47.8133 216.424 46.816 215.192 46.112C213.96 45.3787 212.596 45.012 211.1 45.012C209.604 45.012 208.24 45.3787 207.008 46.112C205.776 46.816 204.764 47.8133 203.972 49.104C203.21 50.3653 202.77 51.8173 202.652 53.46ZM227.157 33.88H230.149V60.808C230.149 61.952 230.339 62.7 230.721 63.052C231.131 63.404 231.645 63.58 232.261 63.58C232.789 63.58 233.317 63.5213 233.845 63.404C234.402 63.2867 234.857 63.1693 235.209 63.052L235.737 65.472C235.179 65.7067 234.49 65.8973 233.669 66.044C232.877 66.1907 232.187 66.264 231.601 66.264C230.251 66.264 229.166 65.868 228.345 65.076C227.553 64.284 227.157 63.1987 227.157 61.82V33.88ZM246.537 66.44C244.66 66.44 242.914 66.132 241.301 65.516C239.717 64.8707 238.324 63.932 237.121 62.7L238.353 60.588C239.644 61.7907 240.934 62.6707 242.225 63.228C243.545 63.756 244.938 64.02 246.405 64.02C248.165 64.02 249.602 63.668 250.717 62.964C251.861 62.2307 252.433 61.1893 252.433 59.84C252.433 58.9307 252.154 58.2413 251.597 57.772C251.069 57.2733 250.292 56.8773 249.265 56.584C248.268 56.2907 247.065 55.9533 245.657 55.572C244.073 55.132 242.738 54.6773 241.653 54.208C240.597 53.7093 239.79 53.0933 239.233 52.36C238.705 51.5973 238.441 50.6147 238.441 49.412C238.441 47.9453 238.808 46.7133 239.541 45.716C240.304 44.7187 241.33 43.9707 242.621 43.472C243.941 42.944 245.408 42.68 247.021 42.68C248.781 42.68 250.336 42.9587 251.685 43.516C253.034 44.0733 254.134 44.8507 254.985 45.848L253.533 47.872C252.741 46.9333 251.758 46.244 250.585 45.804C249.441 45.3347 248.194 45.1 246.845 45.1C245.906 45.1 245.012 45.232 244.161 45.496C243.31 45.7307 242.606 46.1413 242.049 46.728C241.521 47.2853 241.257 48.0627 241.257 49.06C241.257 50.292 241.712 51.1427 242.621 51.612C243.53 52.0813 244.909 52.58 246.757 53.108C248.488 53.5773 249.998 54.0467 251.289 54.516C252.58 54.9853 253.577 55.616 254.281 56.408C254.985 57.1707 255.337 58.2413 255.337 59.62C255.337 61.7613 254.53 63.4333 252.917 64.636C251.304 65.8387 249.177 66.44 246.537 66.44Z" fill="black"/>
<path d="M147.934 66H145.934V68H147.934V66ZM147.934 34.76V32.76H145.934V34.76H147.934ZM164.83 35.596L163.935 37.3849L163.944 37.3895L163.954 37.394L164.83 35.596ZM167.778 37.884L166.253 39.178L166.262 39.1896L166.272 39.201L167.778 37.884ZM169.67 41.052L167.797 41.7542L167.808 41.7828L167.819 41.8111L169.67 41.052ZM169.494 48.84L167.666 48.0277L167.658 48.0448L167.651 48.0621L169.494 48.84ZM167.074 52.184L168.379 53.6995L168.379 53.6995L167.074 52.184ZM163.422 53.944L163.045 51.9797L160.156 52.5329L161.733 55.0162L163.422 53.944ZM171.078 66V68H174.717L172.766 64.9278L171.078 66ZM167.602 66L165.915 67.075L166.505 68H167.602V66ZM160.254 54.472L161.94 53.397L161.351 52.472H160.254V54.472ZM151.014 54.472V52.472H149.014V54.472H151.014ZM151.014 66V68H153.014V66H151.014ZM151.014 51.744H149.014V53.744H151.014V51.744ZM164.434 50.732L165.625 52.3382L165.642 52.326L165.658 52.3134L164.434 50.732ZM166.546 48.048L164.728 47.213L164.728 47.213L166.546 48.048ZM166.414 41.096L164.634 42.0096L164.649 42.0387L164.665 42.0673L166.414 41.096ZM164.126 38.5L162.982 40.1408L162.999 40.1526L163.016 40.1641L164.126 38.5ZM151.014 37.488V35.488H149.014V37.488H151.014ZM149.934 66V34.76H145.934V66H149.934ZM147.934 36.76H161.134V32.76H147.934V36.76ZM161.134 36.76C162.199 36.76 163.121 36.9776 163.935 37.3849L165.724 33.8071C164.309 33.0997 162.767 32.76 161.134 32.76V36.76ZM163.954 37.394C164.849 37.8303 165.611 38.4216 166.253 39.178L169.303 36.59C168.302 35.4104 167.098 34.4763 165.706 33.798L163.954 37.394ZM166.272 39.201C166.935 39.9577 167.441 40.8052 167.797 41.7542L171.542 40.3498C171.018 38.9521 170.263 37.6877 169.283 36.567L166.272 39.201ZM167.819 41.8111C168.193 42.7212 168.374 43.6371 168.374 44.572H172.374C172.374 43.1016 172.085 41.6708 171.52 40.2929L167.819 41.8111ZM168.374 44.572C168.374 45.8335 168.133 46.9776 167.666 48.0277L171.321 49.6523C172.028 48.0624 172.374 46.3612 172.374 44.572H168.374ZM167.651 48.0621C167.21 49.1063 166.584 49.9661 165.769 50.6685L168.379 53.6995C169.675 52.5833 170.662 51.2137 171.336 49.6179L167.651 48.0621ZM165.769 50.6685C164.98 51.3478 164.083 51.781 163.045 51.9797L163.798 55.9083C165.517 55.579 167.056 54.8389 168.379 53.6995L165.769 50.6685ZM161.733 55.0162L169.389 67.0722L172.766 64.9278L165.11 52.8718L161.733 55.0162ZM171.078 64H167.602V68H171.078V64ZM169.288 64.925L161.94 53.397L158.567 55.547L165.915 67.075L169.288 64.925ZM160.254 52.472H151.014V56.472H160.254V52.472ZM149.014 54.472V66H153.014V54.472H149.014ZM151.014 64H147.934V68H151.014V64ZM151.014 53.744H161.222V49.744H151.014V53.744ZM161.222 53.744C162.843 53.744 164.34 53.2914 165.625 52.3382L163.242 49.1258C162.708 49.5219 162.064 49.744 161.222 49.744V53.744ZM165.658 52.3134C166.832 51.4043 167.735 50.2496 168.363 48.883L164.728 47.213C164.359 48.0171 163.854 48.6517 163.209 49.1506L165.658 52.3134ZM168.363 48.883C168.986 47.5274 169.294 46.0829 169.294 44.572H165.294C165.294 45.5251 165.103 46.3979 164.728 47.213L168.363 48.883ZM169.294 44.572C169.294 42.9864 168.921 41.4912 168.162 40.1247L164.665 42.0673C165.079 42.8128 165.294 43.635 165.294 44.572H169.294ZM168.193 40.1824C167.488 38.8092 166.501 37.6796 165.235 36.8359L163.016 40.1641C163.687 40.6111 164.225 41.2121 164.634 42.0096L168.193 40.1824ZM165.269 36.8592C163.977 35.9585 162.524 35.488 160.958 35.488V39.488C161.679 39.488 162.338 39.6921 162.982 40.1408L165.269 36.8592ZM160.958 35.488H151.014V39.488H160.958V35.488ZM149.014 37.488V51.744H153.014V37.488H149.014ZM179.38 64.812L178.318 66.5064L179.38 64.812ZM175.288 60.456L173.535 61.4177L175.288 60.456ZM175.244 48.576L173.497 47.6023L173.491 47.6133L173.485 47.6244L175.244 48.576ZM179.336 44.308L180.378 46.0153L180.388 46.0089L180.399 46.0024L179.336 44.308ZM195.132 48.62L193.361 49.5491L193.37 49.5666L193.38 49.5838L195.132 48.62ZM196.54 55.616V57.616H198.367L198.532 55.7971L196.54 55.616ZM176.916 55.616V53.616H174.73L174.924 55.7939L176.916 55.616ZM178.324 60.016L176.62 61.062L176.625 61.0708L176.63 61.0795L178.324 60.016ZM181.36 63.052L180.307 64.7525L180.322 64.7617L180.337 64.7706L181.36 63.052ZM189.632 63.008L188.632 61.2763L189.632 63.008ZM192.448 60.016L192.972 58.0857L191.328 57.64L190.626 59.1917L192.448 60.016ZM195.044 60.72L196.887 61.4961L197.775 59.3883L195.568 58.7897L195.044 60.72ZM192.844 63.712L194.164 65.2143L194.167 65.2117L192.844 63.712ZM189.456 65.736L190.14 67.6156L190.158 67.6088L190.177 67.6016L189.456 65.736ZM176.828 53.46L174.833 53.3175L174.68 55.46H176.828V53.46ZM193.768 53.46V55.46H195.916L195.763 53.3175L193.768 53.46ZM192.404 49.104L190.7 50.15L190.705 50.1588L190.71 50.1675L192.404 49.104ZM189.368 46.112L188.345 47.8306L188.36 47.8397L188.376 47.8485L189.368 46.112ZM181.184 46.112L182.176 47.8485L182.192 47.8397L182.207 47.8306L181.184 46.112ZM178.148 49.104L176.443 48.0579L176.437 48.0692L178.148 49.104ZM185.276 64.44C183.422 64.44 181.83 63.9878 180.443 63.1176L178.318 66.5064C180.391 67.8068 182.73 68.44 185.276 68.44V64.44ZM180.443 63.1176C179.006 62.2165 177.878 61.0186 177.042 59.4943L173.535 61.4177C174.693 63.5307 176.293 65.2369 178.318 66.5064L180.443 63.1176ZM177.042 59.4943C176.214 57.9843 175.792 56.3227 175.792 54.472H171.792C171.792 56.9626 172.368 59.2903 173.535 61.4177L177.042 59.4943ZM175.792 54.472C175.792 52.6449 176.202 51.0092 177.003 49.5276L173.485 47.6244C172.351 49.7215 171.792 52.0164 171.792 54.472H175.792ZM176.991 49.5497C177.822 48.0583 178.945 46.8897 180.378 46.0153L178.294 42.6007C176.266 43.8383 174.661 45.515 173.497 47.6023L176.991 49.5497ZM180.399 46.0024C181.786 45.1322 183.378 44.68 185.232 44.68V40.68C182.686 40.68 180.347 41.3132 178.274 42.6136L180.399 46.0024ZM185.232 44.68C187.157 44.68 188.754 45.1376 190.097 45.9941L192.248 42.6219C190.188 41.3077 187.825 40.68 185.232 40.68V44.68ZM190.097 45.9941C191.504 46.8918 192.584 48.068 193.361 49.5491L196.903 47.6909C195.803 45.5934 194.243 43.8949 192.248 42.6219L190.097 45.9941ZM193.38 49.5838C194.177 51.0332 194.584 52.635 194.584 54.428H198.584C198.584 51.997 198.023 49.7268 196.885 47.6562L193.38 49.5838ZM194.584 54.428C194.584 54.8611 194.57 55.1925 194.548 55.4349L198.532 55.7971C198.569 55.3941 198.584 54.9336 198.584 54.428H194.584ZM196.54 53.616H176.916V57.616H196.54V53.616ZM174.924 55.7939C175.096 57.7163 175.652 59.4852 176.62 61.062L180.029 58.97C179.412 57.9655 179.03 56.801 178.908 55.4381L174.924 55.7939ZM176.63 61.0795C177.58 62.5919 178.809 63.8247 180.307 64.7525L182.413 61.3515C181.448 60.754 180.652 59.9628 180.018 58.9525L176.63 61.0795ZM180.337 64.7706C181.886 65.6925 183.59 66.152 185.408 66.152V62.152C184.293 62.152 183.298 61.8782 182.383 61.3334L180.337 64.7706ZM185.408 66.152C187.262 66.152 189.015 65.6746 190.633 64.7397L188.632 61.2763C187.61 61.8667 186.546 62.152 185.408 62.152V66.152ZM190.633 64.7397C192.267 63.7957 193.519 62.5009 194.27 60.8403L190.626 59.1917C190.262 59.9951 189.638 60.695 188.632 61.2763L190.633 64.7397ZM191.925 61.9463L194.521 62.6503L195.568 58.7897L192.972 58.0857L191.925 61.9463ZM193.201 59.9439C192.86 60.7546 192.316 61.5112 191.521 62.2123L194.167 65.2117C195.368 64.1528 196.29 62.9147 196.887 61.4961L193.201 59.9439ZM191.524 62.2097C190.745 62.8938 189.823 63.4503 188.735 63.8704L190.177 67.6016C191.671 67.0244 193.007 66.2315 194.164 65.2143L191.524 62.2097ZM188.773 63.8564C187.72 64.2393 186.56 64.44 185.276 64.44V68.44C186.984 68.44 188.611 68.1714 190.14 67.6156L188.773 63.8564ZM176.828 55.46H193.768V51.46H176.828V55.46ZM195.763 53.3175C195.625 51.383 195.082 49.6079 194.098 48.0405L190.71 50.1675C191.31 51.1227 191.677 52.2517 191.773 53.6025L195.763 53.3175ZM194.109 48.058C193.153 46.5008 191.904 45.2574 190.36 44.3755L188.376 47.8485C189.297 48.3746 190.071 49.1259 190.7 50.15L194.109 48.058ZM190.391 44.3934C188.836 43.4677 187.116 43.012 185.276 43.012V47.012C186.428 47.012 187.436 47.2896 188.345 47.8306L190.391 44.3934ZM185.276 43.012C183.436 43.012 181.716 43.4677 180.161 44.3934L182.207 47.8306C183.116 47.2896 184.124 47.012 185.276 47.012V43.012ZM180.192 44.3755C178.649 45.2574 177.399 46.5008 176.444 48.058L179.853 50.15C180.481 49.1259 181.256 48.3746 182.176 47.8485L180.192 44.3755ZM176.437 48.0692C175.492 49.6318 174.97 51.3966 174.833 53.3175L178.823 53.6025C178.921 52.238 179.279 51.0989 179.86 50.1388L176.437 48.0692ZM205.204 64.812L204.142 66.5064L205.204 64.812ZM201.112 60.456L199.359 61.4177L201.112 60.456ZM201.068 48.576L199.321 47.6023L199.315 47.6133L199.309 47.6244L201.068 48.576ZM205.16 44.308L206.202 46.0153L206.213 46.0089L206.223 46.0024L205.16 44.308ZM220.956 48.62L219.185 49.5491L219.194 49.5666L219.204 49.5838L220.956 48.62ZM222.364 55.616V57.616H224.191L224.356 55.7971L222.364 55.616ZM202.74 55.616V53.616H200.554L200.748 55.7939L202.74 55.616ZM204.148 60.016L202.444 61.062L202.449 61.0708L202.455 61.0795L204.148 60.016ZM207.184 63.052L206.132 64.7525L206.146 64.7617L206.161 64.7706L207.184 63.052ZM215.456 63.008L214.456 61.2763L215.456 63.008ZM218.272 60.016L218.796 58.0857L217.152 57.64L216.45 59.1917L218.272 60.016ZM220.868 60.72L222.712 61.4961L223.599 59.3883L221.392 58.7897L220.868 60.72ZM218.668 63.712L219.989 65.2143L219.992 65.2117L218.668 63.712ZM215.28 65.736L215.964 67.6156L215.983 67.6088L216.001 67.6016L215.28 65.736ZM202.652 53.46L200.657 53.3175L200.504 55.46H202.652V53.46ZM219.592 53.46V55.46H221.74L221.587 53.3175L219.592 53.46ZM218.228 49.104L216.524 50.15L216.529 50.1588L216.535 50.1675L218.228 49.104ZM215.192 46.112L214.169 47.8306L214.185 47.8397L214.2 47.8485L215.192 46.112ZM207.008 46.112L208.001 47.8485L208.016 47.8397L208.031 47.8306L207.008 46.112ZM203.972 49.104L202.268 48.0579L202.261 48.0692L203.972 49.104ZM211.1 64.44C209.246 64.44 207.655 63.9878 206.267 63.1176L204.142 66.5064C206.215 67.8068 208.555 68.44 211.1 68.44V64.44ZM206.267 63.1176C204.83 62.2165 203.702 61.0186 202.866 59.4943L199.359 61.4177C200.518 63.5307 202.117 65.2369 204.142 66.5064L206.267 63.1176ZM202.866 59.4943C202.038 57.9843 201.616 56.3227 201.616 54.472H197.616C197.616 56.9626 198.192 59.2903 199.359 61.4177L202.866 59.4943ZM201.616 54.472C201.616 52.6449 202.026 51.0092 202.827 49.5276L199.309 47.6244C198.175 49.7215 197.616 52.0164 197.616 54.472H201.616ZM202.815 49.5497C203.647 48.0583 204.769 46.8897 206.202 46.0153L204.119 42.6007C202.09 43.8383 200.485 45.515 199.321 47.6023L202.815 49.5497ZM206.223 46.0024C207.611 45.1322 209.202 44.68 211.056 44.68V40.68C208.511 40.68 206.171 41.3132 204.098 42.6136L206.223 46.0024ZM211.056 44.68C212.981 44.68 214.578 45.1376 215.921 45.9941L218.072 42.6219C216.012 41.3077 213.649 40.68 211.056 40.68V44.68ZM215.921 45.9941C217.328 46.8918 218.408 48.068 219.185 49.5491L222.727 47.6909C221.627 45.5934 220.068 43.8949 218.072 42.6219L215.921 45.9941ZM219.204 49.5838C220.001 51.0332 220.408 52.635 220.408 54.428H224.408C224.408 51.997 223.848 49.7268 222.709 47.6562L219.204 49.5838ZM220.408 54.428C220.408 54.8611 220.395 55.1925 220.373 55.4349L224.356 55.7971C224.393 55.3941 224.408 54.9336 224.408 54.428H220.408ZM222.364 53.616H202.74V57.616H222.364V53.616ZM200.748 55.7939C200.92 57.7163 201.476 59.4852 202.444 61.062L205.853 58.97C205.237 57.9655 204.854 56.801 204.732 55.4381L200.748 55.7939ZM202.455 61.0795C203.404 62.5919 204.633 63.8247 206.132 64.7525L208.237 61.3515C207.272 60.754 206.477 59.9628 205.842 58.9525L202.455 61.0795ZM206.161 64.7706C207.71 65.6925 209.414 66.152 211.232 66.152V62.152C210.117 62.152 209.123 61.8782 208.207 61.3334L206.161 64.7706ZM211.232 66.152C213.087 66.152 214.839 65.6746 216.457 64.7397L214.456 61.2763C213.434 61.8667 212.37 62.152 211.232 62.152V66.152ZM216.457 64.7397C218.091 63.7957 219.343 62.5009 220.095 60.8403L216.45 59.1917C216.087 59.9951 215.462 60.695 214.456 61.2763L216.457 64.7397ZM217.749 61.9463L220.345 62.6503L221.392 58.7897L218.796 58.0857L217.749 61.9463ZM219.025 59.9439C218.684 60.7546 218.14 61.5112 217.345 62.2123L219.992 65.2117C221.192 64.1528 222.114 62.9147 222.712 61.4961L219.025 59.9439ZM217.348 62.2097C216.57 62.8938 215.647 63.4503 214.56 63.8704L216.001 67.6016C217.495 67.0244 218.831 66.2315 219.989 65.2143L217.348 62.2097ZM214.597 63.8564C213.544 64.2393 212.384 64.44 211.1 64.44V68.44C212.809 68.44 214.435 68.1714 215.964 67.6156L214.597 63.8564ZM202.652 55.46H219.592V51.46H202.652V55.46ZM221.587 53.3175C221.449 51.383 220.906 49.6079 219.922 48.0405L216.535 50.1675C217.134 51.1227 217.501 52.2517 217.597 53.6025L221.587 53.3175ZM219.933 48.058C218.978 46.5008 217.728 45.2574 216.185 44.3755L214.2 47.8485C215.121 48.3746 215.895 49.1259 216.524 50.15L219.933 48.058ZM216.215 44.3934C214.66 43.4677 212.94 43.012 211.1 43.012V47.012C212.253 47.012 213.261 47.2896 214.169 47.8306L216.215 44.3934ZM211.1 43.012C209.261 43.012 207.541 43.4677 205.985 44.3934L208.031 47.8306C208.94 47.2896 209.948 47.012 211.1 47.012V43.012ZM206.016 44.3755C204.473 45.2574 203.223 46.5008 202.268 48.058L205.677 50.15C206.306 49.1259 207.08 48.3746 208.001 47.8485L206.016 44.3755ZM202.261 48.0692C201.316 49.6318 200.795 51.3966 200.657 53.3175L204.647 53.6025C204.745 52.238 205.103 51.0989 205.684 50.1388L202.261 48.0692ZM227.157 33.88V31.88H225.157V33.88H227.157ZM230.149 33.88H232.149V31.88H230.149V33.88ZM230.721 63.052L229.364 64.5216L229.391 64.5466L229.419 64.5705L230.721 63.052ZM233.845 63.404L233.433 61.4469L233.422 61.4492L233.411 61.4516L233.845 63.404ZM235.209 63.052L237.163 62.6257L236.688 60.4507L234.576 61.1546L235.209 63.052ZM235.737 65.472L236.513 67.3153L238.045 66.6701L237.691 65.0457L235.737 65.472ZM233.669 66.044L233.317 64.0751L233.304 64.0774L233.669 66.044ZM228.345 65.076L226.93 66.4902L226.943 66.5031L226.956 66.5157L228.345 65.076ZM227.157 35.88H230.149V31.88H227.157V35.88ZM228.149 33.88V60.808H232.149V33.88H228.149ZM228.149 60.808C228.149 61.4748 228.202 62.1283 228.354 62.721C228.501 63.2982 228.783 63.9848 229.364 64.5216L232.077 61.5824C232.277 61.7672 232.273 61.9038 232.23 61.733C232.19 61.5777 232.149 61.2852 232.149 60.808H228.149ZM229.419 64.5705C230.242 65.2762 231.238 65.58 232.261 65.58V61.58C232.144 61.58 232.084 61.5636 232.062 61.5561C232.044 61.5499 232.035 61.5443 232.022 61.5335L229.419 64.5705ZM232.261 65.58C232.938 65.58 233.612 65.5046 234.278 65.3564L233.411 61.4516C233.022 61.5381 232.639 61.58 232.261 61.58V65.58ZM234.257 65.3611C234.854 65.2354 235.389 65.0999 235.841 64.9494L234.576 61.1546C234.324 61.2388 233.95 61.3379 233.433 61.4469L234.257 65.3611ZM233.255 63.4783L233.783 65.8983L237.691 65.0457L237.163 62.6257L233.255 63.4783ZM234.96 63.6287C234.58 63.7889 234.043 63.9455 233.317 64.0751L234.02 68.0129C234.937 67.8492 235.779 67.6244 236.513 67.3153L234.96 63.6287ZM233.304 64.0774C232.592 64.2094 232.03 64.264 231.601 64.264V68.264C232.345 68.264 233.162 68.1719 234.033 68.0106L233.304 64.0774ZM231.601 64.264C230.668 64.264 230.115 64.0043 229.733 63.6363L226.956 66.5157C228.217 67.7317 229.835 68.264 231.601 68.264V64.264ZM229.759 63.6618C229.425 63.3278 229.157 62.7983 229.157 61.82H225.157C225.157 63.5991 225.68 65.2402 226.93 66.4902L229.759 63.6618ZM229.157 61.82V33.88H225.157V61.82H229.157ZM241.301 65.516L240.546 67.3682L240.567 67.3765L240.587 67.3844L241.301 65.516ZM237.121 62.7L235.393 61.6923L234.626 63.0075L235.69 64.0971L237.121 62.7ZM238.353 60.588L239.716 59.1248L237.886 57.4192L236.625 59.5803L238.353 60.588ZM242.225 63.228L241.432 65.0641L241.457 65.0749L241.482 65.085L242.225 63.228ZM250.717 62.964L251.785 64.655L251.796 64.6478L250.717 62.964ZM251.597 57.772L250.224 59.226L250.265 59.2651L250.309 59.3018L251.597 57.772ZM249.265 56.584L248.701 58.5027L248.708 58.5049L248.715 58.507L249.265 56.584ZM245.657 55.572L245.122 57.4991L245.134 57.5025L245.657 55.572ZM241.653 54.208L240.799 56.0165L240.829 56.0306L240.859 56.0437L241.653 54.208ZM239.233 52.36L237.589 53.4984L237.614 53.5349L237.641 53.5702L239.233 52.36ZM239.541 45.716L237.952 44.5011L237.941 44.5161L237.93 44.5312L239.541 45.716ZM242.621 43.472L243.342 45.3376L243.353 45.3333L243.364 45.329L242.621 43.472ZM251.685 43.516L252.448 41.6675L252.448 41.6675L251.685 43.516ZM254.985 45.848L256.61 47.0138L257.523 45.7415L256.507 44.5501L254.985 45.848ZM253.533 47.872L252.004 49.1617L253.661 51.1249L255.158 49.0378L253.533 47.872ZM250.585 45.804L249.826 47.6543L249.854 47.6659L249.883 47.6767L250.585 45.804ZM244.161 45.496L244.693 47.424L244.723 47.4155L244.754 47.4061L244.161 45.496ZM242.049 46.728L240.599 45.3505L240.597 45.3525L242.049 46.728ZM246.757 53.108L246.207 55.031L246.22 55.0348L246.233 55.0383L246.757 53.108ZM251.289 54.516L250.605 56.3956L250.605 56.3956L251.289 54.516ZM254.281 56.408L252.786 57.7367L252.799 57.7508L252.811 57.7646L254.281 56.408ZM252.917 64.636L254.112 66.2395L254.112 66.2395L252.917 64.636ZM246.537 64.44C244.882 64.44 243.381 64.1693 242.014 63.6476L240.587 67.3844C242.448 68.0947 244.437 68.44 246.537 68.44V64.44ZM242.055 63.6638C240.728 63.1228 239.564 62.3397 238.552 61.3029L235.69 64.0971C237.083 65.5243 238.706 66.6185 240.546 67.3682L242.055 63.6638ZM238.848 63.7077L240.08 61.5957L236.625 59.5803L235.393 61.6923L238.848 63.7077ZM236.989 62.0512C238.407 63.3718 239.885 64.3963 241.432 65.0641L243.018 61.3919C241.983 60.9451 240.88 60.2095 239.716 59.1248L236.989 62.0512ZM241.482 65.085C243.046 65.7105 244.692 66.02 246.405 66.02V62.02C245.184 62.02 244.044 61.8015 242.968 61.371L241.482 65.085ZM246.405 66.02C248.42 66.02 250.26 65.6179 251.785 64.655L249.649 61.273C248.944 61.7181 247.91 62.02 246.405 62.02V66.02ZM251.796 64.6478C253.509 63.5498 254.433 61.8766 254.433 59.84H250.433C250.433 60.502 250.213 60.9115 249.638 61.2802L251.796 64.6478ZM254.433 59.84C254.433 58.4998 254.003 57.1833 252.885 56.2422L250.309 59.3018C250.333 59.322 250.35 59.3418 250.37 59.3906C250.394 59.4504 250.433 59.5866 250.433 59.84H254.433ZM252.97 56.318C252.125 55.5201 251.015 55.004 249.814 54.661L248.715 58.507C249.568 58.7506 250.012 59.0266 250.224 59.226L252.97 56.318ZM249.829 54.6653C248.814 54.3666 247.597 54.0253 246.18 53.6415L245.134 57.5025C246.533 57.8814 247.721 58.2147 248.701 58.5027L249.829 54.6653ZM246.192 53.645C244.665 53.2208 243.423 52.7944 242.447 52.3723L240.859 56.0437C242.054 56.5603 243.481 57.0432 245.122 57.499L246.192 53.645ZM242.507 52.3995C241.666 52.0022 241.143 51.5679 240.825 51.1498L237.641 53.5702C238.437 54.6188 239.528 55.4165 240.799 56.0165L242.507 52.3995ZM240.877 51.2216C240.641 50.88 240.441 50.3277 240.441 49.412H236.441C236.441 50.9016 236.769 52.3147 237.589 53.4984L240.877 51.2216ZM240.441 49.412C240.441 48.2905 240.716 47.4946 241.152 46.9008L237.93 44.5312C236.9 45.932 236.441 47.6002 236.441 49.412H240.441ZM241.13 46.9309C241.646 46.2556 242.359 45.7174 243.342 45.3376L241.9 41.6064C240.302 42.2239 238.961 43.1817 237.952 44.5011L241.13 46.9309ZM243.364 45.329C244.418 44.9073 245.628 44.68 247.021 44.68V40.68C245.187 40.68 243.464 40.9807 241.878 41.615L243.364 45.329ZM247.021 44.68C248.572 44.68 249.858 44.9255 250.921 45.3645L252.448 41.6675C250.813 40.9918 248.99 40.68 247.021 40.68V44.68ZM250.921 45.3645C252.012 45.8149 252.841 46.4159 253.463 47.1459L256.507 44.5501C255.428 43.2855 254.057 42.3318 252.448 41.6675L250.921 45.3645ZM253.36 44.6822L251.908 46.7062L255.158 49.0378L256.61 47.0138L253.36 44.6822ZM255.061 46.5823C254.044 45.3762 252.774 44.4891 251.287 43.9313L249.883 47.6767C250.742 47.9989 251.438 48.4905 252.004 49.1617L255.061 46.5823ZM251.344 43.9537C249.938 43.3768 248.431 43.1 246.845 43.1V47.1C247.958 47.1 248.944 47.2925 249.826 47.6543L251.344 43.9537ZM246.845 43.1C245.716 43.1 244.621 43.2592 243.568 43.5859L244.754 47.4061C245.402 47.2048 246.096 47.1 246.845 47.1V43.1ZM243.629 43.568C242.461 43.8903 241.429 44.4767 240.599 45.3505L243.499 48.1055C243.783 47.806 244.16 47.571 244.693 47.424L243.629 43.568ZM240.597 45.3525C239.621 46.3822 239.257 47.7092 239.257 49.06H243.257C243.257 48.4161 243.42 48.1885 243.501 48.1035L240.597 45.3525ZM239.257 49.06C239.257 50.8564 239.98 52.4998 241.704 53.3892L243.538 49.8348C243.421 49.7741 243.386 49.7247 243.362 49.6792C243.327 49.6134 243.257 49.436 243.257 49.06H239.257ZM241.704 53.3892C242.792 53.9508 244.322 54.4924 246.207 55.031L247.306 51.185C245.495 50.6676 244.269 50.2119 243.538 49.8348L241.704 53.3892ZM246.233 55.0383C247.925 55.4971 249.38 55.9501 250.605 56.3956L251.972 52.6364C250.616 52.1432 249.05 51.6576 247.28 51.1777L246.233 55.0383ZM250.605 56.3956C251.674 56.7841 252.358 57.2555 252.786 57.7367L255.776 55.0793C254.795 53.9765 253.485 53.1866 251.972 52.6364L250.605 56.3956ZM252.811 57.7646C253.075 58.0501 253.337 58.5754 253.337 59.62H257.337C257.337 57.9073 256.895 56.2912 255.75 55.0514L252.811 57.7646ZM253.337 59.62C253.337 61.177 252.792 62.2347 251.722 63.0325L254.112 66.2395C256.269 64.632 257.337 62.3457 257.337 59.62H253.337ZM251.722 63.0325C250.548 63.9077 248.88 64.44 246.537 64.44V68.44C249.474 68.44 252.06 67.7696 254.112 66.2395L251.722 63.0325Z" fill="black"/>
<path d="M267.259 179.785H216.01V178.775H192.771V179.785H141.311C140.855 179.785 140.405 179.87 139.984 180.037C139.564 180.204 139.181 180.448 138.859 180.756C138.538 181.063 138.282 181.429 138.108 181.831C137.934 182.233 137.844 182.664 137.844 183.1V250.204C137.844 251.083 138.209 251.926 138.859 252.548C139.51 253.17 140.391 253.519 141.311 253.519H267.259C268.178 253.519 269.06 253.17 269.71 252.548C270.36 251.926 270.726 251.083 270.726 250.204V183.1C270.726 182.664 270.636 182.233 270.462 181.831C270.287 181.429 270.032 181.063 269.71 180.756C269.388 180.448 269.006 180.204 268.586 180.037C268.165 179.87 267.714 179.785 267.259 179.785Z" fill="#3F3D56"/>
<path opacity="0.1" d="M266.078 185.643H142.492V252.307H266.078V185.643Z" fill="black"/>
<path d="M204.179 183.825C204.879 183.825 205.447 183.282 205.447 182.613C205.447 181.944 204.879 181.401 204.179 181.401C203.479 181.401 202.912 181.944 202.912 182.613C202.912 183.282 203.479 183.825 204.179 183.825Z" fill="#0CB9E4"/>
<path d="M274.196 251.095H262.134V250.264C262.134 250.242 262.13 250.221 262.121 250.201C262.113 250.181 262.1 250.163 262.084 250.147C262.068 250.132 262.049 250.12 262.028 250.112C262.007 250.103 261.985 250.099 261.962 250.099H257.827C257.804 250.099 257.782 250.103 257.761 250.112C257.74 250.12 257.721 250.132 257.705 250.147C257.689 250.163 257.676 250.181 257.668 250.201C257.659 250.221 257.655 250.242 257.655 250.264V251.095H255.07V250.264C255.07 250.242 255.066 250.221 255.057 250.201C255.048 250.181 255.036 250.163 255.02 250.147C255.004 250.132 254.985 250.12 254.964 250.112C254.943 250.103 254.92 250.099 254.898 250.099H250.762C250.74 250.099 250.717 250.103 250.697 250.112C250.676 250.12 250.657 250.132 250.641 250.147C250.625 250.163 250.612 250.181 250.603 250.201C250.595 250.221 250.59 250.242 250.59 250.264V251.095H248.006V250.264C248.006 250.242 248.001 250.221 247.992 250.201C247.984 250.181 247.971 250.163 247.955 250.147C247.939 250.132 247.92 250.12 247.899 250.112C247.878 250.103 247.856 250.099 247.833 250.099H243.698C243.675 250.099 243.653 250.103 243.632 250.112C243.611 250.12 243.592 250.132 243.576 250.147C243.56 250.163 243.548 250.181 243.539 250.201C243.53 250.221 243.526 250.242 243.526 250.264V251.095H240.941V250.264C240.941 250.242 240.937 250.221 240.928 250.201C240.919 250.181 240.907 250.163 240.891 250.147C240.875 250.132 240.856 250.12 240.835 250.112C240.814 250.103 240.792 250.099 240.769 250.099H236.634C236.611 250.099 236.589 250.103 236.568 250.112C236.547 250.12 236.528 250.132 236.512 250.147C236.496 250.163 236.483 250.181 236.474 250.201C236.466 250.221 236.461 250.242 236.461 250.264V251.095H233.877V250.264C233.877 250.242 233.872 250.221 233.864 250.201C233.855 250.181 233.842 250.163 233.826 250.147C233.81 250.132 233.791 250.12 233.77 250.112C233.75 250.103 233.727 250.099 233.704 250.099H229.569C229.547 250.099 229.524 250.103 229.503 250.112C229.482 250.12 229.463 250.132 229.447 250.147C229.431 250.163 229.419 250.181 229.41 250.201C229.401 250.221 229.397 250.242 229.397 250.264V251.095H226.812V250.264C226.812 250.242 226.808 250.221 226.799 250.201C226.791 250.181 226.778 250.163 226.762 250.147C226.746 250.132 226.727 250.12 226.706 250.112C226.685 250.103 226.663 250.099 226.64 250.099H222.505C222.482 250.099 222.46 250.103 222.439 250.112C222.418 250.12 222.399 250.132 222.383 250.147C222.367 250.163 222.354 250.181 222.346 250.201C222.337 250.221 222.332 250.242 222.333 250.264V251.095H219.748V250.264C219.748 250.242 219.743 250.221 219.735 250.201C219.726 250.181 219.713 250.163 219.697 250.147C219.681 250.132 219.662 250.12 219.642 250.112C219.621 250.103 219.598 250.099 219.576 250.099H187.183C187.16 250.099 187.138 250.103 187.117 250.112C187.096 250.12 187.077 250.132 187.061 250.147C187.045 250.163 187.032 250.181 187.024 250.201C187.015 250.221 187.01 250.242 187.01 250.264V251.095H184.426V250.264C184.426 250.242 184.421 250.221 184.413 250.201C184.404 250.181 184.391 250.163 184.375 250.147C184.359 250.132 184.34 250.12 184.32 250.112C184.299 250.103 184.276 250.099 184.254 250.099H180.118C180.096 250.099 180.073 250.103 180.052 250.112C180.031 250.12 180.012 250.132 179.996 250.147C179.98 250.163 179.968 250.181 179.959 250.201C179.95 250.221 179.946 250.242 179.946 250.264V251.095H177.361V250.264C177.361 250.242 177.357 250.221 177.348 250.201C177.34 250.181 177.327 250.163 177.311 250.147C177.295 250.132 177.276 250.12 177.255 250.112C177.234 250.103 177.212 250.099 177.189 250.099H173.054C173.031 250.099 173.009 250.103 172.988 250.112C172.967 250.12 172.948 250.132 172.932 250.147C172.916 250.163 172.903 250.181 172.895 250.201C172.886 250.221 172.882 250.242 172.882 250.264V251.095H170.297V250.264C170.297 250.242 170.293 250.221 170.284 250.201C170.275 250.181 170.263 250.163 170.247 250.147C170.231 250.132 170.212 250.12 170.191 250.112C170.17 250.103 170.147 250.099 170.125 250.099H165.989C165.967 250.099 165.944 250.103 165.924 250.112C165.903 250.12 165.884 250.132 165.868 250.147C165.852 250.163 165.839 250.181 165.83 250.201C165.822 250.221 165.817 250.242 165.817 250.264V251.095H163.233V250.264C163.233 250.242 163.228 250.221 163.22 250.201C163.211 250.181 163.198 250.163 163.182 250.147C163.166 250.132 163.147 250.12 163.126 250.112C163.105 250.103 163.083 250.099 163.06 250.099H158.925C158.902 250.099 158.88 250.103 158.859 250.112C158.838 250.12 158.819 250.132 158.803 250.147C158.787 250.163 158.775 250.181 158.766 250.201C158.757 250.221 158.753 250.242 158.753 250.264V251.095H156.168V250.264C156.168 250.242 156.164 250.221 156.155 250.201C156.146 250.181 156.134 250.163 156.118 250.147C156.102 250.132 156.083 250.12 156.062 250.112C156.041 250.103 156.019 250.099 155.996 250.099H151.861C151.838 250.099 151.816 250.103 151.795 250.112C151.774 250.12 151.755 250.132 151.739 250.147C151.723 250.163 151.71 250.181 151.701 250.201C151.693 250.221 151.688 250.242 151.688 250.264V251.095H149.104V250.264C149.104 250.242 149.099 250.221 149.091 250.201C149.082 250.181 149.069 250.163 149.053 250.147C149.037 250.132 149.018 250.12 148.997 250.112C148.977 250.103 148.954 250.099 148.932 250.099H144.796C144.774 250.099 144.751 250.103 144.73 250.112C144.709 250.12 144.69 250.132 144.674 250.147C144.658 250.163 144.646 250.181 144.637 250.201C144.628 250.221 144.624 250.242 144.624 250.264V251.095H136.698C135.601 251.095 134.549 251.511 133.774 252.253C132.998 252.995 132.563 254 132.563 255.049V256.837C132.563 257.886 132.998 258.892 133.774 259.633C134.549 260.375 135.601 260.791 136.698 260.791H274.196C275.292 260.791 276.344 260.375 277.12 259.633C277.895 258.892 278.331 257.886 278.331 256.837V255.049C278.331 254 277.895 252.995 277.12 252.253C276.344 251.511 275.292 251.095 274.196 251.095V251.095Z" fill="#3F3D56"/>
<path d="M229.323 193.21H179.289V243.503H229.323V193.21Z" fill="#0CB9E4"/>
<path d="M205.752 191.122C205.752 191.122 201.486 189.665 198.743 195.493C196 201.321 191.734 207.732 191.734 207.732L194.172 208.315C194.172 208.315 194.782 204.235 196.305 203.652L195.696 208.897C195.696 208.897 213.98 215.017 222.208 208.315L221.903 206.275C221.903 206.275 223.122 206.566 223.122 208.315L224.036 207.44C224.036 207.44 223.122 205.692 220.38 203.361C218.579 201.831 217.961 198.92 217.748 197.1C217.589 195.58 216.953 194.142 215.924 192.974C214.101 190.954 210.78 188.807 205.752 191.122Z" fill="#2F2E41"/>
<path d="M182.177 196.62L180.404 178.914C180.404 178.914 176.859 169.308 182.177 170.061C187.496 170.815 184.344 178.161 184.344 178.161L187.299 196.62H182.177Z" fill="#A0616A"/>
<path d="M207.982 209.806C211.899 209.806 215.074 206.77 215.074 203.025C215.074 199.28 211.899 196.244 207.982 196.244C204.066 196.244 200.891 199.28 200.891 203.025C200.891 206.77 204.066 209.806 207.982 209.806Z" fill="#A0616A"/>
<path d="M202.861 206.039C202.861 206.039 202.467 213.761 200.497 214.327C198.527 214.892 193.011 221.108 195.572 222.991C198.133 224.875 212.907 223.556 212.907 223.556L211.528 213.761C211.528 213.761 208.376 211.689 210.937 208.111L202.861 206.039Z" fill="#A0616A"/>
<path d="M217.648 243.879H189.794C189.895 242.175 190.147 239.767 190.47 237.121C190.568 236.319 190.673 235.492 190.781 234.657C191.736 227.302 193.011 219.225 193.011 219.225L193.346 218.484L196.754 210.937L196.789 210.95L201.284 212.632L201.444 213.355L202.663 218.848L210.552 212.758L217.831 211.669L218.323 211.596L219.21 219.601C219.21 219.601 219.17 221.391 219.129 223.939C219.082 226.868 219.031 230.801 219.035 234.171C219.036 235.782 219.05 237.264 219.084 238.447C219.111 239.443 219.153 240.229 219.21 240.698C219.342 241.766 218.641 242.875 217.648 243.879Z" fill="#3F3D56"/>
<path d="M196.951 211.878L196.754 210.748L191.239 204.344L188.087 193.607L180.404 196.432L185.92 209.429L193.799 219.036L196.951 211.878Z" fill="#3F3D56"/>
<path d="M198.666 203.836C198.666 203.836 201.104 200.631 203.237 200.048C205.37 199.465 205.675 196.551 205.675 196.551C205.675 196.551 211.16 202.379 214.512 202.67C217.864 202.962 214.817 195.677 214.817 195.677L208.722 194.22L202.932 194.803L198.361 197.717L198.666 203.836Z" fill="#2F2E41"/>
<path d="M218.292 237.475L199.446 238.19C199.446 238.19 189.061 240.463 190.45 235.496C191.839 230.529 199.112 234.361 199.112 234.361L218.628 233.659L218.292 237.475Z" fill="#A0616A"/>
<path d="M216.157 212.914L217.93 211.595C217.93 211.595 220.885 210.088 221.476 215.362C222.067 220.637 226.4 238.154 222.067 238.343C217.733 238.531 206.702 238.719 206.702 238.719L207.884 232.88L216.945 232.315L216.157 212.914Z" fill="#3F3D56"/>
<path opacity="0.15" d="M216.748 221.013L216.157 231.75L207.49 233.445L215.369 230.432L216.748 221.013Z" fill="black"/>
<path d="M313 260.623H104V261H313V260.623Z" fill="#3F3D56"/>
<path d="M292.702 247.464C295.534 250.369 295.68 254.64 295.68 254.64C295.68 254.64 291.235 254.2 288.404 251.294C285.572 248.389 285.425 244.118 285.425 244.118C285.425 244.118 289.87 244.558 292.702 247.464Z" fill="#E055CC"/>
<path d="M301.617 251.999C298.578 254.707 294.112 254.847 294.112 254.847C294.112 254.847 294.573 250.596 297.611 247.889C300.65 245.181 305.116 245.041 305.116 245.041C305.116 245.041 304.656 249.291 301.617 251.999Z" fill="#0CB9E4"/>
<path d="M300.862 260.623H289.685C289.471 260.623 289.261 260.566 289.079 260.457C288.897 260.348 288.751 260.193 288.657 260.008L286.224 255.225C286.139 255.059 286.1 254.874 286.11 254.689C286.12 254.504 286.18 254.324 286.283 254.167C286.385 254.01 286.528 253.881 286.698 253.791C286.867 253.701 287.058 253.654 287.252 253.654H303.295C303.489 253.654 303.68 253.701 303.849 253.791C304.019 253.881 304.162 254.01 304.264 254.167C304.367 254.324 304.427 254.504 304.437 254.689C304.447 254.874 304.408 255.059 304.323 255.225L301.89 260.008C301.796 260.193 301.65 260.348 301.468 260.457C301.286 260.566 301.076 260.623 300.862 260.623V260.623Z" fill="#3F3D56"/>
<path d="M116.008 247.464C118.839 250.369 118.986 254.64 118.986 254.64C118.986 254.64 114.541 254.2 111.709 251.294C108.877 248.389 108.731 244.118 108.731 244.118C108.731 244.118 113.176 244.558 116.008 247.464Z" fill="#E055CC"/>
<path d="M122.394 260.623H111.218C111.003 260.623 110.793 260.566 110.611 260.457C110.43 260.348 110.284 260.193 110.19 260.008L107.756 255.225C107.672 255.059 107.632 254.874 107.643 254.689C107.653 254.504 107.712 254.324 107.815 254.167C107.918 254.01 108.061 253.881 108.23 253.791C108.4 253.701 108.59 253.654 108.784 253.654H124.828C125.022 253.654 125.212 253.701 125.382 253.791C125.551 253.881 125.694 254.01 125.797 254.167C125.9 254.324 125.959 254.504 125.969 254.689C125.98 254.874 125.941 255.059 125.856 255.225L123.422 260.008C123.329 260.193 123.182 260.348 123.001 260.457C122.819 260.566 122.609 260.623 122.394 260.623V260.623Z" fill="#3F3D56"/>
<path d="M84.7142 127.09C83.7062 127.09 82.8542 126.91 82.1582 126.55C81.4742 126.19 80.9222 125.704 80.5022 125.092C80.0822 124.48 79.7822 123.796 79.6022 123.04C79.4222 122.272 79.3322 121.48 79.3322 120.664V114.22H80.5742V120.664C80.5742 121.336 80.6402 121.99 80.7722 122.626C80.9162 123.25 81.1442 123.814 81.4562 124.318C81.7682 124.822 82.1882 125.224 82.7162 125.524C83.2442 125.812 83.9042 125.956 84.6962 125.956C85.5122 125.956 86.1842 125.806 86.7122 125.506C87.2522 125.206 87.6782 124.804 87.9902 124.3C88.3022 123.784 88.5182 123.214 88.6382 122.59C88.7702 121.954 88.8362 121.312 88.8362 120.664V114.22H90.0962V120.664C90.0962 121.516 90.0002 122.332 89.8082 123.112C89.6162 123.88 89.3042 124.564 88.8722 125.164C88.4522 125.764 87.9002 126.238 87.2162 126.586C86.5322 126.922 85.6982 127.09 84.7142 127.09ZM100.627 127H99.4026V121.762C99.4026 120.658 99.2346 119.854 98.8986 119.35C98.5746 118.834 98.0706 118.576 97.3866 118.576C96.9066 118.576 96.4326 118.696 95.9646 118.936C95.4966 119.164 95.0826 119.482 94.7226 119.89C94.3746 120.286 94.1226 120.742 93.9666 121.258V127H92.7426V117.622H93.8586V119.746C94.2306 119.062 94.7766 118.51 95.4966 118.09C96.2166 117.67 96.9966 117.46 97.8366 117.46C98.5326 117.46 99.0846 117.628 99.4926 117.964C99.9006 118.288 100.189 118.756 100.357 119.368C100.537 119.968 100.627 120.682 100.627 121.51V127ZM103.237 115.66V113.86H104.461V115.66H103.237ZM103.237 127V117.622H104.461V127H103.237ZM110.775 127.18C109.923 127.18 109.179 126.952 108.543 126.496C107.907 126.04 107.409 125.446 107.049 124.714C106.701 123.97 106.527 123.172 106.527 122.32C106.527 121.66 106.641 121.042 106.869 120.466C107.097 119.878 107.409 119.362 107.805 118.918C108.213 118.462 108.687 118.108 109.227 117.856C109.767 117.592 110.355 117.46 110.991 117.46C111.723 117.46 112.395 117.652 113.007 118.036C113.631 118.408 114.117 118.882 114.465 119.458V117.622H115.563V130.834H114.339V125.056C113.415 126.472 112.227 127.18 110.775 127.18ZM111.153 126.1C111.885 126.1 112.515 125.884 113.043 125.452C113.583 125.008 114.015 124.486 114.339 123.886V120.988C114.279 120.556 114.081 120.154 113.745 119.782C113.421 119.41 113.031 119.11 112.575 118.882C112.119 118.654 111.669 118.54 111.225 118.54C110.553 118.54 109.953 118.726 109.425 119.098C108.909 119.458 108.501 119.932 108.201 120.52C107.913 121.096 107.769 121.702 107.769 122.338C107.769 123.022 107.913 123.652 108.201 124.228C108.489 124.792 108.885 125.248 109.389 125.596C109.905 125.932 110.493 126.1 111.153 126.1ZM118.176 123.13V117.622H119.4V122.914C119.4 125.038 120.126 126.1 121.578 126.1C122.298 126.1 122.97 125.866 123.594 125.398C124.23 124.93 124.686 124.306 124.962 123.526V117.622H126.186V125.524C126.186 125.848 126.33 126.016 126.618 126.028V127C126.474 127.024 126.36 127.036 126.276 127.036C126.204 127.036 126.126 127.036 126.042 127.036C125.79 127.012 125.574 126.916 125.394 126.748C125.226 126.58 125.142 126.376 125.142 126.136L125.106 124.876C124.698 125.608 124.14 126.178 123.432 126.586C122.736 126.982 121.98 127.18 121.164 127.18C119.172 127.18 118.176 125.83 118.176 123.13ZM133.004 127.18C132.104 127.18 131.3 126.958 130.592 126.514C129.884 126.07 129.326 125.476 128.918 124.732C128.51 123.988 128.306 123.172 128.306 122.284C128.306 121.408 128.504 120.604 128.9 119.872C129.308 119.14 129.866 118.558 130.574 118.126C131.282 117.682 132.086 117.46 132.986 117.46C133.91 117.46 134.72 117.682 135.416 118.126C136.112 118.57 136.652 119.158 137.036 119.89C137.432 120.61 137.63 121.402 137.63 122.266C137.63 122.458 137.624 122.62 137.612 122.752H129.584C129.644 123.424 129.836 124.024 130.16 124.552C130.484 125.068 130.898 125.482 131.402 125.794C131.906 126.094 132.458 126.244 133.058 126.244C133.67 126.244 134.246 126.088 134.786 125.776C135.326 125.464 135.71 125.056 135.938 124.552L137 124.84C136.808 125.296 136.508 125.704 136.1 126.064C135.704 126.412 135.242 126.688 134.714 126.892C134.186 127.084 133.616 127.18 133.004 127.18ZM129.548 121.87H136.478C136.43 121.198 136.244 120.604 135.92 120.088C135.596 119.56 135.182 119.152 134.678 118.864C134.174 118.564 133.616 118.414 133.004 118.414C132.392 118.414 131.834 118.564 131.33 118.864C130.826 119.152 130.412 119.56 130.088 120.088C129.776 120.604 129.596 121.198 129.548 121.87ZM148.156 127.18C147.256 127.18 146.452 126.958 145.744 126.514C145.036 126.07 144.478 125.476 144.07 124.732C143.662 123.988 143.458 123.172 143.458 122.284C143.458 121.408 143.656 120.604 144.052 119.872C144.46 119.14 145.018 118.558 145.726 118.126C146.434 117.682 147.238 117.46 148.138 117.46C149.062 117.46 149.872 117.682 150.568 118.126C151.264 118.57 151.804 119.158 152.188 119.89C152.584 120.61 152.782 121.402 152.782 122.266C152.782 122.458 152.776 122.62 152.764 122.752H144.736C144.796 123.424 144.988 124.024 145.312 124.552C145.636 125.068 146.05 125.482 146.554 125.794C147.058 126.094 147.61 126.244 148.21 126.244C148.822 126.244 149.398 126.088 149.938 125.776C150.478 125.464 150.862 125.056 151.09 124.552L152.152 124.84C151.96 125.296 151.66 125.704 151.252 126.064C150.856 126.412 150.394 126.688 149.866 126.892C149.338 127.084 148.768 127.18 148.156 127.18ZM144.7 121.87H151.63C151.582 121.198 151.396 120.604 151.072 120.088C150.748 119.56 150.334 119.152 149.83 118.864C149.326 118.564 148.768 118.414 148.156 118.414C147.544 118.414 146.986 118.564 146.482 118.864C145.978 119.152 145.564 119.56 145.24 120.088C144.928 120.604 144.748 121.198 144.7 121.87ZM168.62 127H167.396V121.762C167.396 120.682 167.222 119.884 166.874 119.368C166.526 118.84 166.01 118.576 165.326 118.576C164.606 118.576 163.97 118.828 163.418 119.332C162.866 119.836 162.476 120.484 162.248 121.276V127H161.024V121.762C161.024 120.658 160.85 119.854 160.502 119.35C160.166 118.834 159.656 118.576 158.972 118.576C158.264 118.576 157.628 118.822 157.064 119.314C156.512 119.806 156.122 120.454 155.894 121.258V127H154.67V117.622H155.786V119.746C156.17 119.026 156.674 118.468 157.298 118.072C157.922 117.664 158.612 117.46 159.368 117.46C160.148 117.46 160.778 117.688 161.258 118.144C161.738 118.588 162.032 119.164 162.14 119.872C163.004 118.264 164.21 117.46 165.758 117.46C166.814 117.46 167.552 117.832 167.972 118.576C168.404 119.308 168.62 120.286 168.62 121.51V127ZM170.455 124.3C170.455 123.724 170.623 123.226 170.959 122.806C171.295 122.374 171.757 122.038 172.345 121.798C172.945 121.558 173.635 121.438 174.415 121.438C174.871 121.438 175.345 121.48 175.837 121.564C176.329 121.636 176.767 121.738 177.151 121.87V121.078C177.151 120.286 176.917 119.656 176.449 119.188C175.981 118.72 175.333 118.486 174.505 118.486C174.013 118.486 173.521 118.582 173.029 118.774C172.537 118.954 172.027 119.224 171.499 119.584L171.031 118.72C171.643 118.3 172.243 117.988 172.831 117.784C173.419 117.568 174.019 117.46 174.631 117.46C175.783 117.46 176.695 117.79 177.367 118.45C178.039 119.11 178.375 120.022 178.375 121.186V125.524C178.375 125.848 178.525 126.016 178.825 126.028V127C178.561 127.036 178.375 127.048 178.267 127.036C177.967 127.024 177.739 126.928 177.583 126.748C177.427 126.568 177.343 126.376 177.331 126.172L177.313 125.488C176.893 126.028 176.347 126.448 175.675 126.748C175.003 127.036 174.319 127.18 173.623 127.18C173.011 127.18 172.465 127.054 171.985 126.802C171.505 126.538 171.127 126.19 170.851 125.758C170.587 125.314 170.455 124.828 170.455 124.3ZM176.737 125.02C177.013 124.696 177.151 124.396 177.151 124.12V122.752C176.323 122.428 175.459 122.266 174.559 122.266C173.683 122.266 172.975 122.44 172.435 122.788C171.895 123.136 171.625 123.61 171.625 124.21C171.625 124.726 171.823 125.194 172.219 125.614C172.627 126.034 173.191 126.244 173.911 126.244C174.499 126.244 175.045 126.13 175.549 125.902C176.065 125.674 176.461 125.38 176.737 125.02ZM181.02 115.66V113.86H182.244V115.66H181.02ZM181.02 127V117.622H182.244V127H181.02ZM184.994 113.86H186.218V124.876C186.218 125.344 186.296 125.65 186.452 125.794C186.62 125.938 186.83 126.01 187.082 126.01C187.298 126.01 187.514 125.986 187.73 125.938C187.958 125.89 188.144 125.842 188.288 125.794L188.504 126.784C188.276 126.88 187.994 126.958 187.658 127.018C187.334 127.078 187.052 127.108 186.812 127.108C186.26 127.108 185.816 126.946 185.48 126.622C185.156 126.298 184.994 125.854 184.994 125.29V113.86ZM197.955 127.18C197.043 127.18 196.233 126.958 195.525 126.514C194.817 126.058 194.259 125.464 193.851 124.732C193.443 123.988 193.239 123.172 193.239 122.284C193.239 121.396 193.437 120.592 193.833 119.872C194.229 119.14 194.781 118.558 195.489 118.126C196.197 117.682 197.013 117.46 197.937 117.46C198.813 117.46 199.581 117.664 200.241 118.072C200.913 118.468 201.417 119.008 201.753 119.692L200.565 120.07C200.301 119.59 199.929 119.218 199.449 118.954C198.981 118.678 198.459 118.54 197.883 118.54C197.247 118.54 196.671 118.702 196.155 119.026C195.651 119.35 195.243 119.8 194.931 120.376C194.631 120.94 194.481 121.576 194.481 122.284C194.481 122.992 194.637 123.634 194.949 124.21C195.261 124.786 195.675 125.248 196.191 125.596C196.707 125.932 197.277 126.1 197.901 126.1C198.309 126.1 198.705 126.028 199.089 125.884C199.473 125.74 199.803 125.548 200.079 125.308C200.355 125.056 200.541 124.786 200.637 124.498L201.843 124.858C201.675 125.302 201.399 125.704 201.015 126.064C200.631 126.412 200.175 126.688 199.647 126.892C199.119 127.084 198.555 127.18 197.955 127.18ZM203.01 124.3C203.01 123.724 203.178 123.226 203.514 122.806C203.85 122.374 204.312 122.038 204.9 121.798C205.5 121.558 206.19 121.438 206.97 121.438C207.426 121.438 207.9 121.48 208.392 121.564C208.884 121.636 209.322 121.738 209.706 121.87V121.078C209.706 120.286 209.472 119.656 209.004 119.188C208.536 118.72 207.888 118.486 207.06 118.486C206.568 118.486 206.076 118.582 205.584 118.774C205.092 118.954 204.582 119.224 204.054 119.584L203.586 118.72C204.198 118.3 204.798 117.988 205.386 117.784C205.974 117.568 206.574 117.46 207.186 117.46C208.338 117.46 209.25 117.79 209.922 118.45C210.594 119.11 210.93 120.022 210.93 121.186V125.524C210.93 125.848 211.08 126.016 211.38 126.028V127C211.116 127.036 210.93 127.048 210.822 127.036C210.522 127.024 210.294 126.928 210.138 126.748C209.982 126.568 209.898 126.376 209.886 126.172L209.868 125.488C209.448 126.028 208.902 126.448 208.23 126.748C207.558 127.036 206.874 127.18 206.178 127.18C205.566 127.18 205.02 127.054 204.54 126.802C204.06 126.538 203.682 126.19 203.406 125.758C203.142 125.314 203.01 124.828 203.01 124.3ZM209.292 125.02C209.568 124.696 209.706 124.396 209.706 124.12V122.752C208.878 122.428 208.014 122.266 207.114 122.266C206.238 122.266 205.53 122.44 204.99 122.788C204.45 123.136 204.18 123.61 204.18 124.21C204.18 124.726 204.378 125.194 204.774 125.614C205.182 126.034 205.746 126.244 206.466 126.244C207.054 126.244 207.6 126.13 208.104 125.902C208.62 125.674 209.016 125.38 209.292 125.02ZM227.525 127H226.301V121.762C226.301 120.682 226.127 119.884 225.779 119.368C225.431 118.84 224.915 118.576 224.231 118.576C223.511 118.576 222.875 118.828 222.323 119.332C221.771 119.836 221.381 120.484 221.153 121.276V127H219.929V121.762C219.929 120.658 219.755 119.854 219.407 119.35C219.071 118.834 218.561 118.576 217.877 118.576C217.169 118.576 216.533 118.822 215.969 119.314C215.417 119.806 215.027 120.454 214.799 121.258V127H213.575V117.622H214.691V119.746C215.075 119.026 215.579 118.468 216.203 118.072C216.827 117.664 217.517 117.46 218.273 117.46C219.053 117.46 219.683 117.688 220.163 118.144C220.643 118.588 220.937 119.164 221.045 119.872C221.909 118.264 223.115 117.46 224.663 117.46C225.719 117.46 226.457 117.832 226.877 118.576C227.309 119.308 227.525 120.286 227.525 121.51V127ZM234.904 127.18C234.124 127.18 233.422 126.976 232.798 126.568C232.186 126.16 231.7 125.656 231.34 125.056V130.834H230.116V117.622H231.214V119.44C231.586 118.852 232.078 118.378 232.69 118.018C233.314 117.646 233.986 117.46 234.706 117.46C235.354 117.46 235.948 117.598 236.488 117.874C237.028 118.138 237.496 118.498 237.892 118.954C238.3 119.41 238.612 119.932 238.828 120.52C239.044 121.096 239.152 121.696 239.152 122.32C239.152 123.196 238.972 124.006 238.612 124.75C238.264 125.482 237.766 126.07 237.118 126.514C236.482 126.958 235.744 127.18 234.904 127.18ZM234.562 126.1C235.246 126.1 235.834 125.92 236.326 125.56C236.83 125.188 237.22 124.714 237.496 124.138C237.772 123.562 237.91 122.956 237.91 122.32C237.91 121.648 237.754 121.024 237.442 120.448C237.13 119.872 236.71 119.41 236.182 119.062C235.666 118.714 235.078 118.54 234.418 118.54C234.01 118.54 233.578 118.648 233.122 118.864C232.678 119.068 232.282 119.35 231.934 119.71C231.598 120.058 231.4 120.442 231.34 120.862V123.742C231.616 124.402 232.048 124.96 232.636 125.416C233.224 125.872 233.866 126.1 234.562 126.1ZM240.469 124.3C240.469 123.724 240.637 123.226 240.973 122.806C241.309 122.374 241.771 122.038 242.359 121.798C242.959 121.558 243.649 121.438 244.429 121.438C244.885 121.438 245.359 121.48 245.851 121.564C246.343 121.636 246.781 121.738 247.165 121.87V121.078C247.165 120.286 246.931 119.656 246.463 119.188C245.995 118.72 245.347 118.486 244.519 118.486C244.027 118.486 243.535 118.582 243.043 118.774C242.551 118.954 242.041 119.224 241.513 119.584L241.045 118.72C241.657 118.3 242.257 117.988 242.845 117.784C243.433 117.568 244.033 117.46 244.645 117.46C245.797 117.46 246.709 117.79 247.381 118.45C248.053 119.11 248.389 120.022 248.389 121.186V125.524C248.389 125.848 248.539 126.016 248.839 126.028V127C248.575 127.036 248.389 127.048 248.281 127.036C247.981 127.024 247.753 126.928 247.597 126.748C247.441 126.568 247.357 126.376 247.345 126.172L247.327 125.488C246.907 126.028 246.361 126.448 245.689 126.748C245.017 127.036 244.333 127.18 243.637 127.18C243.025 127.18 242.479 127.054 241.999 126.802C241.519 126.538 241.141 126.19 240.865 125.758C240.601 125.314 240.469 124.828 240.469 124.3ZM246.751 125.02C247.027 124.696 247.165 124.396 247.165 124.12V122.752C246.337 122.428 245.473 122.266 244.573 122.266C243.697 122.266 242.989 122.44 242.449 122.788C241.909 123.136 241.639 123.61 241.639 124.21C241.639 124.726 241.837 125.194 242.233 125.614C242.641 126.034 243.205 126.244 243.925 126.244C244.513 126.244 245.059 126.13 245.563 125.902C246.079 125.674 246.475 125.38 246.751 125.02ZM251.034 115.66V113.86H252.258V115.66H251.034ZM251.034 127V117.622H252.258V127H251.034ZM258.716 127.126C258.068 127.126 257.474 126.994 256.934 126.73C256.406 126.466 255.944 126.112 255.548 125.668C255.164 125.212 254.864 124.696 254.648 124.12C254.432 123.544 254.324 122.95 254.324 122.338C254.324 121.462 254.51 120.658 254.882 119.926C255.254 119.182 255.764 118.588 256.412 118.144C257.072 117.688 257.828 117.46 258.68 117.46C259.484 117.46 260.18 117.664 260.768 118.072C261.368 118.48 261.872 118.984 262.28 119.584V117.622H263.378V127.036C263.378 127.912 263.168 128.644 262.748 129.232C262.328 129.82 261.77 130.264 261.074 130.564C260.378 130.864 259.616 131.014 258.788 131.014C257.708 131.014 256.838 130.822 256.178 130.438C255.53 130.054 254.996 129.538 254.576 128.89L255.332 128.296C255.704 128.884 256.196 129.322 256.808 129.61C257.432 129.898 258.092 130.042 258.788 130.042C259.4 130.042 259.958 129.928 260.462 129.7C260.978 129.484 261.386 129.154 261.686 128.71C261.998 128.266 262.154 127.708 262.154 127.036V125.182C261.794 125.77 261.302 126.244 260.678 126.604C260.054 126.952 259.4 127.126 258.716 127.126ZM259.058 126.1C259.55 126.1 260.018 125.986 260.462 125.758C260.906 125.53 261.278 125.242 261.578 124.894C261.89 124.534 262.082 124.162 262.154 123.778V120.88C261.974 120.424 261.716 120.022 261.38 119.674C261.044 119.314 260.66 119.038 260.228 118.846C259.796 118.642 259.358 118.54 258.914 118.54C258.218 118.54 257.618 118.732 257.114 119.116C256.622 119.488 256.238 119.968 255.962 120.556C255.698 121.132 255.566 121.732 255.566 122.356C255.566 123.028 255.722 123.652 256.034 124.228C256.346 124.792 256.766 125.248 257.294 125.596C257.822 125.932 258.41 126.1 259.058 126.1ZM273.964 127H272.74V121.762C272.74 120.658 272.572 119.854 272.236 119.35C271.912 118.834 271.408 118.576 270.724 118.576C270.244 118.576 269.77 118.696 269.302 118.936C268.834 119.164 268.42 119.482 268.06 119.89C267.712 120.286 267.46 120.742 267.304 121.258V127H266.08V117.622H267.196V119.746C267.568 119.062 268.114 118.51 268.834 118.09C269.554 117.67 270.334 117.46 271.174 117.46C271.87 117.46 272.422 117.628 272.83 117.964C273.238 118.288 273.526 118.756 273.694 119.368C273.874 119.968 273.964 120.682 273.964 121.51V127ZM279.653 127.18C278.885 127.18 278.171 127.054 277.511 126.802C276.863 126.538 276.293 126.154 275.801 125.65L276.305 124.786C276.833 125.278 277.361 125.638 277.889 125.866C278.429 126.082 278.999 126.19 279.599 126.19C280.319 126.19 280.907 126.046 281.363 125.758C281.831 125.458 282.065 125.032 282.065 124.48C282.065 124.108 281.951 123.826 281.723 123.634C281.507 123.43 281.189 123.268 280.769 123.148C280.361 123.028 279.869 122.89 279.293 122.734C278.645 122.554 278.099 122.368 277.655 122.176C277.223 121.972 276.893 121.72 276.665 121.42C276.449 121.108 276.341 120.706 276.341 120.214C276.341 119.614 276.491 119.11 276.791 118.702C277.103 118.294 277.523 117.988 278.051 117.784C278.591 117.568 279.191 117.46 279.851 117.46C280.571 117.46 281.207 117.574 281.759 117.802C282.311 118.03 282.761 118.348 283.109 118.756L282.515 119.584C282.191 119.2 281.789 118.918 281.309 118.738C280.841 118.546 280.331 118.45 279.779 118.45C279.395 118.45 279.029 118.504 278.681 118.612C278.333 118.708 278.045 118.876 277.817 119.116C277.601 119.344 277.493 119.662 277.493 120.07C277.493 120.574 277.679 120.922 278.051 121.114C278.423 121.306 278.987 121.51 279.743 121.726C280.451 121.918 281.069 122.11 281.597 122.302C282.125 122.494 282.533 122.752 282.821 123.076C283.109 123.388 283.253 123.826 283.253 124.39C283.253 125.266 282.923 125.95 282.263 126.442C281.603 126.934 280.733 127.18 279.653 127.18ZM301.162 117.622H302.368L298.336 127H297.274L295.312 122.338L293.368 127H292.306L288.274 117.622H289.462L292.882 125.74L294.61 121.51L293.026 117.64H294.124L295.312 120.682L296.518 117.64H297.598L296.032 121.51L297.76 125.74L301.162 117.622ZM303.996 115.66V113.86H305.22V115.66H303.996ZM303.996 127V117.622H305.22V127H303.996ZM312.416 126.55C312.272 126.61 312.008 126.718 311.624 126.874C311.24 127.03 310.796 127.108 310.292 127.108C309.764 127.108 309.302 126.958 308.906 126.658C308.51 126.358 308.312 125.908 308.312 125.308V118.594H307.016V117.622H308.312V114.454H309.536V117.622H311.696V118.594H309.536V124.966C309.56 125.314 309.68 125.572 309.896 125.74C310.124 125.896 310.382 125.974 310.67 125.974C311.006 125.974 311.306 125.92 311.57 125.812C311.846 125.692 312.02 125.608 312.092 125.56L312.416 126.55ZM321.83 127H320.606V121.762C320.606 119.638 319.886 118.576 318.446 118.576C317.978 118.576 317.522 118.696 317.078 118.936C316.634 119.164 316.238 119.482 315.89 119.89C315.554 120.286 315.314 120.742 315.17 121.258V127H313.946V113.86H315.17V119.746C315.542 119.05 316.058 118.498 316.718 118.09C317.39 117.67 318.104 117.46 318.86 117.46C319.58 117.46 320.156 117.634 320.588 117.982C321.02 118.318 321.332 118.792 321.524 119.404C321.728 120.004 321.83 120.706 321.83 121.51V127ZM152.598 148H151.374V142.762C151.374 141.682 151.2 140.884 150.852 140.368C150.504 139.84 149.988 139.576 149.304 139.576C148.584 139.576 147.948 139.828 147.396 140.332C146.844 140.836 146.454 141.484 146.226 142.276V148H145.002V142.762C145.002 141.658 144.828 140.854 144.48 140.35C144.144 139.834 143.634 139.576 142.95 139.576C142.242 139.576 141.606 139.822 141.042 140.314C140.49 140.806 140.1 141.454 139.872 142.258V148H138.648V138.622H139.764V140.746C140.148 140.026 140.652 139.468 141.276 139.072C141.9 138.664 142.59 138.46 143.346 138.46C144.126 138.46 144.756 138.688 145.236 139.144C145.716 139.588 146.01 140.164 146.118 140.872C146.982 139.264 148.188 138.46 149.736 138.46C150.792 138.46 151.53 138.832 151.95 139.576C152.382 140.308 152.598 141.286 152.598 142.51V148ZM159.185 148.18C158.285 148.18 157.481 147.958 156.773 147.514C156.077 147.07 155.531 146.482 155.135 145.75C154.739 145.006 154.541 144.202 154.541 143.338C154.541 142.462 154.739 141.658 155.135 140.926C155.543 140.182 156.095 139.588 156.791 139.144C157.499 138.688 158.297 138.46 159.185 138.46C160.085 138.46 160.883 138.688 161.579 139.144C162.287 139.588 162.839 140.182 163.235 140.926C163.643 141.658 163.847 142.462 163.847 143.338C163.847 144.202 163.649 145.006 163.253 145.75C162.857 146.482 162.305 147.07 161.597 147.514C160.901 147.958 160.097 148.18 159.185 148.18ZM155.783 143.356C155.783 144.052 155.933 144.688 156.233 145.264C156.545 145.828 156.959 146.278 157.475 146.614C157.991 146.938 158.561 147.1 159.185 147.1C159.809 147.1 160.379 146.932 160.895 146.596C161.411 146.26 161.825 145.804 162.137 145.228C162.449 144.652 162.605 144.016 162.605 143.32C162.605 142.624 162.449 141.988 162.137 141.412C161.825 140.836 161.411 140.38 160.895 140.044C160.379 139.708 159.809 139.54 159.185 139.54C158.573 139.54 158.009 139.714 157.493 140.062C156.977 140.398 156.563 140.854 156.251 141.43C155.939 142.006 155.783 142.648 155.783 143.356ZM165.264 143.338C165.264 142.45 165.444 141.64 165.804 140.908C166.176 140.164 166.686 139.57 167.334 139.126C167.982 138.682 168.72 138.46 169.548 138.46C170.328 138.46 171.024 138.67 171.636 139.09C172.26 139.498 172.746 139.996 173.094 140.584V134.86H174.318V146.524C174.318 146.848 174.462 147.016 174.75 147.028V148C174.51 148.036 174.324 148.048 174.192 148.036C173.928 148.024 173.7 147.928 173.508 147.748C173.328 147.556 173.238 147.34 173.238 147.1V146.182C172.866 146.794 172.362 147.28 171.726 147.64C171.09 148 170.43 148.18 169.746 148.18C169.098 148.18 168.498 148.048 167.946 147.784C167.394 147.52 166.914 147.16 166.506 146.704C166.11 146.248 165.804 145.732 165.588 145.156C165.372 144.568 165.264 143.962 165.264 143.338ZM173.094 144.778V141.88C172.938 141.448 172.686 141.058 172.338 140.71C171.99 140.35 171.594 140.068 171.15 139.864C170.718 139.648 170.286 139.54 169.854 139.54C169.182 139.54 168.594 139.726 168.09 140.098C167.598 140.458 167.214 140.932 166.938 141.52C166.662 142.096 166.524 142.702 166.524 143.338C166.524 144.01 166.674 144.634 166.974 145.21C167.286 145.786 167.706 146.248 168.234 146.596C168.762 146.932 169.356 147.1 170.016 147.1C170.424 147.1 170.85 146.998 171.294 146.794C171.75 146.578 172.146 146.296 172.482 145.948C172.83 145.6 173.034 145.21 173.094 144.778ZM181.141 148.18C180.241 148.18 179.437 147.958 178.729 147.514C178.021 147.07 177.463 146.476 177.055 145.732C176.647 144.988 176.443 144.172 176.443 143.284C176.443 142.408 176.641 141.604 177.037 140.872C177.445 140.14 178.003 139.558 178.711 139.126C179.419 138.682 180.223 138.46 181.123 138.46C182.047 138.46 182.857 138.682 183.553 139.126C184.249 139.57 184.789 140.158 185.173 140.89C185.569 141.61 185.767 142.402 185.767 143.266C185.767 143.458 185.761 143.62 185.749 143.752H177.721C177.781 144.424 177.973 145.024 178.297 145.552C178.621 146.068 179.035 146.482 179.539 146.794C180.043 147.094 180.595 147.244 181.195 147.244C181.807 147.244 182.383 147.088 182.923 146.776C183.463 146.464 183.847 146.056 184.075 145.552L185.137 145.84C184.945 146.296 184.645 146.704 184.237 147.064C183.841 147.412 183.379 147.688 182.851 147.892C182.323 148.084 181.753 148.18 181.141 148.18ZM177.685 142.87H184.615C184.567 142.198 184.381 141.604 184.057 141.088C183.733 140.56 183.319 140.152 182.815 139.864C182.311 139.564 181.753 139.414 181.141 139.414C180.529 139.414 179.971 139.564 179.467 139.864C178.963 140.152 178.549 140.56 178.225 141.088C177.913 141.604 177.733 142.198 177.685 142.87ZM192.336 139.702C191.52 139.726 190.8 139.954 190.176 140.386C189.564 140.818 189.132 141.412 188.88 142.168V148H187.656V138.622H188.808V140.872C189.132 140.212 189.558 139.678 190.086 139.27C190.626 138.862 191.196 138.634 191.796 138.586C191.916 138.574 192.018 138.568 192.102 138.568C192.186 138.568 192.264 138.574 192.336 138.586V139.702ZM201.85 148H200.626V142.762C200.626 141.658 200.458 140.854 200.122 140.35C199.798 139.834 199.294 139.576 198.61 139.576C198.13 139.576 197.656 139.696 197.188 139.936C196.72 140.164 196.306 140.482 195.946 140.89C195.598 141.286 195.346 141.742 195.19 142.258V148H193.966V138.622H195.082V140.746C195.454 140.062 196 139.51 196.72 139.09C197.44 138.67 198.22 138.46 199.06 138.46C199.756 138.46 200.308 138.628 200.716 138.964C201.124 139.288 201.412 139.756 201.58 140.368C201.76 140.968 201.85 141.682 201.85 142.51V148ZM208.418 143.338C208.418 142.45 208.598 141.64 208.958 140.908C209.33 140.164 209.84 139.57 210.488 139.126C211.136 138.682 211.874 138.46 212.702 138.46C213.482 138.46 214.178 138.67 214.79 139.09C215.414 139.498 215.9 139.996 216.248 140.584V134.86H217.472V146.524C217.472 146.848 217.616 147.016 217.904 147.028V148C217.664 148.036 217.478 148.048 217.346 148.036C217.082 148.024 216.854 147.928 216.662 147.748C216.482 147.556 216.392 147.34 216.392 147.1V146.182C216.02 146.794 215.516 147.28 214.88 147.64C214.244 148 213.584 148.18 212.9 148.18C212.252 148.18 211.652 148.048 211.1 147.784C210.548 147.52 210.068 147.16 209.66 146.704C209.264 146.248 208.958 145.732 208.742 145.156C208.526 144.568 208.418 143.962 208.418 143.338ZM216.248 144.778V141.88C216.092 141.448 215.84 141.058 215.492 140.71C215.144 140.35 214.748 140.068 214.304 139.864C213.872 139.648 213.44 139.54 213.008 139.54C212.336 139.54 211.748 139.726 211.244 140.098C210.752 140.458 210.368 140.932 210.092 141.52C209.816 142.096 209.678 142.702 209.678 143.338C209.678 144.01 209.828 144.634 210.128 145.21C210.44 145.786 210.86 146.248 211.388 146.596C211.916 146.932 212.51 147.1 213.17 147.1C213.578 147.1 214.004 146.998 214.448 146.794C214.904 146.578 215.3 146.296 215.636 145.948C215.984 145.6 216.188 145.21 216.248 144.778ZM224.296 148.18C223.396 148.18 222.592 147.958 221.884 147.514C221.176 147.07 220.618 146.476 220.21 145.732C219.802 144.988 219.598 144.172 219.598 143.284C219.598 142.408 219.796 141.604 220.192 140.872C220.6 140.14 221.158 139.558 221.866 139.126C222.574 138.682 223.378 138.46 224.278 138.46C225.202 138.46 226.012 138.682 226.708 139.126C227.404 139.57 227.944 140.158 228.328 140.89C228.724 141.61 228.922 142.402 228.922 143.266C228.922 143.458 228.916 143.62 228.904 143.752H220.876C220.936 144.424 221.128 145.024 221.452 145.552C221.776 146.068 222.19 146.482 222.694 146.794C223.198 147.094 223.75 147.244 224.35 147.244C224.962 147.244 225.538 147.088 226.078 146.776C226.618 146.464 227.002 146.056 227.23 145.552L228.292 145.84C228.1 146.296 227.8 146.704 227.392 147.064C226.996 147.412 226.534 147.688 226.006 147.892C225.478 148.084 224.908 148.18 224.296 148.18ZM220.84 142.87H227.77C227.722 142.198 227.536 141.604 227.212 141.088C226.888 140.56 226.474 140.152 225.97 139.864C225.466 139.564 224.908 139.414 224.296 139.414C223.684 139.414 223.126 139.564 222.622 139.864C222.118 140.152 221.704 140.56 221.38 141.088C221.068 141.604 220.888 142.198 220.84 142.87ZM233.888 148.18C233.12 148.18 232.406 148.054 231.746 147.802C231.098 147.538 230.528 147.154 230.036 146.65L230.54 145.786C231.068 146.278 231.596 146.638 232.124 146.866C232.664 147.082 233.234 147.19 233.834 147.19C234.554 147.19 235.142 147.046 235.598 146.758C236.066 146.458 236.3 146.032 236.3 145.48C236.3 145.108 236.186 144.826 235.958 144.634C235.742 144.43 235.424 144.268 235.004 144.148C234.596 144.028 234.104 143.89 233.528 143.734C232.88 143.554 232.334 143.368 231.89 143.176C231.458 142.972 231.128 142.72 230.9 142.42C230.684 142.108 230.576 141.706 230.576 141.214C230.576 140.614 230.726 140.11 231.026 139.702C231.338 139.294 231.758 138.988 232.286 138.784C232.826 138.568 233.426 138.46 234.086 138.46C234.806 138.46 235.442 138.574 235.994 138.802C236.546 139.03 236.996 139.348 237.344 139.756L236.75 140.584C236.426 140.2 236.024 139.918 235.544 139.738C235.076 139.546 234.566 139.45 234.014 139.45C233.63 139.45 233.264 139.504 232.916 139.612C232.568 139.708 232.28 139.876 232.052 140.116C231.836 140.344 231.728 140.662 231.728 141.07C231.728 141.574 231.914 141.922 232.286 142.114C232.658 142.306 233.222 142.51 233.978 142.726C234.686 142.918 235.304 143.11 235.832 143.302C236.36 143.494 236.768 143.752 237.056 144.076C237.344 144.388 237.488 144.826 237.488 145.39C237.488 146.266 237.158 146.95 236.498 147.442C235.838 147.934 234.968 148.18 233.888 148.18ZM239.511 136.66V134.86H240.735V136.66H239.511ZM239.511 148V138.622H240.735V148H239.511ZM247.193 148.126C246.545 148.126 245.951 147.994 245.411 147.73C244.883 147.466 244.421 147.112 244.025 146.668C243.641 146.212 243.341 145.696 243.125 145.12C242.909 144.544 242.801 143.95 242.801 143.338C242.801 142.462 242.987 141.658 243.359 140.926C243.731 140.182 244.241 139.588 244.889 139.144C245.549 138.688 246.305 138.46 247.157 138.46C247.961 138.46 248.657 138.664 249.245 139.072C249.845 139.48 250.349 139.984 250.757 140.584V138.622H251.855V148.036C251.855 148.912 251.645 149.644 251.225 150.232C250.805 150.82 250.247 151.264 249.551 151.564C248.855 151.864 248.093 152.014 247.265 152.014C246.185 152.014 245.315 151.822 244.655 151.438C244.007 151.054 243.473 150.538 243.053 149.89L243.809 149.296C244.181 149.884 244.673 150.322 245.285 150.61C245.909 150.898 246.569 151.042 247.265 151.042C247.877 151.042 248.435 150.928 248.939 150.7C249.455 150.484 249.863 150.154 250.163 149.71C250.475 149.266 250.631 148.708 250.631 148.036V146.182C250.271 146.77 249.779 147.244 249.155 147.604C248.531 147.952 247.877 148.126 247.193 148.126ZM247.535 147.1C248.027 147.1 248.495 146.986 248.939 146.758C249.383 146.53 249.755 146.242 250.055 145.894C250.367 145.534 250.559 145.162 250.631 144.778V141.88C250.451 141.424 250.193 141.022 249.857 140.674C249.521 140.314 249.137 140.038 248.705 139.846C248.273 139.642 247.835 139.54 247.391 139.54C246.695 139.54 246.095 139.732 245.591 140.116C245.099 140.488 244.715 140.968 244.439 141.556C244.175 142.132 244.043 142.732 244.043 143.356C244.043 144.028 244.199 144.652 244.511 145.228C244.823 145.792 245.243 146.248 245.771 146.596C246.299 146.932 246.887 147.1 247.535 147.1ZM262.442 148H261.218V142.762C261.218 141.658 261.05 140.854 260.714 140.35C260.39 139.834 259.886 139.576 259.202 139.576C258.722 139.576 258.248 139.696 257.78 139.936C257.312 140.164 256.898 140.482 256.538 140.89C256.19 141.286 255.938 141.742 255.782 142.258V148H254.558V138.622H255.674V140.746C256.046 140.062 256.592 139.51 257.312 139.09C258.032 138.67 258.812 138.46 259.652 138.46C260.348 138.46 260.9 138.628 261.308 138.964C261.716 139.288 262.004 139.756 262.172 140.368C262.352 140.968 262.442 141.682 262.442 142.51V148Z" fill="black"/>
<defs>
<linearGradient id="paint0_linear" x1="-9.54999e-07" y1="13" x2="442.928" y2="116.772" gradientUnits="userSpaceOnUse">
<stop stop-color="#0CB9E4"/>
<stop offset="1" stop-color="#E055CC"/>
</linearGradient>
</defs>
</svg>
