<svg width="700" height="300" viewBox="0 0 700 300" fill="none" xmlns="http://www.w3.org/2000/svg">
<g clip-path="url(#clip0)">
<rect width="700" height="300" rx="12" fill="url(#paint0_linear)"/>
<path d="M425.589 54.0713L402.442 100.753H407.115V138.82H383.566L370 166.179L538.097 255.291L593.686 143.182L425.589 54.0713Z" fill="url(#paint1_linear)"/>
<path d="M403.609 106.191H375.558V135.194H403.609V106.191Z" fill="#3F3D56"/>
<path d="M495.965 131.569H496.088V129.756H495.881L495.76 127.178C495.747 126.892 495.624 126.622 495.418 126.429C495.213 126.236 494.942 126.136 494.664 126.15L485.32 126.617C485.183 126.624 485.048 126.658 484.924 126.719C484.8 126.78 484.688 126.865 484.596 126.97C484.504 127.075 484.432 127.198 484.386 127.332C484.339 127.466 484.319 127.608 484.326 127.75L485.255 147.621C485.268 147.908 485.391 148.177 485.597 148.37C485.802 148.563 486.073 148.663 486.35 148.649L495.695 148.182C495.832 148.175 495.966 148.141 496.091 148.08C496.215 148.019 496.326 147.934 496.419 147.829C496.511 147.724 496.583 147.601 496.629 147.467C496.675 147.333 496.696 147.191 496.689 147.049L495.965 131.569Z" fill="#2F2E41"/>
<path d="M490.649 136.926C491.912 136.863 492.89 135.839 492.834 134.639C492.778 133.44 491.709 132.518 490.446 132.581C489.183 132.645 488.204 133.668 488.261 134.868C488.317 136.068 489.386 136.989 490.649 136.926Z" fill="#0CB9E4"/>
<path d="M539.478 262.538C584.501 262.538 621 259.088 621 254.834C621 250.579 584.501 247.13 539.478 247.13C494.455 247.13 457.956 250.579 457.956 254.834C457.956 259.088 494.455 262.538 539.478 262.538Z" fill="#3F3D56"/>
<path d="M469.096 241.846C471.156 249.72 478.212 254.596 478.212 254.596C478.212 254.596 481.928 246.707 479.868 238.833C477.808 230.96 470.752 226.084 470.752 226.084C470.752 226.084 467.036 233.973 469.096 241.846Z" fill="#3F3D56"/>
<path d="M472.123 240.154C477.775 245.844 478.466 254.59 478.466 254.59C478.466 254.59 469.992 254.111 464.339 248.422C458.687 242.732 457.996 233.987 457.996 233.987C457.996 233.987 466.47 234.465 472.123 240.154Z" fill="#0CB9E4"/>
<path d="M525.342 55.1191C525.342 55.1191 525.948 57.2103 522.51 59.0923C519.072 60.9743 518.061 68.0842 522.106 70.1753C526.151 72.2664 527.364 74.9849 525.342 76.8669C523.319 78.7489 519.679 83.7676 524.533 85.0223C529.387 86.277 529.993 88.7864 528.578 89.8319C527.162 90.8775 531.814 87.9499 531.814 87.9499C531.814 87.9499 532.623 92.9686 536.87 91.7139C541.117 90.4593 553.049 66.6203 546.982 63.2745C540.914 59.9287 525.342 55.1191 525.342 55.1191Z" fill="#2F2E41"/>
<path d="M541.012 232.401L539.697 245.09L545.395 248.716L550.655 247.809L548.025 232.401H541.012Z" fill="#9F616A"/>
<path d="M536.629 80.133C543.407 80.133 548.901 74.4519 548.901 67.444C548.901 60.436 543.407 54.755 536.629 54.755C529.852 54.755 524.357 60.436 524.357 67.444C524.357 74.4519 529.852 80.133 536.629 80.133Z" fill="#9F616A"/>
<path d="M532.466 73.5619C532.466 73.5619 531.37 92.822 530.055 92.822C528.74 92.822 545.395 91.9157 545.395 91.9157C545.395 91.9157 538.382 79.2267 541.889 75.1481C545.395 71.0695 532.466 73.5619 532.466 73.5619Z" fill="#9F616A"/>
<path d="M550.655 175.301L544.957 197.96L549.34 236.48L539.259 235.573L535.314 175.301H550.655Z" fill="#2F2E41"/>
<path opacity="0.2" d="M550.655 175.301L544.957 197.96L549.34 236.48L539.259 235.573L535.314 175.301H550.655Z" fill="black"/>
<path d="M541.889 242.824C541.889 242.824 541.451 240.105 537.068 242.824C532.685 245.543 514.277 254.154 523.919 255.966C533.561 257.779 553.284 253.701 553.284 252.341C553.284 250.981 553.723 242.371 551.969 243.277C550.216 244.184 544.519 250.075 541.889 242.824Z" fill="#2F2E41"/>
<path d="M547.587 239.652C547.587 239.652 554.599 250.981 555.037 254.154C555.476 257.326 562.05 246.903 562.05 246.903L555.914 235.12L547.587 239.652Z" fill="#9F616A"/>
<path d="M524.357 177.113L532.246 204.304C532.246 204.304 546.272 242.824 547.148 242.371C548.025 241.918 558.544 239.199 558.982 237.839C559.42 236.48 545.833 199.772 545.833 199.772L544.08 176.207L524.357 177.113Z" fill="#2F2E41"/>
<path d="M563.365 245.09C562.168 245.005 560.976 245.309 559.954 245.959C558.933 246.609 558.133 247.573 557.667 248.716C555.914 252.794 553.723 253.247 553.284 253.701C552.846 254.154 554.599 263.67 553.284 264.577C551.969 265.483 550.655 275 555.037 275C559.42 275 566.433 270.015 565.995 269.109C565.556 268.202 565.556 261.858 566.871 259.139C568.186 256.42 570.378 251.888 566.871 249.169C563.365 246.45 563.365 245.09 563.365 245.09Z" fill="#2F2E41"/>
<path d="M521.728 134.968L520.851 143.125C520.851 143.125 514.277 149.923 512.085 158.08C509.894 166.237 491.924 179.832 497.183 181.645C502.443 183.458 508.579 184.364 523.919 181.645C539.259 178.926 563.365 184.817 563.365 169.862C563.365 169.862 566.433 165.784 568.624 171.675C570.168 175.699 571.924 179.633 573.884 183.458C573.884 183.458 579.143 173.941 577.39 169.862C575.637 165.784 577.39 166.237 575.199 161.705C573.007 157.173 562.05 140.406 557.667 139.499C553.284 138.593 544.957 126.81 545.395 125.451C545.833 124.091 521.728 134.968 521.728 134.968Z" fill="#0CB9E4"/>
<path d="M545.395 84.2116C545.395 84.2116 527.425 88.2902 526.549 91.0093C526.056 92.5388 523.76 95.3588 521.845 97.5335C518.613 101.15 516.464 105.659 515.659 110.512C515.202 113.403 517.124 116.003 518.002 119.333C520.632 129.303 522.604 126.81 519.974 134.061C517.345 141.312 533.123 144.031 539.259 140.859C545.395 137.687 552.189 118.88 552.189 116.614C552.189 114.348 558.106 88.7434 553.284 86.9307C548.463 85.118 545.395 84.2116 545.395 84.2116Z" fill="#575A88"/>
<path d="M520.413 105.964L515.153 129.983L497.841 137.913C497.841 137.913 484.692 134.741 484.254 139.726C483.968 142.981 499.156 144.258 499.156 144.258L524.357 134.061L530.055 111.856L520.413 105.964Z" fill="#9F616A"/>
<path d="M526.549 96.9006C526.549 96.9006 515.591 103.698 518.221 107.324C520.851 110.949 527.425 116.841 529.178 116.841C530.932 116.841 532.246 105.964 532.246 102.792C532.246 99.6197 526.549 96.9006 526.549 96.9006Z" fill="#575A88"/>
<path d="M537.512 50.9667C537.512 50.9667 538.184 53.2832 534.376 55.3681C530.567 57.453 529.447 65.3293 533.928 67.6459C538.408 69.9624 539.753 72.974 537.512 75.0589C535.272 77.1438 531.239 82.7035 536.616 84.0934C541.993 85.4834 542.665 88.2632 541.097 89.4215C539.529 90.5798 544.682 87.3366 544.682 87.3366C544.682 87.3366 545.578 92.8963 550.283 91.5064C554.988 90.1165 559.682 64.8507 554.437 58.3433C549.561 52.2926 537.512 50.9667 537.512 50.9667Z" fill="#2F2E41"/>
<path d="M536.081 48.5822C536.082 45.1884 545.902 47.627 550.113 52.3656C553.028 55.6471 557.456 60.5838 553.746 64.0638C550.035 67.5437 560.106 72.1056 562.808 73.4887C565.509 74.8718 570.842 79.1014 566.026 81.9388C561.211 84.7763 561.288 87.6406 563.101 88.3188C564.913 88.9969 559.105 87.3104 559.105 87.3104C559.105 87.3104 559.692 92.9141 554.799 92.8873C549.906 92.8604 535.868 65.0556 539.221 57.3271C542.339 50.141 536.081 48.5822 536.081 48.5822Z" fill="#2F2E41"/>
<path d="M538.208 47.8384C525.076 47.0208 523.758 57.2416 523.758 57.2416C523.849 63.1564 532.933 60.2744 535.456 61.1561C538.5 58.892 544.368 54.608 548.564 51.5507C545.518 49.3327 541.929 48.0462 538.208 47.8384Z" fill="#2F2E41"/>
<path d="M481.391 105.685L480.13 105.258C475.628 103.688 472.67 102.686 471.616 100.23C471.408 99.7668 471.292 99.2647 471.274 98.7538C471.257 98.243 471.339 97.7337 471.515 97.2562C471.692 96.7786 471.959 96.3425 472.301 95.9737C472.643 95.6049 473.054 95.3108 473.508 95.1088C474.043 94.8672 474.622 94.7487 475.205 94.7616C475.788 94.7745 476.362 94.9185 476.886 95.1836C477.047 94.604 477.329 94.0677 477.711 93.6119C478.093 93.1561 478.567 92.7918 479.099 92.5442C479.548 92.3316 480.035 92.2143 480.529 92.1995C481.023 92.1846 481.515 92.2724 481.976 92.4577C482.437 92.6429 482.857 92.9219 483.211 93.2781C483.566 93.6342 483.848 94.0603 484.041 94.5311C485.094 96.9866 483.828 99.9266 481.932 104.431L481.391 105.685Z" fill="#FF6584"/>
<path d="M493.289 115.121L492.431 114.83C489.366 113.762 487.353 113.08 486.636 111.408C486.494 111.093 486.415 110.751 486.403 110.403C486.391 110.055 486.447 109.709 486.567 109.384C486.687 109.059 486.869 108.762 487.102 108.511C487.335 108.26 487.614 108.06 487.923 107.922C488.287 107.758 488.681 107.677 489.078 107.686C489.475 107.695 489.866 107.793 490.223 107.973C490.333 107.578 490.524 107.213 490.784 106.903C491.045 106.593 491.367 106.345 491.729 106.176C492.035 106.032 492.366 105.952 492.702 105.942C493.039 105.932 493.374 105.991 493.687 106.118C494.001 106.244 494.287 106.433 494.528 106.676C494.77 106.918 494.962 107.208 495.093 107.529C495.81 109.2 494.948 111.202 493.657 114.268L493.289 115.121Z" fill="#FF6584"/>
<path d="M485.792 73.9106L484.978 73.1309C482.086 70.3134 480.176 68.4842 480.204 66.2378C480.202 65.8103 480.283 65.3867 480.442 64.9921C480.601 64.5976 480.836 64.2401 481.131 63.9408C481.426 63.6414 481.776 63.4064 482.161 63.2496C482.546 63.0928 482.957 63.0173 483.37 63.0277C483.858 63.0369 484.338 63.1558 484.777 63.3761C485.216 63.5964 485.603 63.9128 485.912 64.3034C486.231 63.9212 486.626 63.6151 487.07 63.4066C487.514 63.1981 487.997 63.0921 488.485 63.0959C488.899 63.0965 489.308 63.1829 489.688 63.3499C490.069 63.5169 490.413 63.7612 490.701 64.0683C490.989 64.3753 491.214 64.739 491.363 65.1376C491.513 65.5363 491.583 65.9619 491.57 66.3892C491.542 68.6357 489.588 70.4134 486.626 73.1529L485.792 73.9106Z" fill="#FF6584"/>
<path d="M591.117 236.591H574.964V255.246H591.117V236.591Z" fill="#2F2E41"/>
<path d="M595.414 225.173L603.81 240.209L612.206 255.246H595.414H578.622L587.018 240.209L595.414 225.173Z" fill="#3F3D56"/>
<path d="M80.2656 141V109.76H100.77V112.488H83.3456V123.972H98.0416V126.524H83.3456V141H80.2656ZM105.56 113.28V108.88H108.552V113.28H105.56ZM105.56 141V118.076H108.552V141H105.56ZM126.582 120.716C124.587 120.775 122.827 121.332 121.302 122.388C119.806 123.444 118.75 124.896 118.134 126.744V141H115.142V118.076H117.958V123.576C118.75 121.963 119.791 120.657 121.082 119.66C122.402 118.663 123.795 118.105 125.262 117.988C125.555 117.959 125.804 117.944 126.01 117.944C126.215 117.944 126.406 117.959 126.582 117.988V120.716ZM139.78 141.44C137.58 141.44 135.615 140.897 133.884 139.812C132.153 138.727 130.789 137.275 129.792 135.456C128.795 133.637 128.296 131.643 128.296 129.472C128.296 127.331 128.78 125.365 129.748 123.576C130.745 121.787 132.109 120.364 133.84 119.308C135.571 118.223 137.536 117.68 139.736 117.68C141.995 117.68 143.975 118.223 145.676 119.308C147.377 120.393 148.697 121.831 149.636 123.62C150.604 125.38 151.088 127.316 151.088 129.428C151.088 129.897 151.073 130.293 151.044 130.616H131.42C131.567 132.259 132.036 133.725 132.828 135.016C133.62 136.277 134.632 137.289 135.864 138.052C137.096 138.785 138.445 139.152 139.912 139.152C141.408 139.152 142.816 138.771 144.136 138.008C145.456 137.245 146.395 136.248 146.952 135.016L149.548 135.72C149.079 136.835 148.345 137.832 147.348 138.712C146.38 139.563 145.251 140.237 143.96 140.736C142.669 141.205 141.276 141.44 139.78 141.44ZM131.332 128.46H148.272C148.155 126.817 147.7 125.365 146.908 124.104C146.116 122.813 145.104 121.816 143.872 121.112C142.64 120.379 141.276 120.012 139.78 120.012C138.284 120.012 136.92 120.379 135.688 121.112C134.456 121.816 133.444 122.813 132.652 124.104C131.889 125.365 131.449 126.817 131.332 128.46ZM168.86 141.22C166.748 141.22 164.798 140.78 163.008 139.9C161.248 138.991 159.708 137.773 158.388 136.248C157.068 134.723 156.042 133.021 155.308 131.144C154.604 129.237 154.252 127.301 154.252 125.336C154.252 123.253 154.604 121.273 155.308 119.396C156.042 117.489 157.054 115.803 158.344 114.336C159.635 112.84 161.16 111.667 162.92 110.816C164.68 109.965 166.602 109.54 168.684 109.54C171.764 109.54 174.272 110.171 176.208 111.432C178.144 112.693 179.611 114.336 180.608 116.36L178.232 117.944C177.235 116.008 175.9 114.585 174.228 113.676C172.556 112.767 170.694 112.312 168.64 112.312C166.91 112.312 165.34 112.679 163.932 113.412C162.554 114.145 161.366 115.128 160.368 116.36C159.4 117.592 158.652 118.985 158.124 120.54C157.596 122.095 157.332 123.708 157.332 125.38C157.332 127.14 157.626 128.812 158.212 130.396C158.799 131.951 159.62 133.344 160.676 134.576C161.762 135.779 163.008 136.732 164.416 137.436C165.854 138.111 167.408 138.448 169.08 138.448C170.87 138.448 172.571 138.023 174.184 137.172C175.827 136.321 177.396 135.001 178.892 133.212V128.02H171.94V125.644H181.488V141H178.892V136.424C176.018 139.621 172.674 141.22 168.86 141.22ZM198.64 120.716C196.646 120.775 194.886 121.332 193.36 122.388C191.864 123.444 190.808 124.896 190.192 126.744V141H187.2V118.076H190.016V123.576C190.808 121.963 191.85 120.657 193.14 119.66C194.46 118.663 195.854 118.105 197.32 117.988C197.614 117.959 197.863 117.944 198.068 117.944C198.274 117.944 198.464 117.959 198.64 117.988V120.716ZM200.692 134.4C200.692 132.992 201.103 131.775 201.924 130.748C202.746 129.692 203.875 128.871 205.312 128.284C206.779 127.697 208.466 127.404 210.372 127.404C211.487 127.404 212.646 127.507 213.848 127.712C215.051 127.888 216.122 128.137 217.06 128.46V126.524C217.06 124.588 216.488 123.048 215.344 121.904C214.2 120.76 212.616 120.188 210.592 120.188C209.39 120.188 208.187 120.423 206.984 120.892C205.782 121.332 204.535 121.992 203.244 122.872L202.1 120.76C203.596 119.733 205.063 118.971 206.5 118.472C207.938 117.944 209.404 117.68 210.9 117.68C213.716 117.68 215.946 118.487 217.588 120.1C219.231 121.713 220.052 123.943 220.052 126.788V137.392C220.052 138.184 220.419 138.595 221.152 138.624V141C220.507 141.088 220.052 141.117 219.788 141.088C219.055 141.059 218.498 140.824 218.116 140.384C217.735 139.944 217.53 139.475 217.5 138.976L217.456 137.304C216.43 138.624 215.095 139.651 213.452 140.384C211.81 141.088 210.138 141.44 208.436 141.44C206.94 141.44 205.606 141.132 204.432 140.516C203.259 139.871 202.335 139.02 201.66 137.964C201.015 136.879 200.692 135.691 200.692 134.4ZM216.048 136.16C216.723 135.368 217.06 134.635 217.06 133.96V130.616C215.036 129.824 212.924 129.428 210.724 129.428C208.583 129.428 206.852 129.853 205.532 130.704C204.212 131.555 203.552 132.713 203.552 134.18C203.552 135.441 204.036 136.585 205.004 137.612C206.002 138.639 207.38 139.152 209.14 139.152C210.578 139.152 211.912 138.873 213.144 138.316C214.406 137.759 215.374 137.04 216.048 136.16ZM260.617 141H257.625V128.196C257.625 125.556 257.199 123.605 256.349 122.344C255.498 121.053 254.237 120.408 252.565 120.408C250.805 120.408 249.25 121.024 247.901 122.256C246.551 123.488 245.598 125.072 245.041 127.008V141H242.049V128.196C242.049 125.497 241.623 123.532 240.773 122.3C239.951 121.039 238.705 120.408 237.033 120.408C235.302 120.408 233.747 121.009 232.369 122.212C231.019 123.415 230.066 124.999 229.509 126.964V141H226.517V118.076H229.245V123.268C230.183 121.508 231.415 120.144 232.941 119.176C234.466 118.179 236.153 117.68 238.001 117.68C239.907 117.68 241.447 118.237 242.621 119.352C243.794 120.437 244.513 121.845 244.777 123.576C246.889 119.645 249.837 117.68 253.621 117.68C256.202 117.68 258.006 118.589 259.033 120.408C260.089 122.197 260.617 124.588 260.617 127.58V141Z" fill="black"/>
<path d="M80.2656 141H78.2656V143H80.2656V141ZM80.2656 109.76V107.76H78.2656V109.76H80.2656ZM100.77 109.76H102.77V107.76H100.77V109.76ZM100.77 112.488V114.488H102.77V112.488H100.77ZM83.3456 112.488V110.488H81.3456V112.488H83.3456ZM83.3456 123.972H81.3456V125.972H83.3456V123.972ZM98.0416 123.972H100.042V121.972H98.0416V123.972ZM98.0416 126.524V128.524H100.042V126.524H98.0416ZM83.3456 126.524V124.524H81.3456V126.524H83.3456ZM83.3456 141V143H85.3456V141H83.3456ZM82.2656 141V109.76H78.2656V141H82.2656ZM80.2656 111.76H100.77V107.76H80.2656V111.76ZM98.7696 109.76V112.488H102.77V109.76H98.7696ZM100.77 110.488H83.3456V114.488H100.77V110.488ZM81.3456 112.488V123.972H85.3456V112.488H81.3456ZM83.3456 125.972H98.0416V121.972H83.3456V125.972ZM96.0416 123.972V126.524H100.042V123.972H96.0416ZM98.0416 124.524H83.3456V128.524H98.0416V124.524ZM81.3456 126.524V141H85.3456V126.524H81.3456ZM83.3456 139H80.2656V143H83.3456V139ZM105.56 113.28H103.56V115.28H105.56V113.28ZM105.56 108.88V106.88H103.56V108.88H105.56ZM108.552 108.88H110.552V106.88H108.552V108.88ZM108.552 113.28V115.28H110.552V113.28H108.552ZM105.56 141H103.56V143H105.56V141ZM105.56 118.076V116.076H103.56V118.076H105.56ZM108.552 118.076H110.552V116.076H108.552V118.076ZM108.552 141V143H110.552V141H108.552ZM107.56 113.28V108.88H103.56V113.28H107.56ZM105.56 110.88H108.552V106.88H105.56V110.88ZM106.552 108.88V113.28H110.552V108.88H106.552ZM108.552 111.28H105.56V115.28H108.552V111.28ZM107.56 141V118.076H103.56V141H107.56ZM105.56 120.076H108.552V116.076H105.56V120.076ZM106.552 118.076V141H110.552V118.076H106.552ZM108.552 139H105.56V143H108.552V139ZM126.582 120.716L126.641 122.715L128.582 122.658V120.716H126.582ZM121.302 122.388L120.163 120.744L120.156 120.749L120.148 120.754L121.302 122.388ZM118.134 126.744L116.236 126.112L116.134 126.419V126.744H118.134ZM118.134 141V143H120.134V141H118.134ZM115.142 141H113.142V143H115.142V141ZM115.142 118.076V116.076H113.142V118.076H115.142ZM117.958 118.076H119.958V116.076H117.958V118.076ZM117.958 123.576H115.958L119.753 124.457L117.958 123.576ZM121.082 119.66L119.876 118.064L119.867 118.071L119.859 118.077L121.082 119.66ZM125.262 117.988L125.421 119.982L125.441 119.98L125.461 119.978L125.262 117.988ZM126.582 117.988H128.582V116.294L126.911 116.015L126.582 117.988ZM126.523 118.717C124.172 118.786 122.031 119.451 120.163 120.744L122.44 124.032C123.623 123.213 125.002 122.763 126.641 122.715L126.523 118.717ZM120.148 120.754C118.281 122.072 116.978 123.886 116.236 126.112L120.031 127.376C120.521 125.906 121.331 124.816 122.455 124.022L120.148 120.754ZM116.134 126.744V141H120.134V126.744H116.134ZM118.134 139H115.142V143H118.134V139ZM117.142 141V118.076H113.142V141H117.142ZM115.142 120.076H117.958V116.076H115.142V120.076ZM115.958 118.076V123.576H119.958V118.076H115.958ZM119.753 124.457C120.424 123.09 121.28 122.035 122.305 121.243L119.859 118.077C118.303 119.28 117.075 120.835 116.162 122.695L119.753 124.457ZM122.287 121.256C123.343 120.458 124.38 120.065 125.421 119.982L125.102 115.994C123.21 116.146 121.461 116.867 119.876 118.064L122.287 121.256ZM125.461 119.978C125.714 119.953 125.893 119.944 126.01 119.944V115.944C125.716 115.944 125.396 115.965 125.063 115.998L125.461 119.978ZM126.01 119.944C126.121 119.944 126.2 119.952 126.253 119.961L126.911 116.015C126.611 115.965 126.309 115.944 126.01 115.944V119.944ZM124.582 117.988V120.716H128.582V117.988H124.582ZM133.884 139.812L132.822 141.506L133.884 139.812ZM129.792 135.456L128.038 136.418L129.792 135.456ZM129.748 123.576L128.001 122.602L127.995 122.613L127.989 122.624L129.748 123.576ZM133.84 119.308L134.882 121.015L134.892 121.009L134.903 121.002L133.84 119.308ZM149.636 123.62L147.865 124.549L147.874 124.567L147.884 124.584L149.636 123.62ZM151.044 130.616V132.616H152.871L153.036 130.797L151.044 130.616ZM131.42 130.616V128.616H129.234L129.428 130.794L131.42 130.616ZM132.828 135.016L131.123 136.062L131.129 136.071L131.134 136.08L132.828 135.016ZM135.864 138.052L134.811 139.753L134.826 139.762L134.841 139.771L135.864 138.052ZM144.136 138.008L143.136 136.276L144.136 138.008ZM146.952 135.016L147.476 133.086L145.832 132.64L145.13 134.192L146.952 135.016ZM149.548 135.72L151.391 136.496L152.279 134.388L150.072 133.79L149.548 135.72ZM147.348 138.712L148.668 140.214L148.671 140.212L147.348 138.712ZM143.96 140.736L144.644 142.616L144.662 142.609L144.681 142.602L143.96 140.736ZM131.332 128.46L129.337 128.318L129.184 130.46H131.332V128.46ZM148.272 128.46V130.46H150.42L150.267 128.318L148.272 128.46ZM146.908 124.104L145.203 125.15L145.209 125.159L145.214 125.168L146.908 124.104ZM143.872 121.112L142.849 122.831L142.864 122.84L142.88 122.848L143.872 121.112ZM135.688 121.112L136.68 122.848L136.696 122.84L136.711 122.831L135.688 121.112ZM132.652 124.104L130.947 123.058L130.941 123.069L132.652 124.104ZM139.78 139.44C137.926 139.44 136.334 138.988 134.947 138.118L132.822 141.506C134.895 142.807 137.234 143.44 139.78 143.44V139.44ZM134.947 138.118C133.51 137.216 132.382 136.019 131.546 134.494L128.038 136.418C129.197 138.531 130.797 140.237 132.822 141.506L134.947 138.118ZM131.546 134.494C130.718 132.984 130.296 131.323 130.296 129.472H126.296C126.296 131.963 126.872 134.29 128.038 136.418L131.546 134.494ZM130.296 129.472C130.296 127.645 130.706 126.009 131.507 124.528L127.989 122.624C126.854 124.721 126.296 127.016 126.296 129.472H130.296ZM131.495 124.55C132.326 123.058 133.449 121.89 134.882 121.015L132.798 117.601C130.77 118.838 129.165 120.515 128.001 122.602L131.495 124.55ZM134.903 121.002C136.29 120.132 137.882 119.68 139.736 119.68V115.68C137.19 115.68 134.851 116.313 132.778 117.614L134.903 121.002ZM139.736 119.68C141.661 119.68 143.258 120.138 144.6 120.994L146.752 117.622C144.692 116.308 142.329 115.68 139.736 115.68V119.68ZM144.6 120.994C146.008 121.892 147.088 123.068 147.865 124.549L151.407 122.691C150.307 120.593 148.747 118.895 146.752 117.622L144.6 120.994ZM147.884 124.584C148.681 126.033 149.088 127.635 149.088 129.428H153.088C153.088 126.997 152.527 124.727 151.389 122.656L147.884 124.584ZM149.088 129.428C149.088 129.861 149.074 130.193 149.052 130.435L153.036 130.797C153.072 130.394 153.088 129.934 153.088 129.428H149.088ZM151.044 128.616H131.42V132.616H151.044V128.616ZM129.428 130.794C129.6 132.716 130.156 134.485 131.123 136.062L134.533 133.97C133.916 132.965 133.534 131.801 133.412 130.438L129.428 130.794ZM131.134 136.08C132.084 137.592 133.313 138.825 134.811 139.753L136.917 136.351C135.952 135.754 135.156 134.963 134.522 133.952L131.134 136.08ZM134.841 139.771C136.39 140.693 138.094 141.152 139.912 141.152V137.152C138.797 137.152 137.802 136.878 136.887 136.333L134.841 139.771ZM139.912 141.152C141.766 141.152 143.519 140.675 145.137 139.74L143.136 136.276C142.114 136.867 141.05 137.152 139.912 137.152V141.152ZM145.137 139.74C146.771 138.796 148.023 137.501 148.774 135.84L145.13 134.192C144.766 134.995 144.142 135.695 143.136 136.276L145.137 139.74ZM146.429 136.946L149.025 137.65L150.072 133.79L147.476 133.086L146.429 136.946ZM147.705 134.944C147.363 135.755 146.819 136.511 146.025 137.212L148.671 140.212C149.871 139.153 150.794 137.915 151.391 136.496L147.705 134.944ZM146.028 137.21C145.249 137.894 144.327 138.45 143.239 138.87L144.681 142.602C146.175 142.024 147.511 141.232 148.668 140.214L146.028 137.21ZM143.277 138.856C142.224 139.239 141.064 139.44 139.78 139.44V143.44C141.488 143.44 143.115 143.171 144.644 142.616L143.277 138.856ZM131.332 130.46H148.272V126.46H131.332V130.46ZM150.267 128.318C150.129 126.383 149.586 124.608 148.602 123.04L145.214 125.168C145.814 126.123 146.181 127.252 146.277 128.602L150.267 128.318ZM148.613 123.058C147.657 121.501 146.408 120.257 144.864 119.376L142.88 122.848C143.801 123.375 144.575 124.126 145.203 125.15L148.613 123.058ZM144.895 119.393C143.34 118.468 141.62 118.012 139.78 118.012V122.012C140.932 122.012 141.94 122.29 142.849 122.831L144.895 119.393ZM139.78 118.012C137.94 118.012 136.22 118.468 134.665 119.393L136.711 122.831C137.62 122.29 138.628 122.012 139.78 122.012V118.012ZM134.696 119.376C133.153 120.257 131.903 121.501 130.947 123.058L134.357 125.15C134.985 124.126 135.76 123.375 136.68 122.848L134.696 119.376ZM130.941 123.069C129.996 124.632 129.474 126.397 129.337 128.318L133.327 128.602C133.424 127.238 133.783 126.099 134.364 125.139L130.941 123.069ZM163.008 139.9L162.09 141.677L162.108 141.686L162.126 141.695L163.008 139.9ZM158.388 136.248L156.876 137.557L156.876 137.557L158.388 136.248ZM155.308 131.144L153.432 131.837L153.439 131.854L153.445 131.872L155.308 131.144ZM155.308 119.396L153.442 118.678L153.439 118.686L153.436 118.694L155.308 119.396ZM158.344 114.336L159.846 115.657L159.852 115.65L159.859 115.642L158.344 114.336ZM162.92 110.816L162.05 109.015L162.05 109.015L162.92 110.816ZM176.208 111.432L177.3 109.756L177.3 109.756L176.208 111.432ZM180.608 116.36L181.718 118.024L183.178 117.05L182.402 115.476L180.608 116.36ZM178.232 117.944L176.454 118.86L177.479 120.85L179.342 119.608L178.232 117.944ZM174.228 113.676L175.184 111.919L175.184 111.919L174.228 113.676ZM163.932 113.412L163.008 111.638L163.001 111.642L162.993 111.646L163.932 113.412ZM160.368 116.36L158.814 115.102L158.805 115.113L158.796 115.124L160.368 116.36ZM158.124 120.54L160.018 121.183L160.018 121.183L158.124 120.54ZM158.212 130.396L156.337 131.091L156.341 131.102L158.212 130.396ZM160.676 134.576L159.158 135.878L159.174 135.897L159.192 135.916L160.676 134.576ZM164.416 137.436L163.522 139.225L163.544 139.236L163.566 139.246L164.416 137.436ZM174.184 137.172L173.265 135.396L173.258 135.399L173.251 135.403L174.184 137.172ZM178.892 133.212L180.427 134.495L180.892 133.938V133.212H178.892ZM178.892 128.02H180.892V126.02H178.892V128.02ZM171.94 128.02H169.94V130.02H171.94V128.02ZM171.94 125.644V123.644H169.94V125.644H171.94ZM181.488 125.644H183.488V123.644H181.488V125.644ZM181.488 141V143H183.488V141H181.488ZM178.892 141H176.892V143H178.892V141ZM178.892 136.424H180.892V131.208L177.405 135.087L178.892 136.424ZM168.86 139.22C167.036 139.22 165.389 138.842 163.891 138.105L162.126 141.695C164.206 142.718 166.461 143.22 168.86 143.22V139.22ZM163.926 138.123C162.397 137.333 161.057 136.276 159.901 134.939L156.876 137.557C158.359 139.271 160.1 140.649 162.09 141.677L163.926 138.123ZM159.901 134.939C158.73 133.586 157.822 132.081 157.171 130.416L153.445 131.872C154.262 133.961 155.407 135.859 156.876 137.557L159.901 134.939ZM157.184 130.451C156.56 128.759 156.252 127.057 156.252 125.336H152.252C152.252 127.546 152.649 129.716 153.432 131.837L157.184 130.451ZM156.252 125.336C156.252 123.484 156.564 121.742 157.181 120.098L153.436 118.694C152.644 120.804 152.252 123.023 152.252 125.336H156.252ZM157.175 120.114C157.827 118.418 158.719 116.938 159.846 115.657L156.843 113.015C155.389 114.667 154.256 116.56 153.442 118.678L157.175 120.114ZM159.859 115.642C160.973 114.351 162.28 113.347 163.791 112.617L162.05 109.015C160.041 109.986 158.297 111.329 156.83 113.03L159.859 115.642ZM163.791 112.617C165.262 111.906 166.883 111.54 168.684 111.54V107.54C166.32 107.54 164.099 108.025 162.05 109.015L163.791 112.617ZM168.684 111.54C171.503 111.54 173.597 112.118 175.117 113.108L177.3 109.756C174.948 108.224 172.026 107.54 168.684 107.54V111.54ZM175.117 113.108C176.759 114.178 177.98 115.55 178.814 117.244L182.402 115.476C181.242 113.122 179.529 111.209 177.3 109.756L175.117 113.108ZM179.499 114.696L177.123 116.28L179.342 119.608L181.718 118.024L179.499 114.696ZM180.01 117.028C178.857 114.789 177.257 113.047 175.184 111.919L173.273 115.433C174.543 116.124 175.613 117.227 176.454 118.86L180.01 117.028ZM175.184 111.919C173.196 110.838 171 110.312 168.64 110.312V114.312C170.387 114.312 171.917 114.696 173.273 115.433L175.184 111.919ZM168.64 110.312C166.618 110.312 164.727 110.743 163.008 111.638L164.856 115.186C165.954 114.614 167.202 114.312 168.64 114.312V110.312ZM162.993 111.646C161.374 112.508 159.977 113.664 158.814 115.102L161.923 117.618C162.754 116.592 163.734 115.783 164.872 115.178L162.993 111.646ZM158.796 115.124C157.681 116.543 156.828 118.138 156.231 119.897L160.018 121.183C160.477 119.832 161.119 118.641 161.941 117.596L158.796 115.124ZM156.231 119.897C155.631 121.662 155.332 123.493 155.332 125.38H159.332C159.332 123.923 159.562 122.527 160.018 121.183L156.231 119.897ZM155.332 125.38C155.332 127.367 155.664 129.275 156.337 131.091L160.088 129.701C159.587 128.349 159.332 126.913 159.332 125.38H155.332ZM156.341 131.102C157.008 132.869 157.947 134.465 159.158 135.878L162.195 133.274C161.294 132.223 160.59 131.032 160.084 129.69L156.341 131.102ZM159.192 135.916C160.439 137.298 161.884 138.406 163.522 139.225L165.311 135.647C164.132 135.058 163.084 134.259 162.161 133.236L159.192 135.916ZM163.566 139.246C165.284 140.053 167.13 140.448 169.08 140.448V136.448C167.686 136.448 166.423 136.169 165.266 135.626L163.566 139.246ZM169.08 140.448C171.201 140.448 173.222 139.94 175.117 138.941L173.251 135.403C171.92 136.105 170.538 136.448 169.08 136.448V140.448ZM175.104 138.948C177.035 137.948 178.803 136.437 180.427 134.495L177.358 131.929C175.989 133.566 174.619 134.695 173.265 135.396L175.104 138.948ZM180.892 133.212V128.02H176.892V133.212H180.892ZM178.892 126.02H171.94V130.02H178.892V126.02ZM173.94 128.02V125.644H169.94V128.02H173.94ZM171.94 127.644H181.488V123.644H171.94V127.644ZM179.488 125.644V141H183.488V125.644H179.488ZM181.488 139H178.892V143H181.488V139ZM180.892 141V136.424H176.892V141H180.892ZM177.405 135.087C174.856 137.922 172.031 139.22 168.86 139.22V143.22C173.317 143.22 177.179 141.321 180.38 137.761L177.405 135.087ZM198.64 120.716L198.699 122.715L200.64 122.658V120.716H198.64ZM193.36 122.388L192.222 120.744L192.214 120.749L192.207 120.754L193.36 122.388ZM190.192 126.744L188.295 126.112L188.192 126.419V126.744H190.192ZM190.192 141V143H192.192V141H190.192ZM187.2 141H185.2V143H187.2V141ZM187.2 118.076V116.076H185.2V118.076H187.2ZM190.016 118.076H192.016V116.076H190.016V118.076ZM190.016 123.576H188.016L191.812 124.457L190.016 123.576ZM193.14 119.66L191.935 118.064L191.926 118.071L191.917 118.077L193.14 119.66ZM197.32 117.988L197.48 119.982L197.5 119.98L197.519 119.978L197.32 117.988ZM198.64 117.988H200.64V116.294L198.969 116.015L198.64 117.988ZM198.582 118.717C196.231 118.786 194.09 119.451 192.222 120.744L194.499 124.032C195.682 123.213 197.061 122.763 198.699 122.715L198.582 118.717ZM192.207 120.754C190.34 122.072 189.037 123.886 188.295 126.112L192.09 127.376C192.58 125.906 193.389 124.816 194.514 124.022L192.207 120.754ZM188.192 126.744V141H192.192V126.744H188.192ZM190.192 139H187.2V143H190.192V139ZM189.2 141V118.076H185.2V141H189.2ZM187.2 120.076H190.016V116.076H187.2V120.076ZM188.016 118.076V123.576H192.016V118.076H188.016ZM191.812 124.457C192.483 123.09 193.338 122.035 194.363 121.243L191.917 118.077C190.361 119.28 189.134 120.835 188.221 122.695L191.812 124.457ZM194.346 121.256C195.401 120.458 196.439 120.065 197.48 119.982L197.161 115.994C195.269 116.146 193.52 116.867 191.935 118.064L194.346 121.256ZM197.519 119.978C197.772 119.953 197.951 119.944 198.068 119.944V115.944C197.775 115.944 197.455 115.965 197.121 115.998L197.519 119.978ZM198.068 119.944C198.18 119.944 198.259 119.952 198.312 119.961L198.969 116.015C198.67 115.965 198.368 115.944 198.068 115.944V119.944ZM196.64 117.988V120.716H200.64V117.988H196.64ZM201.924 130.748L203.486 131.997L203.495 131.987L203.503 131.976L201.924 130.748ZM205.312 128.284L204.569 126.427L204.556 126.432L205.312 128.284ZM213.848 127.712L213.512 129.683L213.535 129.687L213.559 129.691L213.848 127.712ZM217.06 128.46L216.41 130.351L219.06 131.262V128.46H217.06ZM215.344 121.904L213.93 123.318L215.344 121.904ZM206.984 120.892L207.671 122.77L207.691 122.763L207.711 122.755L206.984 120.892ZM203.244 122.872L201.486 123.825L202.541 125.772L204.371 124.524L203.244 122.872ZM202.1 120.76L200.969 119.111L199.484 120.13L200.342 121.713L202.1 120.76ZM206.5 118.472L207.156 120.362L207.173 120.356L207.19 120.349L206.5 118.472ZM217.588 120.1L218.99 118.673L217.588 120.1ZM221.152 138.624H223.152V136.702L221.232 136.626L221.152 138.624ZM221.152 141L221.422 142.982L223.152 142.746V141H221.152ZM219.788 141.088L220.009 139.1L219.939 139.092L219.868 139.09L219.788 141.088ZM218.116 140.384L216.605 141.694L218.116 140.384ZM217.5 138.976L215.501 139.029L215.502 139.061L215.504 139.093L217.5 138.976ZM217.456 137.304L219.456 137.251L219.309 131.665L215.878 136.076L217.456 137.304ZM213.452 140.384L214.24 142.222L214.254 142.216L214.268 142.21L213.452 140.384ZM204.432 140.516L203.468 142.268L203.485 142.278L203.503 142.287L204.432 140.516ZM201.66 137.964L199.941 138.986L199.958 139.014L199.975 139.041L201.66 137.964ZM216.048 136.16L214.526 134.863L214.492 134.902L214.461 134.943L216.048 136.16ZM217.06 130.616H219.06V129.251L217.789 128.754L217.06 130.616ZM205.004 137.612L203.549 138.984L203.559 138.995L203.57 139.006L205.004 137.612ZM213.144 138.316L212.336 136.487L212.328 136.49L212.32 136.494L213.144 138.316ZM202.692 134.4C202.692 133.412 202.969 132.643 203.486 131.997L200.362 129.499C199.237 130.906 198.692 132.572 198.692 134.4H202.692ZM203.503 131.976C204.077 131.238 204.902 130.612 206.068 130.136L204.556 126.432C202.848 127.13 201.414 128.146 200.346 129.52L203.503 131.976ZM206.055 130.141C207.242 129.666 208.669 129.404 210.372 129.404V125.404C208.262 125.404 206.316 125.729 204.569 126.427L206.055 130.141ZM210.372 129.404C211.364 129.404 212.41 129.495 213.512 129.683L214.185 125.741C212.881 125.518 211.61 125.404 210.372 125.404V129.404ZM213.559 129.691C214.665 129.853 215.611 130.077 216.41 130.351L217.71 126.569C216.632 126.198 215.437 125.923 214.138 125.733L213.559 129.691ZM219.06 128.46V126.524H215.06V128.46H219.06ZM219.06 126.524C219.06 124.169 218.35 122.081 216.758 120.49L213.93 123.318C214.627 124.015 215.06 125.007 215.06 126.524H219.06ZM216.758 120.49C215.15 118.882 213.006 118.188 210.592 118.188V122.188C212.226 122.188 213.25 122.638 213.93 123.318L216.758 120.49ZM210.592 118.188C209.123 118.188 207.674 118.476 206.257 119.029L207.711 122.755C208.699 122.37 209.656 122.188 210.592 122.188V118.188ZM206.297 119.014C204.91 119.521 203.516 120.266 202.118 121.22L204.371 124.524C205.554 123.718 206.654 123.143 207.671 122.77L206.297 119.014ZM205.003 121.919L203.859 119.807L200.342 121.713L201.486 123.825L205.003 121.919ZM203.232 122.409C204.608 121.465 205.916 120.792 207.156 120.362L205.845 116.582C204.21 117.15 202.584 118.002 200.969 119.111L203.232 122.409ZM207.19 120.349C208.412 119.901 209.645 119.68 210.9 119.68V115.68C209.163 115.68 207.464 115.987 205.811 116.595L207.19 120.349ZM210.9 119.68C213.316 119.68 214.998 120.359 216.187 121.527L218.99 118.673C216.893 116.614 214.116 115.68 210.9 115.68V119.68ZM216.187 121.527C217.36 122.679 218.052 124.345 218.052 126.788H222.052C222.052 123.541 221.102 120.747 218.99 118.673L216.187 121.527ZM218.052 126.788V137.392H222.052V126.788H218.052ZM218.052 137.392C218.052 138.066 218.206 138.922 218.835 139.626C219.488 140.357 220.351 140.594 221.072 140.622L221.232 136.626C221.22 136.625 221.533 136.642 221.819 136.962C222.081 137.256 222.052 137.51 222.052 137.392H218.052ZM219.152 138.624V141H223.152V138.624H219.152ZM220.882 139.018C220.588 139.058 220.363 139.082 220.198 139.092C220.018 139.104 219.972 139.096 220.009 139.1L219.567 143.076C220.104 143.135 220.782 143.069 221.422 142.982L220.882 139.018ZM219.868 139.09C219.691 139.083 219.613 139.054 219.596 139.047C219.589 139.044 219.593 139.044 219.603 139.051C219.613 139.059 219.622 139.067 219.628 139.074L216.605 141.694C217.437 142.654 218.576 143.041 219.708 143.086L219.868 139.09ZM219.628 139.074C219.551 138.986 219.52 138.927 219.509 138.9C219.498 138.877 219.497 138.866 219.497 138.859L215.504 139.093C215.563 140.102 215.985 140.978 216.605 141.694L219.628 139.074ZM219.5 138.923L219.456 137.251L215.457 137.357L215.501 139.029L219.5 138.923ZM215.878 136.076C215.067 137.118 214.003 137.948 212.637 138.558L214.268 142.21C216.187 141.354 217.792 140.13 219.035 138.532L215.878 136.076ZM212.664 138.546C211.258 139.148 209.853 139.44 208.436 139.44V143.44C210.422 143.44 212.361 143.028 214.24 142.222L212.664 138.546ZM208.436 139.44C207.222 139.44 206.213 139.192 205.362 138.745L203.503 142.287C204.998 143.072 206.659 143.44 208.436 143.44V139.44ZM205.396 138.764C204.495 138.268 203.828 137.642 203.346 136.887L199.975 139.041C200.842 140.398 202.023 141.473 203.468 142.268L205.396 138.764ZM203.379 136.942C202.922 136.173 202.692 135.339 202.692 134.4H198.692C198.692 136.042 199.108 137.584 199.941 138.986L203.379 136.942ZM217.571 137.457C218.394 136.49 219.06 135.309 219.06 133.96H215.06C215.06 133.961 215.052 134.246 214.526 134.863L217.571 137.457ZM219.06 133.96V130.616H215.06V133.96H219.06ZM217.789 128.754C215.53 127.87 213.17 127.428 210.724 127.428V131.428C212.678 131.428 214.543 131.778 216.331 132.478L217.789 128.754ZM210.724 127.428C208.334 127.428 206.189 127.901 204.449 129.023L206.616 132.385C207.515 131.806 208.832 131.428 210.724 131.428V127.428ZM204.449 129.023C202.606 130.211 201.552 131.978 201.552 134.18H205.552C205.552 133.449 205.819 132.899 206.616 132.385L204.449 129.023ZM201.552 134.18C201.552 136.013 202.276 137.634 203.549 138.984L206.459 136.24C205.796 135.537 205.552 134.869 205.552 134.18H201.552ZM203.57 139.006C205.027 140.506 206.972 141.152 209.14 141.152V137.152C207.788 137.152 206.976 136.772 206.439 136.218L203.57 139.006ZM209.14 141.152C210.844 141.152 212.461 140.82 213.969 140.138L212.32 136.494C211.363 136.927 210.312 137.152 209.14 137.152V141.152ZM213.953 140.145C215.447 139.485 216.713 138.58 217.635 137.377L214.461 134.943C214.034 135.5 213.364 136.032 212.336 136.487L213.953 140.145ZM260.617 141V143H262.617V141H260.617ZM257.625 141H255.625V143H257.625V141ZM256.349 122.344L254.679 123.445L254.685 123.453L254.691 123.462L256.349 122.344ZM247.901 122.256L246.552 120.779L246.552 120.779L247.901 122.256ZM245.041 127.008L243.119 126.455L243.041 126.726V127.008H245.041ZM245.041 141V143H247.041V141H245.041ZM242.049 141H240.049V143H242.049V141ZM240.773 122.3L239.097 123.391L239.112 123.414L239.127 123.436L240.773 122.3ZM232.369 122.212L231.054 120.705L231.046 120.712L231.038 120.719L232.369 122.212ZM229.509 126.964L227.585 126.418L227.509 126.686V126.964H229.509ZM229.509 141V143H231.509V141H229.509ZM226.517 141H224.517V143H226.517V141ZM226.517 118.076V116.076H224.517V118.076H226.517ZM229.245 118.076H231.245V116.076H229.245V118.076ZM229.245 123.268H227.245L231.01 124.209L229.245 123.268ZM232.941 119.176L234.012 120.865L234.024 120.857L234.035 120.85L232.941 119.176ZM242.621 119.352L241.243 120.802L241.253 120.811L241.263 120.82L242.621 119.352ZM244.777 123.576L242.8 123.878L243.703 129.8L246.539 124.523L244.777 123.576ZM259.033 120.408L257.291 121.391L257.301 121.408L257.31 121.425L259.033 120.408ZM260.617 139H257.625V143H260.617V139ZM259.625 141V128.196H255.625V141H259.625ZM259.625 128.196C259.625 125.417 259.191 122.981 258.007 121.226L254.691 123.462C255.208 124.229 255.625 125.695 255.625 128.196H259.625ZM258.019 121.243C256.763 119.339 254.844 118.408 252.565 118.408V122.408C253.63 122.408 254.233 122.768 254.679 123.445L258.019 121.243ZM252.565 118.408C250.285 118.408 248.255 119.225 246.552 120.779L249.249 123.733C250.246 122.823 251.324 122.408 252.565 122.408V118.408ZM246.552 120.779C244.903 122.285 243.768 124.201 243.119 126.455L246.963 127.561C247.429 125.943 248.2 124.691 249.249 123.733L246.552 120.779ZM243.041 127.008V141H247.041V127.008H243.041ZM245.041 139H242.049V143H245.041V139ZM244.049 141V128.196H240.049V141H244.049ZM244.049 128.196C244.049 125.375 243.621 122.905 242.419 121.164L239.127 123.436C239.626 124.159 240.049 125.619 240.049 128.196H244.049ZM242.449 121.209C241.213 119.31 239.293 118.408 237.033 118.408V122.408C238.117 122.408 238.69 122.767 239.097 123.391L242.449 121.209ZM237.033 118.408C234.789 118.408 232.774 119.204 231.054 120.705L233.684 123.719C234.721 122.814 235.815 122.408 237.033 122.408V118.408ZM231.038 120.719C229.369 122.206 228.232 124.136 227.585 126.418L231.433 127.51C231.9 125.861 232.67 124.623 233.7 123.705L231.038 120.719ZM227.509 126.964V141H231.509V126.964H227.509ZM229.509 139H226.517V143H229.509V139ZM228.517 141V118.076H224.517V141H228.517ZM226.517 120.076H229.245V116.076H226.517V120.076ZM227.245 118.076V123.268H231.245V118.076H227.245ZM231.01 124.209C231.803 122.721 232.808 121.629 234.012 120.865L231.869 117.487C230.023 118.659 228.564 120.294 227.48 122.327L231.01 124.209ZM234.035 120.85C235.23 120.069 236.536 119.68 238.001 119.68V115.68C235.77 115.68 233.702 116.289 231.846 117.502L234.035 120.85ZM238.001 119.68C239.492 119.68 240.507 120.102 241.243 120.802L243.998 117.902C242.388 116.372 240.323 115.68 238.001 115.68V119.68ZM241.263 120.82C242.071 121.568 242.597 122.549 242.8 123.878L246.754 123.274C246.429 121.141 245.517 119.307 243.979 117.884L241.263 120.82ZM246.539 124.523C248.377 121.101 250.72 119.68 253.621 119.68V115.68C248.954 115.68 245.4 118.19 243.015 122.629L246.539 124.523ZM253.621 119.68C255.681 119.68 256.708 120.357 257.291 121.391L260.774 119.425C259.305 116.821 256.724 115.68 253.621 115.68V119.68ZM257.31 121.425C258.122 122.799 258.617 124.797 258.617 127.58H262.617C262.617 124.379 262.056 121.595 260.755 119.391L257.31 121.425ZM258.617 127.58V141H262.617V127.58H258.617Z" fill="black"/>
<path d="M79.3064 173.614C78.9464 173.218 78.4664 172.894 77.8664 172.642C77.2664 172.378 76.5824 172.246 75.8144 172.246C74.6864 172.246 73.8644 172.462 73.3484 172.894C72.8324 173.314 72.5744 173.89 72.5744 174.622C72.5744 175.126 72.7004 175.522 72.9524 175.81C73.2044 176.098 73.5884 176.338 74.1044 176.53C74.6324 176.71 75.3044 176.89 76.1204 177.07C77.0324 177.262 77.8184 177.49 78.4784 177.754C79.1384 178.018 79.6484 178.378 80.0084 178.834C80.3684 179.278 80.5484 179.884 80.5484 180.652C80.5484 181.432 80.3504 182.08 79.9544 182.596C79.5584 183.112 79.0124 183.496 78.3164 183.748C77.6204 183.988 76.8284 184.108 75.9404 184.108C73.9484 184.108 72.2384 183.49 70.8104 182.254L71.4404 181.228C71.8964 181.708 72.5204 182.122 73.3124 182.47C74.1164 182.818 75.0044 182.992 75.9764 182.992C76.9844 182.992 77.7764 182.806 78.3524 182.434C78.9284 182.062 79.2164 181.51 79.2164 180.778C79.2164 180.25 79.0724 179.83 78.7844 179.518C78.4964 179.194 78.0644 178.93 77.4884 178.726C76.9124 178.522 76.2044 178.324 75.3644 178.132C74.4764 177.928 73.7264 177.7 73.1144 177.448C72.5144 177.196 72.0584 176.866 71.7464 176.458C71.4344 176.05 71.2784 175.498 71.2784 174.802C71.2784 174.01 71.4704 173.344 71.8544 172.804C72.2504 172.252 72.7904 171.838 73.4744 171.562C74.1584 171.274 74.9444 171.13 75.8324 171.13C76.6724 171.13 77.4284 171.262 78.1004 171.526C78.7724 171.778 79.3784 172.138 79.9184 172.606L79.3064 173.614ZM90.402 184H89.178V178.762C89.178 176.638 88.458 175.576 87.018 175.576C86.55 175.576 86.094 175.696 85.65 175.936C85.206 176.164 84.81 176.482 84.462 176.89C84.126 177.286 83.886 177.742 83.742 178.258V184H82.518V170.86H83.742V176.746C84.114 176.05 84.63 175.498 85.29 175.09C85.962 174.67 86.676 174.46 87.432 174.46C88.152 174.46 88.728 174.634 89.16 174.982C89.592 175.318 89.904 175.792 90.096 176.404C90.3 177.004 90.402 177.706 90.402 178.51V184ZM92.2561 181.3C92.2561 180.724 92.4241 180.226 92.7601 179.806C93.0961 179.374 93.5581 179.038 94.1461 178.798C94.7461 178.558 95.4361 178.438 96.2161 178.438C96.6721 178.438 97.1461 178.48 97.6381 178.564C98.1301 178.636 98.5681 178.738 98.9521 178.87V178.078C98.9521 177.286 98.7181 176.656 98.2501 176.188C97.7821 175.72 97.1341 175.486 96.3061 175.486C95.8141 175.486 95.3221 175.582 94.8301 175.774C94.3381 175.954 93.8281 176.224 93.3001 176.584L92.8321 175.72C93.4441 175.3 94.0441 174.988 94.6321 174.784C95.2201 174.568 95.8201 174.46 96.4321 174.46C97.5841 174.46 98.4961 174.79 99.1681 175.45C99.8401 176.11 100.176 177.022 100.176 178.186V182.524C100.176 182.848 100.326 183.016 100.626 183.028V184C100.362 184.036 100.176 184.048 100.068 184.036C99.7681 184.024 99.5401 183.928 99.3841 183.748C99.2281 183.568 99.1441 183.376 99.1321 183.172L99.1141 182.488C98.6941 183.028 98.1481 183.448 97.4761 183.748C96.8041 184.036 96.1201 184.18 95.4241 184.18C94.8121 184.18 94.2661 184.054 93.7861 183.802C93.3061 183.538 92.9281 183.19 92.6521 182.758C92.3881 182.314 92.2561 181.828 92.2561 181.3ZM98.5381 182.02C98.8141 181.696 98.9521 181.396 98.9521 181.12V179.752C98.1241 179.428 97.2601 179.266 96.3601 179.266C95.4841 179.266 94.7761 179.44 94.2361 179.788C93.6961 180.136 93.4261 180.61 93.4261 181.21C93.4261 181.726 93.6241 182.194 94.0201 182.614C94.4281 183.034 94.9921 183.244 95.7121 183.244C96.3001 183.244 96.8461 183.13 97.3501 182.902C97.8661 182.674 98.2621 182.38 98.5381 182.02ZM107.501 175.702C106.685 175.726 105.965 175.954 105.341 176.386C104.729 176.818 104.297 177.412 104.045 178.168V184H102.821V174.622H103.973V176.872C104.297 176.212 104.723 175.678 105.251 175.27C105.791 174.862 106.361 174.634 106.961 174.586C107.081 174.574 107.183 174.568 107.267 174.568C107.351 174.568 107.429 174.574 107.501 174.586V175.702ZM109.131 172.66V170.86H110.355V172.66H109.131ZM109.131 184V174.622H110.355V184H109.131ZM120.935 184H119.711V178.762C119.711 177.658 119.543 176.854 119.207 176.35C118.883 175.834 118.379 175.576 117.695 175.576C117.215 175.576 116.741 175.696 116.273 175.936C115.805 176.164 115.391 176.482 115.031 176.89C114.683 177.286 114.431 177.742 114.275 178.258V184H113.051V174.622H114.167V176.746C114.539 176.062 115.085 175.51 115.805 175.09C116.525 174.67 117.305 174.46 118.145 174.46C118.841 174.46 119.393 174.628 119.801 174.964C120.209 175.288 120.497 175.756 120.665 176.368C120.845 176.968 120.935 177.682 120.935 178.51V184ZM127.307 184.126C126.659 184.126 126.065 183.994 125.525 183.73C124.997 183.466 124.535 183.112 124.139 182.668C123.755 182.212 123.455 181.696 123.239 181.12C123.023 180.544 122.915 179.95 122.915 179.338C122.915 178.462 123.101 177.658 123.473 176.926C123.845 176.182 124.355 175.588 125.003 175.144C125.663 174.688 126.419 174.46 127.271 174.46C128.075 174.46 128.771 174.664 129.359 175.072C129.959 175.48 130.463 175.984 130.871 176.584V174.622H131.969V184.036C131.969 184.912 131.759 185.644 131.339 186.232C130.919 186.82 130.361 187.264 129.665 187.564C128.969 187.864 128.207 188.014 127.379 188.014C126.299 188.014 125.429 187.822 124.769 187.438C124.121 187.054 123.587 186.538 123.167 185.89L123.923 185.296C124.295 185.884 124.787 186.322 125.399 186.61C126.023 186.898 126.683 187.042 127.379 187.042C127.991 187.042 128.549 186.928 129.053 186.7C129.569 186.484 129.977 186.154 130.277 185.71C130.589 185.266 130.745 184.708 130.745 184.036V182.182C130.385 182.77 129.893 183.244 129.269 183.604C128.645 183.952 127.991 184.126 127.307 184.126ZM127.649 183.1C128.141 183.1 128.609 182.986 129.053 182.758C129.497 182.53 129.869 182.242 130.169 181.894C130.481 181.534 130.673 181.162 130.745 180.778V177.88C130.565 177.424 130.307 177.022 129.971 176.674C129.635 176.314 129.251 176.038 128.819 175.846C128.387 175.642 127.949 175.54 127.505 175.54C126.809 175.54 126.209 175.732 125.705 176.116C125.213 176.488 124.829 176.968 124.553 177.556C124.289 178.132 124.157 178.732 124.157 179.356C124.157 180.028 124.313 180.652 124.625 181.228C124.937 181.792 125.357 182.248 125.885 182.596C126.413 182.932 127.001 183.1 127.649 183.1ZM139.26 172.66V170.86H140.484V172.66H139.26ZM139.26 184V174.622H140.484V184H139.26ZM157.13 184H155.906V178.762C155.906 177.682 155.732 176.884 155.384 176.368C155.036 175.84 154.52 175.576 153.836 175.576C153.116 175.576 152.48 175.828 151.928 176.332C151.376 176.836 150.986 177.484 150.758 178.276V184H149.534V178.762C149.534 177.658 149.36 176.854 149.012 176.35C148.676 175.834 148.166 175.576 147.482 175.576C146.774 175.576 146.138 175.822 145.574 176.314C145.022 176.806 144.632 177.454 144.404 178.258V184H143.18V174.622H144.296V176.746C144.68 176.026 145.184 175.468 145.808 175.072C146.432 174.664 147.122 174.46 147.878 174.46C148.658 174.46 149.288 174.688 149.768 175.144C150.248 175.588 150.542 176.164 150.65 176.872C151.514 175.264 152.72 174.46 154.268 174.46C155.324 174.46 156.062 174.832 156.482 175.576C156.914 176.308 157.13 177.286 157.13 178.51V184ZM158.965 181.3C158.965 180.724 159.133 180.226 159.469 179.806C159.805 179.374 160.267 179.038 160.855 178.798C161.455 178.558 162.145 178.438 162.925 178.438C163.381 178.438 163.855 178.48 164.347 178.564C164.839 178.636 165.277 178.738 165.661 178.87V178.078C165.661 177.286 165.427 176.656 164.959 176.188C164.491 175.72 163.843 175.486 163.015 175.486C162.523 175.486 162.031 175.582 161.539 175.774C161.047 175.954 160.537 176.224 160.009 176.584L159.541 175.72C160.153 175.3 160.753 174.988 161.341 174.784C161.929 174.568 162.529 174.46 163.141 174.46C164.293 174.46 165.205 174.79 165.877 175.45C166.549 176.11 166.885 177.022 166.885 178.186V182.524C166.885 182.848 167.035 183.016 167.335 183.028V184C167.071 184.036 166.885 184.048 166.777 184.036C166.477 184.024 166.249 183.928 166.093 183.748C165.937 183.568 165.853 183.376 165.841 183.172L165.823 182.488C165.403 183.028 164.857 183.448 164.185 183.748C163.513 184.036 162.829 184.18 162.133 184.18C161.521 184.18 160.975 184.054 160.495 183.802C160.015 183.538 159.637 183.19 159.361 182.758C159.097 182.314 158.965 181.828 158.965 181.3ZM165.247 182.02C165.523 181.696 165.661 181.396 165.661 181.12V179.752C164.833 179.428 163.969 179.266 163.069 179.266C162.193 179.266 161.485 179.44 160.945 179.788C160.405 180.136 160.135 180.61 160.135 181.21C160.135 181.726 160.333 182.194 160.729 182.614C161.137 183.034 161.701 183.244 162.421 183.244C163.009 183.244 163.555 183.13 164.059 182.902C164.575 182.674 164.971 182.38 165.247 182.02ZM173.292 184.126C172.644 184.126 172.05 183.994 171.51 183.73C170.982 183.466 170.52 183.112 170.124 182.668C169.74 182.212 169.44 181.696 169.224 181.12C169.008 180.544 168.9 179.95 168.9 179.338C168.9 178.462 169.086 177.658 169.458 176.926C169.83 176.182 170.34 175.588 170.988 175.144C171.648 174.688 172.404 174.46 173.256 174.46C174.06 174.46 174.756 174.664 175.344 175.072C175.944 175.48 176.448 175.984 176.856 176.584V174.622H177.954V184.036C177.954 184.912 177.744 185.644 177.324 186.232C176.904 186.82 176.346 187.264 175.65 187.564C174.954 187.864 174.192 188.014 173.364 188.014C172.284 188.014 171.414 187.822 170.754 187.438C170.106 187.054 169.572 186.538 169.152 185.89L169.908 185.296C170.28 185.884 170.772 186.322 171.384 186.61C172.008 186.898 172.668 187.042 173.364 187.042C173.976 187.042 174.534 186.928 175.038 186.7C175.554 186.484 175.962 186.154 176.262 185.71C176.574 185.266 176.73 184.708 176.73 184.036V182.182C176.37 182.77 175.878 183.244 175.254 183.604C174.63 183.952 173.976 184.126 173.292 184.126ZM173.634 183.1C174.126 183.1 174.594 182.986 175.038 182.758C175.482 182.53 175.854 182.242 176.154 181.894C176.466 181.534 176.658 181.162 176.73 180.778V177.88C176.55 177.424 176.292 177.022 175.956 176.674C175.62 176.314 175.236 176.038 174.804 175.846C174.372 175.642 173.934 175.54 173.49 175.54C172.794 175.54 172.194 175.732 171.69 176.116C171.198 176.488 170.814 176.968 170.538 177.556C170.274 178.132 170.142 178.732 170.142 179.356C170.142 180.028 170.298 180.652 170.61 181.228C170.922 181.792 171.342 182.248 171.87 182.596C172.398 182.932 172.986 183.1 173.634 183.1ZM184.707 184.18C183.807 184.18 183.003 183.958 182.295 183.514C181.587 183.07 181.029 182.476 180.621 181.732C180.213 180.988 180.009 180.172 180.009 179.284C180.009 178.408 180.207 177.604 180.603 176.872C181.011 176.14 181.569 175.558 182.277 175.126C182.985 174.682 183.789 174.46 184.689 174.46C185.613 174.46 186.423 174.682 187.119 175.126C187.815 175.57 188.355 176.158 188.739 176.89C189.135 177.61 189.333 178.402 189.333 179.266C189.333 179.458 189.327 179.62 189.315 179.752H181.287C181.347 180.424 181.539 181.024 181.863 181.552C182.187 182.068 182.601 182.482 183.105 182.794C183.609 183.094 184.161 183.244 184.761 183.244C185.373 183.244 185.949 183.088 186.489 182.776C187.029 182.464 187.413 182.056 187.641 181.552L188.703 181.84C188.511 182.296 188.211 182.704 187.803 183.064C187.407 183.412 186.945 183.688 186.417 183.892C185.889 184.084 185.319 184.18 184.707 184.18ZM181.251 178.87H188.181C188.133 178.198 187.947 177.604 187.623 177.088C187.299 176.56 186.885 176.152 186.381 175.864C185.877 175.564 185.319 175.414 184.707 175.414C184.095 175.414 183.537 175.564 183.033 175.864C182.529 176.152 182.115 176.56 181.791 177.088C181.479 177.604 181.299 178.198 181.251 178.87ZM194.299 184.18C193.531 184.18 192.817 184.054 192.157 183.802C191.509 183.538 190.939 183.154 190.447 182.65L190.951 181.786C191.479 182.278 192.007 182.638 192.535 182.866C193.075 183.082 193.645 183.19 194.245 183.19C194.965 183.19 195.553 183.046 196.009 182.758C196.477 182.458 196.711 182.032 196.711 181.48C196.711 181.108 196.597 180.826 196.369 180.634C196.153 180.43 195.835 180.268 195.415 180.148C195.007 180.028 194.515 179.89 193.939 179.734C193.291 179.554 192.745 179.368 192.301 179.176C191.869 178.972 191.539 178.72 191.311 178.42C191.095 178.108 190.987 177.706 190.987 177.214C190.987 176.614 191.137 176.11 191.437 175.702C191.749 175.294 192.169 174.988 192.697 174.784C193.237 174.568 193.837 174.46 194.497 174.46C195.217 174.46 195.853 174.574 196.405 174.802C196.957 175.03 197.407 175.348 197.755 175.756L197.161 176.584C196.837 176.2 196.435 175.918 195.955 175.738C195.487 175.546 194.977 175.45 194.425 175.45C194.041 175.45 193.675 175.504 193.327 175.612C192.979 175.708 192.691 175.876 192.463 176.116C192.247 176.344 192.139 176.662 192.139 177.07C192.139 177.574 192.325 177.922 192.697 178.114C193.069 178.306 193.633 178.51 194.389 178.726C195.097 178.918 195.715 179.11 196.243 179.302C196.771 179.494 197.179 179.752 197.467 180.076C197.755 180.388 197.899 180.826 197.899 181.39C197.899 182.266 197.569 182.95 196.909 183.442C196.249 183.934 195.379 184.18 194.299 184.18ZM215.808 174.622H217.014L212.982 184H211.92L209.958 179.338L208.014 184H206.952L202.92 174.622H204.108L207.528 182.74L209.256 178.51L207.672 174.64H208.77L209.958 177.682L211.164 174.64H212.244L210.678 178.51L212.406 182.74L215.808 174.622ZM218.643 172.66V170.86H219.867V172.66H218.643ZM218.643 184V174.622H219.867V184H218.643ZM227.063 183.55C226.919 183.61 226.655 183.718 226.271 183.874C225.887 184.03 225.443 184.108 224.939 184.108C224.411 184.108 223.949 183.958 223.553 183.658C223.157 183.358 222.959 182.908 222.959 182.308V175.594H221.663V174.622H222.959V171.454H224.183V174.622H226.343V175.594H224.183V181.966C224.207 182.314 224.327 182.572 224.543 182.74C224.771 182.896 225.029 182.974 225.317 182.974C225.653 182.974 225.953 182.92 226.217 182.812C226.493 182.692 226.667 182.608 226.739 182.56L227.063 183.55ZM236.476 184H235.252V178.762C235.252 176.638 234.532 175.576 233.092 175.576C232.624 175.576 232.168 175.696 231.724 175.936C231.28 176.164 230.884 176.482 230.536 176.89C230.2 177.286 229.96 177.742 229.816 178.258V184H228.592V170.86H229.816V176.746C230.188 176.05 230.704 175.498 231.364 175.09C232.036 174.67 232.75 174.46 233.506 174.46C234.226 174.46 234.802 174.634 235.234 174.982C235.666 175.318 235.978 175.792 236.17 176.404C236.374 177.004 236.476 177.706 236.476 178.51V184ZM243.728 170.86H244.952V181.876C244.952 182.344 245.03 182.65 245.186 182.794C245.354 182.938 245.564 183.01 245.816 183.01C246.032 183.01 246.248 182.986 246.464 182.938C246.692 182.89 246.878 182.842 247.022 182.794L247.238 183.784C247.01 183.88 246.728 183.958 246.392 184.018C246.068 184.078 245.786 184.108 245.546 184.108C244.994 184.108 244.55 183.946 244.214 183.622C243.89 183.298 243.728 182.854 243.728 182.29V170.86ZM248.579 172.66V170.86H249.803V172.66H248.579ZM248.579 184V174.622H249.803V184H248.579ZM259.194 184L255.72 179.194L253.722 181.066V184H252.498V170.86H253.722V179.752L259.032 174.64H260.382L256.548 178.474L260.526 184H259.194ZM265.601 184.18C264.701 184.18 263.897 183.958 263.189 183.514C262.481 183.07 261.923 182.476 261.515 181.732C261.107 180.988 260.903 180.172 260.903 179.284C260.903 178.408 261.101 177.604 261.497 176.872C261.905 176.14 262.463 175.558 263.171 175.126C263.879 174.682 264.683 174.46 265.583 174.46C266.507 174.46 267.317 174.682 268.013 175.126C268.709 175.57 269.249 176.158 269.633 176.89C270.029 177.61 270.227 178.402 270.227 179.266C270.227 179.458 270.221 179.62 270.209 179.752H262.181C262.241 180.424 262.433 181.024 262.757 181.552C263.081 182.068 263.495 182.482 263.999 182.794C264.503 183.094 265.055 183.244 265.655 183.244C266.267 183.244 266.843 183.088 267.383 182.776C267.923 182.464 268.307 182.056 268.535 181.552L269.597 181.84C269.405 182.296 269.105 182.704 268.697 183.064C268.301 183.412 267.839 183.688 267.311 183.892C266.783 184.084 266.213 184.18 265.601 184.18ZM262.145 178.87H269.075C269.027 178.198 268.841 177.604 268.517 177.088C268.193 176.56 267.779 176.152 267.275 175.864C266.771 175.564 266.213 175.414 265.601 175.414C264.989 175.414 264.431 175.564 263.927 175.864C263.423 176.152 263.009 176.56 262.685 177.088C262.373 177.604 262.193 178.198 262.145 178.87ZM120.365 205H119.141V199.762C119.141 198.682 118.967 197.884 118.619 197.368C118.271 196.84 117.755 196.576 117.071 196.576C116.351 196.576 115.715 196.828 115.163 197.332C114.611 197.836 114.221 198.484 113.993 199.276V205H112.769V199.762C112.769 198.658 112.595 197.854 112.247 197.35C111.911 196.834 111.401 196.576 110.717 196.576C110.009 196.576 109.373 196.822 108.809 197.314C108.257 197.806 107.867 198.454 107.639 199.258V205H106.415V195.622H107.531V197.746C107.915 197.026 108.419 196.468 109.043 196.072C109.667 195.664 110.357 195.46 111.113 195.46C111.893 195.46 112.523 195.688 113.003 196.144C113.483 196.588 113.777 197.164 113.885 197.872C114.749 196.264 115.955 195.46 117.503 195.46C118.559 195.46 119.297 195.832 119.717 196.576C120.149 197.308 120.365 198.286 120.365 199.51V205ZM122.956 193.66V191.86H124.18V193.66H122.956ZM122.956 205V195.622H124.18V205H122.956ZM134.76 205H133.536V199.762C133.536 198.658 133.368 197.854 133.032 197.35C132.708 196.834 132.204 196.576 131.52 196.576C131.04 196.576 130.566 196.696 130.098 196.936C129.63 197.164 129.216 197.482 128.856 197.89C128.508 198.286 128.256 198.742 128.1 199.258V205H126.876V195.622H127.992V197.746C128.364 197.062 128.91 196.51 129.63 196.09C130.35 195.67 131.13 195.46 131.97 195.46C132.666 195.46 133.218 195.628 133.626 195.964C134.034 196.288 134.322 196.756 134.49 197.368C134.67 197.968 134.76 198.682 134.76 199.51V205ZM136.741 200.338C136.741 199.45 136.921 198.64 137.281 197.908C137.653 197.164 138.163 196.57 138.811 196.126C139.459 195.682 140.197 195.46 141.025 195.46C141.805 195.46 142.501 195.67 143.113 196.09C143.737 196.498 144.223 196.996 144.571 197.584V191.86H145.795V203.524C145.795 203.848 145.939 204.016 146.227 204.028V205C145.987 205.036 145.801 205.048 145.669 205.036C145.405 205.024 145.177 204.928 144.985 204.748C144.805 204.556 144.715 204.34 144.715 204.1V203.182C144.343 203.794 143.839 204.28 143.203 204.64C142.567 205 141.907 205.18 141.223 205.18C140.575 205.18 139.975 205.048 139.423 204.784C138.871 204.52 138.391 204.16 137.983 203.704C137.587 203.248 137.281 202.732 137.065 202.156C136.849 201.568 136.741 200.962 136.741 200.338ZM144.571 201.778V198.88C144.415 198.448 144.163 198.058 143.815 197.71C143.467 197.35 143.071 197.068 142.627 196.864C142.195 196.648 141.763 196.54 141.331 196.54C140.659 196.54 140.071 196.726 139.567 197.098C139.075 197.458 138.691 197.932 138.415 198.52C138.139 199.096 138.001 199.702 138.001 200.338C138.001 201.01 138.151 201.634 138.451 202.21C138.763 202.786 139.183 203.248 139.711 203.596C140.239 203.932 140.833 204.1 141.493 204.1C141.901 204.1 142.327 203.998 142.771 203.794C143.227 203.578 143.623 203.296 143.959 202.948C144.307 202.6 144.511 202.21 144.571 201.778ZM152.618 205.18C151.718 205.18 150.914 204.958 150.206 204.514C149.498 204.07 148.94 203.476 148.532 202.732C148.124 201.988 147.92 201.172 147.92 200.284C147.92 199.408 148.118 198.604 148.514 197.872C148.922 197.14 149.48 196.558 150.188 196.126C150.896 195.682 151.7 195.46 152.6 195.46C153.524 195.46 154.334 195.682 155.03 196.126C155.726 196.57 156.266 197.158 156.65 197.89C157.046 198.61 157.244 199.402 157.244 200.266C157.244 200.458 157.238 200.62 157.226 200.752H149.198C149.258 201.424 149.45 202.024 149.774 202.552C150.098 203.068 150.512 203.482 151.016 203.794C151.52 204.094 152.072 204.244 152.672 204.244C153.284 204.244 153.86 204.088 154.4 203.776C154.94 203.464 155.324 203.056 155.552 202.552L156.614 202.84C156.422 203.296 156.122 203.704 155.714 204.064C155.318 204.412 154.856 204.688 154.328 204.892C153.8 205.084 153.23 205.18 152.618 205.18ZM149.162 199.87H156.092C156.044 199.198 155.858 198.604 155.534 198.088C155.21 197.56 154.796 197.152 154.292 196.864C153.788 196.564 153.23 196.414 152.618 196.414C152.006 196.414 151.448 196.564 150.944 196.864C150.44 197.152 150.026 197.56 149.702 198.088C149.39 198.604 149.21 199.198 149.162 199.87ZM158.502 200.338C158.502 199.45 158.682 198.64 159.042 197.908C159.414 197.164 159.924 196.57 160.572 196.126C161.22 195.682 161.958 195.46 162.786 195.46C163.566 195.46 164.262 195.67 164.874 196.09C165.498 196.498 165.984 196.996 166.332 197.584V191.86H167.556V203.524C167.556 203.848 167.7 204.016 167.988 204.028V205C167.748 205.036 167.562 205.048 167.43 205.036C167.166 205.024 166.938 204.928 166.746 204.748C166.566 204.556 166.476 204.34 166.476 204.1V203.182C166.104 203.794 165.6 204.28 164.964 204.64C164.328 205 163.668 205.18 162.984 205.18C162.336 205.18 161.736 205.048 161.184 204.784C160.632 204.52 160.152 204.16 159.744 203.704C159.348 203.248 159.042 202.732 158.826 202.156C158.61 201.568 158.502 200.962 158.502 200.338ZM166.332 201.778V198.88C166.176 198.448 165.924 198.058 165.576 197.71C165.228 197.35 164.832 197.068 164.388 196.864C163.956 196.648 163.524 196.54 163.092 196.54C162.42 196.54 161.832 196.726 161.328 197.098C160.836 197.458 160.452 197.932 160.176 198.52C159.9 199.096 159.762 199.702 159.762 200.338C159.762 201.01 159.912 201.634 160.212 202.21C160.524 202.786 160.944 203.248 161.472 203.596C162 203.932 162.594 204.1 163.254 204.1C163.662 204.1 164.088 203.998 164.532 203.794C164.988 203.578 165.384 203.296 165.72 202.948C166.068 202.6 166.272 202.21 166.332 201.778ZM179.705 205.18C178.925 205.18 178.223 204.976 177.599 204.568C176.987 204.16 176.501 203.656 176.141 203.056V208.834H174.917V195.622H176.015V197.44C176.387 196.852 176.879 196.378 177.491 196.018C178.115 195.646 178.787 195.46 179.507 195.46C180.155 195.46 180.749 195.598 181.289 195.874C181.829 196.138 182.297 196.498 182.693 196.954C183.101 197.41 183.413 197.932 183.629 198.52C183.845 199.096 183.953 199.696 183.953 200.32C183.953 201.196 183.773 202.006 183.413 202.75C183.065 203.482 182.567 204.07 181.919 204.514C181.283 204.958 180.545 205.18 179.705 205.18ZM179.363 204.1C180.047 204.1 180.635 203.92 181.127 203.56C181.631 203.188 182.021 202.714 182.297 202.138C182.573 201.562 182.711 200.956 182.711 200.32C182.711 199.648 182.555 199.024 182.243 198.448C181.931 197.872 181.511 197.41 180.983 197.062C180.467 196.714 179.879 196.54 179.219 196.54C178.811 196.54 178.379 196.648 177.923 196.864C177.479 197.068 177.083 197.35 176.735 197.71C176.399 198.058 176.201 198.442 176.141 198.862V201.742C176.417 202.402 176.849 202.96 177.437 203.416C178.025 203.872 178.667 204.1 179.363 204.1ZM190.077 205.18C189.177 205.18 188.373 204.958 187.665 204.514C186.957 204.07 186.399 203.476 185.991 202.732C185.583 201.988 185.379 201.172 185.379 200.284C185.379 199.408 185.577 198.604 185.973 197.872C186.381 197.14 186.939 196.558 187.647 196.126C188.355 195.682 189.159 195.46 190.059 195.46C190.983 195.46 191.793 195.682 192.489 196.126C193.185 196.57 193.725 197.158 194.109 197.89C194.505 198.61 194.703 199.402 194.703 200.266C194.703 200.458 194.697 200.62 194.685 200.752H186.657C186.717 201.424 186.909 202.024 187.233 202.552C187.557 203.068 187.971 203.482 188.475 203.794C188.979 204.094 189.531 204.244 190.131 204.244C190.743 204.244 191.319 204.088 191.859 203.776C192.399 203.464 192.783 203.056 193.011 202.552L194.073 202.84C193.881 203.296 193.581 203.704 193.173 204.064C192.777 204.412 192.315 204.688 191.787 204.892C191.259 205.084 190.689 205.18 190.077 205.18ZM186.621 199.87H193.551C193.503 199.198 193.317 198.604 192.993 198.088C192.669 197.56 192.255 197.152 191.751 196.864C191.247 196.564 190.689 196.414 190.077 196.414C189.465 196.414 188.907 196.564 188.403 196.864C187.899 197.152 187.485 197.56 187.161 198.088C186.849 198.604 186.669 199.198 186.621 199.87ZM200.587 205.18C199.687 205.18 198.883 204.958 198.175 204.514C197.479 204.07 196.933 203.482 196.537 202.75C196.141 202.006 195.943 201.202 195.943 200.338C195.943 199.462 196.141 198.658 196.537 197.926C196.945 197.182 197.497 196.588 198.193 196.144C198.901 195.688 199.699 195.46 200.587 195.46C201.487 195.46 202.285 195.688 202.981 196.144C203.689 196.588 204.241 197.182 204.637 197.926C205.045 198.658 205.249 199.462 205.249 200.338C205.249 201.202 205.051 202.006 204.655 202.75C204.259 203.482 203.707 204.07 202.999 204.514C202.303 204.958 201.499 205.18 200.587 205.18ZM197.185 200.356C197.185 201.052 197.335 201.688 197.635 202.264C197.947 202.828 198.361 203.278 198.877 203.614C199.393 203.938 199.963 204.1 200.587 204.1C201.211 204.1 201.781 203.932 202.297 203.596C202.813 203.26 203.227 202.804 203.539 202.228C203.851 201.652 204.007 201.016 204.007 200.32C204.007 199.624 203.851 198.988 203.539 198.412C203.227 197.836 202.813 197.38 202.297 197.044C201.781 196.708 201.211 196.54 200.587 196.54C199.975 196.54 199.411 196.714 198.895 197.062C198.379 197.398 197.965 197.854 197.653 198.43C197.341 199.006 197.185 199.648 197.185 200.356ZM212.084 205.18C211.304 205.18 210.602 204.976 209.978 204.568C209.366 204.16 208.88 203.656 208.52 203.056V208.834H207.296V195.622H208.394V197.44C208.766 196.852 209.258 196.378 209.87 196.018C210.494 195.646 211.166 195.46 211.886 195.46C212.534 195.46 213.128 195.598 213.668 195.874C214.208 196.138 214.676 196.498 215.072 196.954C215.48 197.41 215.792 197.932 216.008 198.52C216.224 199.096 216.332 199.696 216.332 200.32C216.332 201.196 216.152 202.006 215.792 202.75C215.444 203.482 214.946 204.07 214.298 204.514C213.662 204.958 212.924 205.18 212.084 205.18ZM211.742 204.1C212.426 204.1 213.014 203.92 213.506 203.56C214.01 203.188 214.4 202.714 214.676 202.138C214.952 201.562 215.09 200.956 215.09 200.32C215.09 199.648 214.934 199.024 214.622 198.448C214.31 197.872 213.89 197.41 213.362 197.062C212.846 196.714 212.258 196.54 211.598 196.54C211.19 196.54 210.758 196.648 210.302 196.864C209.858 197.068 209.462 197.35 209.114 197.71C208.778 198.058 208.58 198.442 208.52 198.862V201.742C208.796 202.402 209.228 202.96 209.816 203.416C210.404 203.872 211.046 204.1 211.742 204.1ZM218.46 191.86H219.684V202.876C219.684 203.344 219.762 203.65 219.918 203.794C220.086 203.938 220.296 204.01 220.548 204.01C220.764 204.01 220.98 203.986 221.196 203.938C221.424 203.89 221.61 203.842 221.754 203.794L221.97 204.784C221.742 204.88 221.46 204.958 221.124 205.018C220.8 205.078 220.518 205.108 220.278 205.108C219.726 205.108 219.282 204.946 218.946 204.622C218.622 204.298 218.46 203.854 218.46 203.29V191.86ZM227.36 205.18C226.46 205.18 225.656 204.958 224.948 204.514C224.24 204.07 223.682 203.476 223.274 202.732C222.866 201.988 222.662 201.172 222.662 200.284C222.662 199.408 222.86 198.604 223.256 197.872C223.664 197.14 224.222 196.558 224.93 196.126C225.638 195.682 226.442 195.46 227.342 195.46C228.266 195.46 229.076 195.682 229.772 196.126C230.468 196.57 231.008 197.158 231.392 197.89C231.788 198.61 231.986 199.402 231.986 200.266C231.986 200.458 231.98 200.62 231.968 200.752H223.94C224 201.424 224.192 202.024 224.516 202.552C224.84 203.068 225.254 203.482 225.758 203.794C226.262 204.094 226.814 204.244 227.414 204.244C228.026 204.244 228.602 204.088 229.142 203.776C229.682 203.464 230.066 203.056 230.294 202.552L231.356 202.84C231.164 203.296 230.864 203.704 230.456 204.064C230.06 204.412 229.598 204.688 229.07 204.892C228.542 205.084 227.972 205.18 227.36 205.18ZM223.904 199.87H230.834C230.786 199.198 230.6 198.604 230.276 198.088C229.952 197.56 229.538 197.152 229.034 196.864C228.53 196.564 227.972 196.414 227.36 196.414C226.748 196.414 226.19 196.564 225.686 196.864C225.182 197.152 224.768 197.56 224.444 198.088C224.132 198.604 223.952 199.198 223.904 199.87ZM233.694 205V203.236H234.756V205H233.694Z" fill="black"/>
</g>
<defs>
<linearGradient id="paint0_linear" x1="350" y1="0" x2="350" y2="300" gradientUnits="userSpaceOnUse">
<stop stop-color="#0CB9E4"/>
<stop offset="1" stop-color="#FF6584"/>
</linearGradient>
<linearGradient id="paint1_linear" x1="481.843" y1="54.0713" x2="481.843" y2="255.291" gradientUnits="userSpaceOnUse">
<stop stop-color="#F2F2F2"/>
<stop offset="1" stop-color="#F2F2F2" stop-opacity="0"/>
</linearGradient>
<clipPath id="clip0">
<rect width="700" height="300" rx="12" fill="white"/>
</clipPath>
</defs>
</svg>
