<svg width="538" height="218" viewBox="0 0 538 218" fill="none" xmlns="http://www.w3.org/2000/svg">
<g clip-path="url(#clip0)">
<rect width="538" height="218" fill="url(#paint0_linear)"/>
<g clip-path="url(#clip1)" filter="url(#filter0_d)">
<path d="M275.397 60.293H273.562L265.759 84.2908C265.759 84.2908 265.606 100.246 267.442 108.029C267.442 108.029 270.502 104.656 272.644 104.656C274.785 104.656 276.774 87.6634 276.774 87.6634C276.774 87.6634 285.188 63.4063 275.397 60.293Z" fill="#575A89"/>
<path d="M315.786 106.213C315.786 106.213 310.89 117.888 315.48 118.666C320.069 119.444 322.517 109.586 321.293 108.288C320.069 106.991 315.786 106.213 315.786 106.213Z" fill="#A0616A"/>
<path d="M266.944 103.801C266.944 103.801 268.32 116.137 272.868 115.199C277.416 114.261 274.726 104.448 272.97 103.711C271.215 102.973 266.944 103.801 266.944 103.801Z" fill="#A0616A"/>
<path d="M278.763 176.001C278.763 176.001 280.905 184.822 277.233 187.157C273.562 189.492 278.457 194.421 278.457 194.421L290.084 184.044C290.084 184.044 285.188 177.558 285.494 173.666L278.763 176.001Z" fill="#A0616A"/>
<path d="M297.121 184.044L295.897 191.048L295.591 195.978L302.323 195.459L303.241 185.341L297.121 184.044Z" fill="#A0616A"/>
<path d="M271.215 105.037C271.215 105.037 267.442 106.213 267.748 109.586C268.054 112.958 268.972 123.595 268.972 123.595C268.972 123.595 266.218 146.425 268.972 154.208C271.726 161.992 276.927 177.558 276.927 177.558C276.927 177.558 284.882 178.855 286.718 173.926C286.718 173.926 286.412 157.062 283.047 153.43C279.681 149.798 282.129 148.76 282.435 148.241C282.741 147.723 283.659 146.944 283.659 146.166C283.659 145.388 283.965 142.534 283.965 141.496C283.965 140.458 283.659 140.718 284.271 139.161C284.882 137.605 285.494 137.086 285.494 136.826C285.494 136.567 290.696 122.817 290.696 122.817L297.427 154.727C297.427 154.727 295.897 186.119 296.509 186.119C297.121 186.119 303.853 188.194 306.301 186.119C306.301 186.119 312.42 159.138 311.196 157.581C309.972 156.025 309.666 155.765 309.972 154.208C310.278 152.652 310.89 151.874 310.278 151.095C309.666 150.317 308.748 147.723 309.666 146.944C310.584 146.166 310.89 142.534 310.89 142.534C310.89 142.534 316.092 117.109 312.726 113.477C309.36 109.845 271.215 105.037 271.215 105.037Z" fill="#2F2E41"/>
<path d="M281.517 187.416C281.517 187.416 277.845 183.525 276.621 185.341C275.397 187.157 273.562 190.011 273.562 190.011C273.562 190.011 259.793 200.129 267.442 200.388C275.091 200.647 279.987 195.978 279.987 195.978C279.987 195.978 281.211 190.789 284.883 190.789L285.494 192.086L292.226 188.454C292.226 188.454 291.278 181.566 288.539 181.767L281.517 187.416Z" fill="#2F2E41"/>
<path d="M294.368 195.199C294.368 195.199 302.323 192.605 303.241 195.199C304.159 197.794 304.159 199.091 304.159 199.091C304.159 199.091 310.89 208.43 304.159 208.949C297.427 209.468 294.368 205.836 294.368 205.836C294.368 205.836 295.286 201.426 294.368 200.907C293.45 200.388 294.368 195.199 294.368 195.199Z" fill="#2F2E41"/>
<path d="M299.875 51.9911C305.79 51.9911 310.584 47.9258 310.584 42.9109C310.584 37.896 305.79 33.8307 299.875 33.8307C293.961 33.8307 289.166 37.896 289.166 42.9109C289.166 47.9258 293.961 51.9911 299.875 51.9911Z" fill="#A0616A"/>
<path d="M291.92 44.9864L289.778 55.1043L304.771 58.2175C304.771 58.2175 301.252 50.8236 305.077 47.5807C306.044 46.7603 291.92 44.9864 291.92 44.9864Z" fill="#A0616A"/>
<path d="M290.691 50.7938C290.329 50.8515 289.995 50.9945 289.725 51.2063C289.455 51.4181 289.262 51.6901 289.166 51.9911C288.899 52.7365 288.485 53.4382 287.942 54.0666C287.942 54.0666 273.562 59.7741 273.562 60.5525C273.562 61.3308 279.375 77.9346 279.375 77.9346C279.375 77.9346 279.681 88.312 277.233 90.6469C274.785 92.9818 272.338 101.543 272.95 102.321C273.562 103.1 268.666 104.916 270.502 106.213C272.338 107.51 298.039 119.963 313.338 114.255C313.338 114.255 313.644 111.921 313.338 110.364C313.032 108.807 315.174 103.619 314.562 101.803C313.95 99.9866 314.562 81.3072 314.562 81.3072L317.715 59.1887C317.775 58.7686 317.659 58.3439 317.387 57.9892C317.114 57.6345 316.703 57.3726 316.226 57.2494C312.699 56.3406 304.521 52.6198 303.394 53.418C301.934 54.4515 292.827 53.7475 290.691 50.7938Z" fill="#575A89"/>
<path d="M314.868 57.1798L314.887 57.1732C315.325 57.0243 315.808 57.0033 316.262 57.1134C316.715 57.2235 317.112 57.4584 317.39 57.7811C319.286 59.981 323.277 64.9253 323.741 68.0761C324.353 72.227 326.189 83.3827 325.883 84.9393C325.577 86.496 325.271 86.7554 325.883 87.5337C326.495 88.312 326.189 88.0526 325.883 88.8309C325.577 89.6092 321.905 111.142 321.905 111.142C321.905 111.142 319.457 106.472 314.868 108.029C314.868 108.029 315.48 103.878 314.868 102.581C314.256 101.284 313.644 100.505 314.256 99.4677C314.868 98.43 314.256 88.312 313.95 87.2743C313.644 86.2365 313.95 80.7884 313.95 80.7884L311.196 70.1516L314.868 57.1798Z" fill="#575A89"/>
<path d="M297.875 44.4568L298.237 42.3187C298.321 41.8204 298.665 41.1652 299.237 41.3007C299.723 41.416 300.783 41.769 300.96 41.6624C301.625 41.2634 302.63 41.9611 303.329 41.6066C303.621 41.4581 303.812 41.1399 304.152 41.1187C304.381 41.131 304.596 41.2137 304.757 41.351C305.211 41.6854 305.745 41.9316 306.323 42.0721C306.613 42.1391 306.918 42.139 307.208 42.072C307.498 42.0051 307.761 41.8736 307.971 41.6912C308.045 41.5941 308.145 41.513 308.262 41.4543C308.401 41.4206 308.548 41.4263 308.682 41.4707L310.467 41.8828C310.729 41.0757 310.783 40.23 310.625 39.4036C310.466 38.5772 310.099 37.7895 309.549 37.0944C308.825 36.261 307.947 35.532 306.949 34.9355C305.844 34.2224 304.703 33.5517 303.527 32.9234C302.239 32.2338 300.874 31.5834 299.368 31.3895C297.863 31.1957 296.178 31.5425 295.231 32.5535C294.785 32.2802 294.451 31.8967 294.272 31.4558C294.166 31.5377 294.083 31.6383 294.027 31.7506C293.972 31.863 293.947 31.9842 293.953 32.1058C293.959 32.2274 293.996 32.3464 294.062 32.4544C294.128 32.5623 294.222 32.6567 294.336 32.7307L292.826 31.9133C292.402 32.2911 293.231 32.9763 292.869 33.3985C292.76 33.5029 292.619 33.5806 292.463 33.6235C291.643 33.8944 290.892 34.2953 290.249 34.8048C289.381 35.5426 288.91 36.544 288.506 37.5278C287.606 39.7161 286.952 42.2257 288.231 44.2741C288.375 44.5063 290.288 48.3393 290.543 48.4888C291.404 48.994 290.844 47.7712 291.461 48.4888C291.945 49.0514 291.854 46.8979 292.574 47.3706C292.856 47.5417 293.19 47.6398 293.537 47.653C293.883 47.6662 294.227 47.594 294.526 47.445C294.824 47.2697 294.728 46.2958 294.567 45.4015C294.536 45.2312 294.555 45.057 294.622 44.8944C294.689 44.7317 294.802 44.5854 294.951 44.4684C295.101 44.3514 295.281 44.2672 295.478 44.2233C295.674 44.1793 295.881 44.1769 296.079 44.2162C296.975 44.3949 297.86 44.5476 297.875 44.4568Z" fill="#2F2E41"/>
<path d="M464.509 45.0583V30.9347C459.334 29.927 454.463 28.0187 450.204 25.3307C445.945 22.6426 442.391 19.2335 439.768 15.3196L439.768 15.3198C438.509 16.111 436.983 16.5368 435.417 16.534H422.19C425.72 23.9927 431.477 30.5446 438.897 35.5457C446.316 40.5467 455.143 43.825 464.509 45.0583V45.0583Z" fill="#3F3D56"/>
<path d="M464.509 30.1252V16.5574C464.509 15.5648 464.279 14.582 463.831 13.6649C463.383 12.7479 462.727 11.9147 461.899 11.2129C461.071 10.511 460.089 9.95437 459.007 9.57468C457.925 9.195 456.766 8.99973 455.596 9.00003H442.754V10.3102C442.755 11.1505 442.555 11.9822 442.166 12.755C441.777 13.5278 441.207 14.2256 440.49 14.8059C443.027 18.6284 446.472 21.9633 450.606 24.6001C454.74 27.2368 459.474 29.1181 464.509 30.1252V30.1252Z" fill="#3F3D56"/>
<path d="M402.736 16.534H394.465C392.519 16.5335 390.653 15.8775 389.277 14.7103C387.901 13.5432 387.128 11.9604 387.128 10.3101V8.99997H375.079C373.909 8.99989 372.749 9.1953 371.668 9.57507C370.587 9.95483 369.604 10.5115 368.776 11.2133C367.949 11.9151 367.292 12.7482 366.844 13.6651C366.396 14.5821 366.166 15.5648 366.166 16.5573V184.723C366.165 185.716 366.395 186.698 366.842 187.616C367.29 188.533 367.946 189.366 368.774 190.067C369.602 190.769 370.585 191.325 371.667 191.704C372.749 192.083 373.909 192.277 375.079 192.275H455.596C455.963 192.276 456.33 192.257 456.694 192.218C458.85 191.99 460.833 191.103 462.272 189.723C463.711 188.343 464.506 186.565 464.509 184.723V60.9279C435.224 58.0507 410.823 40.3342 402.736 16.534Z" fill="#3F3D56"/>
<path d="M421.187 16.534H403.703C411.75 39.8932 435.732 57.2725 464.509 60.1367V45.8626C454.892 44.6159 445.83 41.251 438.228 36.1044C430.625 30.9577 424.749 24.2095 421.187 16.534V16.534Z" fill="#3F3D56"/>
<path opacity="0.1" d="M395.322 189.675C395.544 189.489 400.807 184.969 405.269 174.244C409.362 164.405 413.493 147.247 409.924 121.381C403.162 72.3804 437.837 41.1519 438.189 40.8421L437.162 40.0063C437.073 40.0849 428.158 48.0315 420.226 61.9821C409.726 80.4811 405.662 101.134 408.511 121.522C415.261 170.439 394.528 188.642 394.318 188.821L395.322 189.675Z" fill="black"/>
<path opacity="0.1" d="M448.836 40.021C453.943 40.021 458.083 36.5106 458.083 32.1803C458.083 27.85 453.943 24.3396 448.836 24.3396C443.729 24.3396 439.589 27.85 439.589 32.1803C439.589 36.5106 443.729 40.021 448.836 40.021Z" fill="#E055CC"/>
<path opacity="0.1" d="M412.405 62.2797C417.513 62.2797 421.653 58.7693 421.653 54.439C421.653 50.1087 417.513 46.5983 412.405 46.5983C407.298 46.5983 403.158 50.1087 403.158 54.439C403.158 58.7693 407.298 62.2797 412.405 62.2797Z" fill="#E055CC"/>
<path opacity="0.1" d="M426.355 85.0348C431.462 85.0348 435.602 81.5244 435.602 77.1941C435.602 72.8638 431.462 69.3534 426.355 69.3534C421.248 69.3534 417.108 72.8638 417.108 77.1941C417.108 81.5244 421.248 85.0348 426.355 85.0348Z" fill="black"/>
<path opacity="0.1" d="M398.305 95.9906C403.412 95.9906 407.552 92.4802 407.552 88.1499C407.552 83.8196 403.412 80.3092 398.305 80.3092C393.198 80.3092 389.058 83.8196 389.058 88.1499C389.058 92.4802 393.198 95.9906 398.305 95.9906Z" fill="black"/>
<path opacity="0.1" d="M421.623 126.894C426.73 126.894 430.871 123.383 430.871 119.053C430.871 114.723 426.73 111.212 421.623 111.212C416.516 111.212 412.376 114.723 412.376 119.053C412.376 123.383 416.516 126.894 421.623 126.894Z" fill="#E055CC"/>
<path opacity="0.1" d="M389.814 188.832C389.814 188.832 404.197 171.943 381.296 152.301L389.814 188.832Z" fill="#E055CC"/>
<path opacity="0.1" d="M400.96 190.779C400.96 190.779 410.79 171.687 442.384 178.409L400.96 190.779Z" fill="#E055CC"/>
<path d="M454.323 136.632H376.606V149.604H454.323V136.632Z" fill="#0CB9E4"/>
<path d="M416.229 61.4304C407.445 61.4311 398.977 64.205 392.474 69.2115C385.971 74.218 381.9 81.0983 381.054 88.5113C380.207 95.9243 382.647 103.339 387.897 109.31C393.147 115.281 400.831 119.38 409.452 120.809C409.515 120.82 409.58 120.83 409.645 120.84C410.663 121.004 411.696 121.129 412.743 121.215C412.808 121.221 412.872 121.227 412.937 121.231C413.958 121.311 414.99 121.354 416.035 121.359C416.1 121.36 416.164 121.36 416.229 121.36C417.273 121.36 418.306 121.322 419.327 121.246C419.392 121.242 419.456 121.237 419.521 121.231C420.568 121.15 421.6 121.03 422.619 120.871C422.684 120.861 422.749 120.851 422.813 120.84C431.459 119.449 439.183 115.374 444.472 109.41C449.762 103.446 452.237 96.0236 451.414 88.5943C450.591 81.1649 446.528 74.2633 440.021 69.2395C433.513 64.2156 425.03 61.431 416.229 61.4304H416.229Z" fill="#0CB9E4"/>
<path d="M450.039 91.3951C450.038 98.0719 447.29 104.539 442.268 109.682C437.245 114.824 430.264 118.32 422.528 119.565C422.467 119.576 422.405 119.585 422.343 119.595C421.369 119.746 420.381 119.861 419.379 119.939C419.316 119.945 419.255 119.95 419.193 119.953C418.217 120.026 417.229 120.062 416.229 120.063C416.167 120.063 416.106 120.063 416.044 120.062C415.045 120.058 414.057 120.017 413.08 119.939C413.018 119.935 412.956 119.93 412.894 119.924C411.893 119.842 410.905 119.722 409.93 119.565C409.868 119.556 409.806 119.546 409.745 119.536C403.454 118.494 397.642 115.957 392.986 112.222C388.33 108.486 385.022 103.705 383.449 98.4366C381.875 93.1679 382.1 87.6285 384.097 82.4641C386.094 77.2997 389.782 72.723 394.729 69.2676C399.677 65.8122 405.681 63.6205 412.042 62.9479C418.403 62.2753 424.858 63.1496 430.655 65.4688C436.452 67.788 441.352 71.4566 444.784 76.0469C448.216 80.6372 450.039 85.9601 450.039 91.3951V91.3951Z" fill="#3F3D56"/>
<path d="M411.45 115.255C411.168 115.255 410.892 115.184 410.658 115.051C410.423 114.918 410.24 114.73 410.133 114.509C410.025 114.288 409.996 114.045 410.051 113.81C410.106 113.576 410.242 113.361 410.442 113.192C410.641 113.022 410.895 112.907 411.171 112.861C411.448 112.814 411.735 112.838 411.995 112.93C412.256 113.021 412.478 113.176 412.635 113.375C412.792 113.573 412.875 113.807 412.875 114.046C412.875 114.367 412.724 114.674 412.457 114.9C412.19 115.127 411.828 115.255 411.45 115.255V115.255ZM411.45 113.079C411.224 113.079 411.004 113.136 410.816 113.242C410.628 113.348 410.482 113.499 410.396 113.676C410.31 113.853 410.287 114.047 410.331 114.235C410.375 114.422 410.484 114.595 410.643 114.73C410.803 114.865 411.006 114.957 411.227 114.995C411.448 115.032 411.678 115.013 411.886 114.94C412.094 114.866 412.273 114.742 412.398 114.583C412.523 114.424 412.59 114.237 412.59 114.046C412.59 113.79 412.469 113.544 412.256 113.363C412.042 113.181 411.752 113.08 411.45 113.079V113.079Z" fill="#0CB9E4"/>
<path d="M416.514 82.3297H416.229V118.168H416.514V82.3297Z" fill="#0CB9E4"/>
<path d="M416.514 66.9672H416.229V77.54H416.514V66.9672Z" fill="#0CB9E4"/>
<path d="M401.831 78.6431H401.546V114.498H401.831V78.6431Z" fill="#0CB9E4"/>
<path d="M421.931 78.6431H421.646V114.498H421.931V78.6431Z" fill="#0CB9E4"/>
<path d="M406.678 74.6543H406.393V107.936H406.678V74.6543Z" fill="#0CB9E4"/>
<path d="M411.592 65.5766H411.307V111.75H411.592V65.5766Z" fill="#0CB9E4"/>
<path d="M426.065 67.2812H425.78V74.4659H426.065V67.2812Z" fill="#0CB9E4"/>
<path d="M426.065 79.2627H425.78V112.125H426.065V79.2627Z" fill="#0CB9E4"/>
<path d="M430.912 74.1708H430.627V78.4014H430.912V74.1708Z" fill="#0CB9E4"/>
<path d="M430.912 83.1458H430.627V104.16H430.912V83.1458Z" fill="#0CB9E4"/>
<path d="M430.912 108.455H430.627V112.125H430.912V108.455Z" fill="#0CB9E4"/>
<path d="M406.535 111.399C406.253 111.399 405.978 111.329 405.743 111.196C405.509 111.063 405.326 110.874 405.218 110.653C405.11 110.432 405.082 110.189 405.137 109.955C405.192 109.72 405.328 109.505 405.527 109.336C405.727 109.167 405.981 109.052 406.257 109.005C406.534 108.959 406.82 108.983 407.081 109.074C407.341 109.165 407.564 109.32 407.721 109.519C407.877 109.718 407.961 109.952 407.961 110.191C407.96 110.511 407.81 110.818 407.543 111.045C407.276 111.272 406.913 111.399 406.535 111.399Z" fill="#0CB9E4"/>
<path d="M416.229 80.9397C415.947 80.9397 415.672 80.8688 415.437 80.736C415.203 80.6031 415.02 80.4144 414.912 80.1935C414.804 79.9727 414.776 79.7296 414.831 79.4951C414.886 79.2607 415.022 79.0453 415.221 78.8763C415.42 78.7072 415.674 78.5921 415.951 78.5455C416.228 78.4988 416.514 78.5228 416.775 78.6143C417.035 78.7057 417.258 78.8607 417.414 79.0594C417.571 79.2582 417.655 79.4919 417.655 79.731C417.654 80.0514 417.504 80.3586 417.237 80.5852C416.969 80.8118 416.607 80.9393 416.229 80.9397V80.9397ZM416.229 78.764C416.004 78.764 415.783 78.8207 415.595 78.9269C415.408 79.0332 415.262 79.1842 415.175 79.3609C415.089 79.5376 415.067 79.732 415.111 79.9196C415.155 80.1072 415.263 80.2795 415.423 80.4147C415.582 80.5499 415.785 80.642 416.007 80.6793C416.228 80.7167 416.457 80.6975 416.666 80.6243C416.874 80.5511 417.052 80.4272 417.177 80.2682C417.303 80.1092 417.37 79.9222 417.37 79.731C417.369 79.4746 417.249 79.2288 417.035 79.0475C416.821 78.8662 416.531 78.7643 416.229 78.764V78.764Z" fill="#0CB9E4"/>
<path d="M416.372 67.0394C416.09 67.0394 415.814 66.9685 415.58 66.8357C415.345 66.7029 415.162 66.5141 415.055 66.2932C414.947 66.0724 414.918 65.8293 414.973 65.5949C415.028 65.3604 415.164 65.145 415.364 64.976C415.563 64.807 415.817 64.6918 416.094 64.6452C416.37 64.5986 416.657 64.6225 416.917 64.714C417.178 64.8055 417.4 64.9604 417.557 65.1592C417.714 65.3579 417.797 65.5916 417.797 65.8307C417.797 66.1511 417.646 66.4584 417.379 66.685C417.112 66.9116 416.75 67.039 416.372 67.0394ZM416.372 64.8637C416.146 64.8637 415.926 64.9204 415.738 65.0267C415.55 65.1329 415.404 65.2839 415.318 65.4606C415.232 65.6373 415.209 65.8318 415.253 66.0193C415.297 66.2069 415.406 66.3792 415.565 66.5144C415.725 66.6497 415.928 66.7418 416.149 66.7791C416.37 66.8164 416.6 66.7972 416.808 66.724C417.016 66.6509 417.195 66.5269 417.32 66.3679C417.445 66.2089 417.512 66.0219 417.512 65.8307C417.512 65.5743 417.391 65.3285 417.178 65.1472C416.964 64.966 416.674 64.864 416.372 64.8637V64.8637Z" fill="#0CB9E4"/>
<path d="M430.77 107.531C430.488 107.531 430.212 107.461 429.978 107.328C429.743 107.195 429.56 107.006 429.453 106.785C429.345 106.564 429.316 106.321 429.371 106.087C429.426 105.853 429.562 105.637 429.762 105.468C429.961 105.299 430.215 105.184 430.491 105.137C430.768 105.091 431.055 105.115 431.315 105.206C431.576 105.298 431.798 105.452 431.955 105.651C432.111 105.85 432.195 106.084 432.195 106.323C432.195 106.643 432.044 106.95 431.777 107.177C431.51 107.404 431.148 107.531 430.77 107.531V107.531ZM430.77 105.356C430.544 105.356 430.324 105.413 430.136 105.519C429.948 105.625 429.802 105.776 429.716 105.953C429.63 106.129 429.607 106.324 429.651 106.511C429.695 106.699 429.804 106.871 429.963 107.007C430.123 107.142 430.326 107.234 430.547 107.271C430.768 107.308 430.998 107.289 431.206 107.216C431.414 107.143 431.592 107.019 431.718 106.86C431.843 106.701 431.91 106.514 431.91 106.323C431.91 106.066 431.789 105.821 431.576 105.639C431.362 105.458 431.072 105.356 430.77 105.356V105.356Z" fill="#0CB9E4"/>
<path d="M401.689 77.0718C401.407 77.0718 401.131 77.0009 400.897 76.8681C400.662 76.7353 400.479 76.5465 400.372 76.3256C400.264 76.1048 400.235 75.8617 400.29 75.6273C400.345 75.3928 400.481 75.1774 400.681 75.0084C400.88 74.8393 401.134 74.7242 401.41 74.6776C401.687 74.6309 401.974 74.6549 402.234 74.7464C402.495 74.8379 402.717 74.9928 402.874 75.1915C403.03 75.3903 403.114 75.624 403.114 75.8631C403.114 76.1835 402.963 76.4907 402.696 76.7173C402.429 76.9439 402.067 77.0714 401.689 77.0718V77.0718Z" fill="#0CB9E4"/>
<path d="M430.77 82.0275C430.488 82.0275 430.212 81.9566 429.978 81.8238C429.743 81.691 429.56 81.5022 429.453 81.2814C429.345 81.0605 429.316 80.8175 429.371 80.583C429.426 80.3485 429.562 80.1332 429.762 79.9641C429.961 79.7951 430.215 79.68 430.491 79.6333C430.768 79.5867 431.055 79.6106 431.315 79.7021C431.576 79.7936 431.798 79.9485 431.955 80.1473C432.111 80.3461 432.195 80.5798 432.195 80.8188C432.195 81.1393 432.044 81.4465 431.777 81.6731C431.51 81.8997 431.148 82.0271 430.77 82.0275ZM430.77 79.8518C430.544 79.8518 430.324 79.9085 430.136 80.0148C429.948 80.121 429.802 80.2721 429.716 80.4488C429.63 80.6255 429.607 80.8199 429.651 81.0075C429.695 81.195 429.804 81.3673 429.963 81.5026C430.123 81.6378 430.326 81.7299 430.547 81.7672C430.768 81.8045 430.998 81.7854 431.206 81.7122C431.414 81.639 431.592 81.515 431.718 81.356C431.843 81.197 431.91 81.01 431.91 80.8188C431.91 80.5624 431.789 80.3166 431.576 80.1354C431.362 79.9541 431.072 79.8521 430.77 79.8518V79.8518Z" fill="#0CB9E4"/>
<path d="M425.923 77.9179C425.641 77.9179 425.365 77.847 425.131 77.7142C424.896 77.5814 424.714 77.3926 424.606 77.1717C424.498 76.9509 424.47 76.7078 424.525 76.4734C424.58 76.2389 424.715 76.0235 424.915 75.8545C425.114 75.6854 425.368 75.5703 425.645 75.5237C425.921 75.477 426.208 75.501 426.468 75.5925C426.729 75.684 426.951 75.8389 427.108 76.0376C427.265 76.2364 427.348 76.4701 427.348 76.7092C427.348 77.0296 427.198 77.3368 426.93 77.5634C426.663 77.79 426.301 77.9175 425.923 77.9179V77.9179Z" fill="#0CB9E4"/>
<path opacity="0.5" d="M485.43 188.886C485.43 188.886 499.812 171.997 476.912 152.355L485.43 188.886Z" fill="#E055CC"/>
<path opacity="0.5" d="M496.576 189.536C496.576 189.536 506.406 170.444 538 177.166L496.576 189.536Z" fill="#E055CC"/>
</g>
<g filter="url(#filter1_d)">
<path d="M93.1704 43.144C93.1704 44.2747 92.8824 45.288 92.3064 46.184C91.7304 47.0587 90.9517 47.752 89.9704 48.264C89.0104 48.7547 87.9544 49 86.8024 49H76.0824V26.28H87.0264C88.093 26.28 89.0104 26.568 89.7784 27.144C90.5464 27.6987 91.1437 28.424 91.5704 29.32C91.997 30.1947 92.2104 31.112 92.2104 32.072C92.2104 33.2027 91.9224 34.248 91.3464 35.208C90.7704 36.168 89.9704 36.8827 88.9464 37.352C90.2264 37.736 91.2504 38.4507 92.0184 39.496C92.7864 40.5413 93.1704 41.7573 93.1704 43.144ZM78.3224 28.232V36.616H86.1304C86.877 36.616 87.5384 36.424 88.1144 36.04C88.7117 35.6347 89.1704 35.1227 89.4904 34.504C89.8317 33.864 90.0024 33.1707 90.0024 32.424C90.0024 31.656 89.8424 30.952 89.5224 30.312C89.2024 29.672 88.765 29.1707 88.2104 28.808C87.6557 28.424 87.0264 28.232 86.3224 28.232H78.3224ZM90.9304 42.76C90.9304 42.0133 90.7597 41.3093 90.4184 40.648C90.077 39.9867 89.6077 39.4533 89.0104 39.048C88.4344 38.6427 87.773 38.44 87.0264 38.44H78.3224V47.048H86.8024C87.5704 47.048 88.2637 46.8453 88.8824 46.44C89.501 46.0347 89.9917 45.512 90.3544 44.872C90.7384 44.2107 90.9304 43.5067 90.9304 42.76ZM104.147 49.32C102.547 49.32 101.118 48.9253 99.8589 48.136C98.6002 47.3467 97.6082 46.2907 96.8829 44.968C96.1575 43.6453 95.7949 42.1947 95.7949 40.616C95.7949 39.0587 96.1469 37.6293 96.8509 36.328C97.5762 35.0267 98.5682 33.992 99.8269 33.224C101.086 32.4347 102.515 32.04 104.115 32.04C105.758 32.04 107.198 32.4347 108.435 33.224C109.672 34.0133 110.632 35.0587 111.315 36.36C112.019 37.64 112.371 39.048 112.371 40.584C112.371 40.9253 112.36 41.2133 112.339 41.448H98.0669C98.1735 42.6427 98.5149 43.7093 99.0909 44.648C99.6669 45.5653 100.403 46.3013 101.299 46.856C102.195 47.3893 103.176 47.656 104.243 47.656C105.331 47.656 106.355 47.3787 107.315 46.824C108.275 46.2693 108.958 45.544 109.363 44.648L111.251 45.16C110.91 45.9707 110.376 46.696 109.651 47.336C108.947 47.9547 108.126 48.4453 107.187 48.808C106.248 49.1493 105.235 49.32 104.147 49.32ZM98.0029 39.88H110.323C110.238 38.6853 109.907 37.6293 109.331 36.712C108.755 35.7733 108.019 35.048 107.123 34.536C106.227 34.0027 105.235 33.736 104.147 33.736C103.059 33.736 102.067 34.0027 101.171 34.536C100.275 35.048 99.5389 35.7733 98.9629 36.712C98.4082 37.6293 98.0882 38.6853 98.0029 39.88ZM114.384 44.2C114.384 43.176 114.683 42.2907 115.28 41.544C115.877 40.776 116.699 40.1787 117.744 39.752C118.811 39.3253 120.037 39.112 121.424 39.112C122.235 39.112 123.077 39.1867 123.952 39.336C124.827 39.464 125.605 39.6453 126.288 39.88V38.472C126.288 37.064 125.872 35.944 125.04 35.112C124.208 34.28 123.056 33.864 121.584 33.864C120.709 33.864 119.835 34.0347 118.96 34.376C118.085 34.696 117.179 35.176 116.24 35.816L115.408 34.28C116.496 33.5333 117.563 32.9787 118.608 32.616C119.653 32.232 120.72 32.04 121.808 32.04C123.856 32.04 125.477 32.6267 126.672 33.8C127.867 34.9733 128.464 36.5947 128.464 38.664V46.376C128.464 46.952 128.731 47.2507 129.264 47.272V49C128.795 49.064 128.464 49.0853 128.272 49.064C127.739 49.0427 127.333 48.872 127.056 48.552C126.779 48.232 126.629 47.8907 126.608 47.528L126.576 46.312C125.829 47.272 124.859 48.0187 123.664 48.552C122.469 49.064 121.253 49.32 120.016 49.32C118.928 49.32 117.957 49.096 117.104 48.648C116.251 48.1787 115.579 47.56 115.088 46.792C114.619 46.0027 114.384 45.1387 114.384 44.2ZM125.552 45.48C126.043 44.904 126.288 44.3707 126.288 43.88V41.448C124.816 40.872 123.28 40.584 121.68 40.584C120.123 40.584 118.864 40.8933 117.904 41.512C116.944 42.1307 116.464 42.9733 116.464 44.04C116.464 44.9573 116.816 45.7893 117.52 46.536C118.245 47.2827 119.248 47.656 120.528 47.656C121.573 47.656 122.544 47.4533 123.44 47.048C124.357 46.6427 125.061 46.12 125.552 45.48ZM133.006 42.12V32.328H135.182V41.736C135.182 45.512 136.472 47.4 139.054 47.4C140.334 47.4 141.528 46.984 142.638 46.152C143.768 45.32 144.579 44.2107 145.07 42.824V32.328H147.246V46.376C147.246 46.952 147.502 47.2507 148.014 47.272V49C147.758 49.0427 147.555 49.064 147.406 49.064C147.278 49.064 147.139 49.064 146.99 49.064C146.542 49.0213 146.158 48.8507 145.838 48.552C145.539 48.2533 145.39 47.8907 145.39 47.464L145.326 45.224C144.6 46.5253 143.608 47.5387 142.35 48.264C141.112 48.968 139.768 49.32 138.318 49.32C134.776 49.32 133.006 46.92 133.006 42.12ZM160.166 48.2C159.91 48.3067 159.44 48.4987 158.758 48.776C158.075 49.0533 157.286 49.192 156.39 49.192C155.451 49.192 154.63 48.9253 153.926 48.392C153.222 47.8587 152.87 47.0587 152.87 45.992V34.056H150.566V32.328H152.87V26.696H155.046V32.328H158.886V34.056H155.046V45.384C155.088 46.0027 155.302 46.4613 155.686 46.76C156.091 47.0373 156.55 47.176 157.062 47.176C157.659 47.176 158.192 47.08 158.662 46.888C159.152 46.6747 159.462 46.5253 159.59 46.44L160.166 48.2ZM162.884 28.84V25.64H165.06V28.84H162.884ZM162.884 49V32.328H165.06V49H162.884ZM170.653 49V34.056H168.349V32.328H170.653V31.88C170.653 29.832 171.09 28.232 171.965 27.08C172.861 25.9067 174.056 25.32 175.549 25.32C176.189 25.32 176.818 25.416 177.437 25.608C178.077 25.8 178.621 26.056 179.069 26.376L178.397 27.944C177.757 27.4533 176.946 27.208 175.965 27.208C174.962 27.208 174.184 27.6027 173.629 28.392C173.096 29.1813 172.829 30.3227 172.829 31.816V32.328H177.437V34.056H172.829V49H170.653ZM180.256 42.12V32.328H182.432V41.736C182.432 45.512 183.722 47.4 186.304 47.4C187.584 47.4 188.778 46.984 189.888 46.152C191.018 45.32 191.829 44.2107 192.32 42.824V32.328H194.496V46.376C194.496 46.952 194.752 47.2507 195.264 47.272V49C195.008 49.0427 194.805 49.064 194.656 49.064C194.528 49.064 194.389 49.064 194.24 49.064C193.792 49.0213 193.408 48.8507 193.088 48.552C192.789 48.2533 192.64 47.8907 192.64 47.464L192.576 45.224C191.85 46.5253 190.858 47.5387 189.6 48.264C188.362 48.968 187.018 49.32 185.568 49.32C182.026 49.32 180.256 46.92 180.256 42.12ZM199.512 25.64H201.688V45.224C201.688 46.056 201.826 46.6 202.104 46.856C202.402 47.112 202.776 47.24 203.224 47.24C203.608 47.24 203.992 47.1973 204.376 47.112C204.781 47.0267 205.112 46.9413 205.368 46.856L205.752 48.616C205.346 48.7867 204.845 48.9253 204.248 49.032C203.672 49.1387 203.17 49.192 202.744 49.192C201.762 49.192 200.973 48.904 200.376 48.328C199.8 47.752 199.512 46.9627 199.512 45.96V25.64ZM33.1293 87V64.28H35.3693V85.016H48.4893V87H33.1293ZM49.9935 82.2C49.9935 81.176 50.2922 80.2907 50.8895 79.544C51.4868 78.776 52.3082 78.1787 53.3535 77.752C54.4202 77.3253 55.6468 77.112 57.0335 77.112C57.8442 77.112 58.6868 77.1867 59.5615 77.336C60.4362 77.464 61.2148 77.6453 61.8975 77.88V76.472C61.8975 75.064 61.4815 73.944 60.6495 73.112C59.8175 72.28 58.6655 71.864 57.1935 71.864C56.3188 71.864 55.4442 72.0347 54.5695 72.376C53.6948 72.696 52.7882 73.176 51.8495 73.816L51.0175 72.28C52.1055 71.5333 53.1722 70.9787 54.2175 70.616C55.2628 70.232 56.3295 70.04 57.4175 70.04C59.4655 70.04 61.0868 70.6267 62.2815 71.8C63.4762 72.9733 64.0735 74.5947 64.0735 76.664V84.376C64.0735 84.952 64.3402 85.2507 64.8735 85.272V87C64.4042 87.064 64.0735 87.0853 63.8815 87.064C63.3482 87.0427 62.9428 86.872 62.6655 86.552C62.3882 86.232 62.2388 85.8907 62.2175 85.528L62.1855 84.312C61.4388 85.272 60.4682 86.0187 59.2735 86.552C58.0788 87.064 56.8628 87.32 55.6255 87.32C54.5375 87.32 53.5668 87.096 52.7135 86.648C51.8602 86.1787 51.1882 85.56 50.6975 84.792C50.2282 84.0027 49.9935 83.1387 49.9935 82.2ZM61.1615 83.48C61.6522 82.904 61.8975 82.3707 61.8975 81.88V79.448C60.4255 78.872 58.8895 78.584 57.2895 78.584C55.7322 78.584 54.4735 78.8933 53.5135 79.512C52.5535 80.1307 52.0735 80.9733 52.0735 82.04C52.0735 82.9573 52.4255 83.7893 53.1295 84.536C53.8548 85.2827 54.8575 85.656 56.1375 85.656C57.1828 85.656 58.1535 85.4533 59.0495 85.048C59.9668 84.6427 60.6708 84.12 61.1615 83.48ZM82.791 87H80.615V77.688C80.615 75.7253 80.3163 74.296 79.719 73.4C79.143 72.4827 78.247 72.024 77.031 72.024C76.1777 72.024 75.335 72.2373 74.503 72.664C73.671 73.0693 72.935 73.6347 72.295 74.36C71.6763 75.064 71.2283 75.8747 70.951 76.792V87H68.775V70.328H70.759V74.104C71.4203 72.888 72.391 71.9067 73.671 71.16C74.951 70.4133 76.3377 70.04 77.831 70.04C79.0683 70.04 80.0497 70.3387 80.775 70.936C81.5003 71.512 82.0123 72.344 82.311 73.432C82.631 74.4987 82.791 75.768 82.791 77.24V87ZM86.3113 78.712C86.3113 77.1333 86.6313 75.6933 87.2713 74.392C87.9326 73.0693 88.8393 72.0133 89.9913 71.224C91.1433 70.4347 92.4553 70.04 93.9273 70.04C95.3139 70.04 96.5513 70.4133 97.6393 71.16C98.7486 71.8853 99.6126 72.7707 100.231 73.816V63.64H102.407V84.376C102.407 84.952 102.663 85.2507 103.175 85.272V87C102.749 87.064 102.418 87.0853 102.183 87.064C101.714 87.0427 101.309 86.872 100.967 86.552C100.647 86.2107 100.487 85.8267 100.487 85.4V83.768C99.8259 84.856 98.9299 85.72 97.7993 86.36C96.6686 87 95.4953 87.32 94.2793 87.32C93.1273 87.32 92.0606 87.0853 91.0793 86.616C90.0979 86.1467 89.2446 85.5067 88.5193 84.696C87.8153 83.8853 87.2713 82.968 86.8873 81.944C86.5033 80.8987 86.3113 79.8213 86.3113 78.712ZM100.231 81.272V76.12C99.9539 75.352 99.5059 74.6587 98.8873 74.04C98.2686 73.4 97.5646 72.8987 96.7753 72.536C96.0073 72.152 95.2393 71.96 94.4713 71.96C93.2766 71.96 92.2313 72.2907 91.3353 72.952C90.4606 73.592 89.7779 74.4347 89.2873 75.48C88.7966 76.504 88.5513 77.5813 88.5513 78.712C88.5513 79.9067 88.8179 81.016 89.3513 82.04C89.9059 83.064 90.6526 83.8853 91.5913 84.504C92.5299 85.1013 93.5859 85.4 94.7593 85.4C95.4846 85.4 96.2419 85.2187 97.0313 84.856C97.8419 84.472 98.5459 83.9707 99.1433 83.352C99.7619 82.7333 100.125 82.04 100.231 81.272ZM107.338 66.84V63.64H109.514V66.84H107.338ZM107.338 87V70.328H109.514V87H107.338ZM128.322 87H126.146V77.688C126.146 75.7253 125.848 74.296 125.25 73.4C124.674 72.4827 123.778 72.024 122.562 72.024C121.709 72.024 120.866 72.2373 120.034 72.664C119.202 73.0693 118.466 73.6347 117.826 74.36C117.208 75.064 116.76 75.8747 116.482 76.792V87H114.306V70.328H116.29V74.104C116.952 72.888 117.922 71.9067 119.202 71.16C120.482 70.4133 121.869 70.04 123.362 70.04C124.6 70.04 125.581 70.3387 126.306 70.936C127.032 71.512 127.544 72.344 127.842 73.432C128.162 74.4987 128.322 75.768 128.322 77.24V87ZM139.651 87.224C138.499 87.224 137.443 86.9893 136.483 86.52C135.544 86.0507 134.723 85.4213 134.019 84.632C133.336 83.8213 132.803 82.904 132.419 81.88C132.035 80.856 131.843 79.8 131.843 78.712C131.843 77.1547 132.173 75.7253 132.835 74.424C133.496 73.1013 134.403 72.0453 135.555 71.256C136.728 70.4453 138.072 70.04 139.587 70.04C141.016 70.04 142.253 70.4027 143.299 71.128C144.365 71.8533 145.261 72.7493 145.987 73.816V70.328H147.939V87.064C147.939 88.6213 147.565 89.9227 146.819 90.968C146.072 92.0133 145.08 92.8027 143.843 93.336C142.605 93.8693 141.251 94.136 139.779 94.136C137.859 94.136 136.312 93.7947 135.139 93.112C133.987 92.4293 133.037 91.512 132.291 90.36L133.635 89.304C134.296 90.3493 135.171 91.128 136.259 91.64C137.368 92.152 138.541 92.408 139.779 92.408C140.867 92.408 141.859 92.2053 142.755 91.8C143.672 91.416 144.397 90.8293 144.931 90.04C145.485 89.2507 145.763 88.2587 145.763 87.064V83.768C145.123 84.8133 144.248 85.656 143.139 86.296C142.029 86.9147 140.867 87.224 139.651 87.224ZM140.259 85.4C141.133 85.4 141.965 85.1973 142.755 84.792C143.544 84.3867 144.205 83.8747 144.739 83.256C145.293 82.616 145.635 81.9547 145.763 81.272V76.12C145.443 75.3093 144.984 74.5947 144.387 73.976C143.789 73.336 143.107 72.8453 142.339 72.504C141.571 72.1413 140.792 71.96 140.003 71.96C138.765 71.96 137.699 72.3013 136.803 72.984C135.928 73.6453 135.245 74.4987 134.755 75.544C134.285 76.568 134.051 77.6347 134.051 78.744C134.051 79.9387 134.328 81.048 134.883 82.072C135.437 83.0747 136.184 83.8853 137.123 84.504C138.061 85.1013 139.107 85.4 140.259 85.4ZM161.348 87V64.28H170.756C171.737 64.28 172.633 64.4827 173.444 64.888C174.276 65.2933 174.991 65.848 175.588 66.552C176.207 67.2347 176.676 68.0027 176.996 68.856C177.337 69.688 177.508 70.5413 177.508 71.416C177.508 72.6533 177.231 73.8267 176.676 74.936C176.121 76.024 175.353 76.9093 174.372 77.592C173.391 78.2747 172.249 78.616 170.948 78.616H163.588V87H161.348ZM163.588 76.632H170.852C171.748 76.632 172.527 76.3867 173.188 75.896C173.849 75.4053 174.361 74.7653 174.724 73.976C175.087 73.1867 175.268 72.3333 175.268 71.416C175.268 70.4773 175.055 69.624 174.628 68.856C174.201 68.0667 173.636 67.4373 172.932 66.968C172.249 66.4987 171.492 66.264 170.66 66.264H163.588V76.632ZM179.275 82.2C179.275 81.176 179.573 80.2907 180.171 79.544C180.768 78.776 181.589 78.1787 182.635 77.752C183.701 77.3253 184.928 77.112 186.315 77.112C187.125 77.112 187.968 77.1867 188.843 77.336C189.717 77.464 190.496 77.6453 191.179 77.88V76.472C191.179 75.064 190.763 73.944 189.931 73.112C189.099 72.28 187.947 71.864 186.475 71.864C185.6 71.864 184.725 72.0347 183.851 72.376C182.976 72.696 182.069 73.176 181.131 73.816L180.299 72.28C181.387 71.5333 182.453 70.9787 183.499 70.616C184.544 70.232 185.611 70.04 186.699 70.04C188.747 70.04 190.368 70.6267 191.563 71.8C192.757 72.9733 193.355 74.5947 193.355 76.664V84.376C193.355 84.952 193.621 85.2507 194.155 85.272V87C193.685 87.064 193.355 87.0853 193.163 87.064C192.629 87.0427 192.224 86.872 191.947 86.552C191.669 86.232 191.52 85.8907 191.499 85.528L191.467 84.312C190.72 85.272 189.749 86.0187 188.555 86.552C187.36 87.064 186.144 87.32 184.907 87.32C183.819 87.32 182.848 87.096 181.995 86.648C181.141 86.1787 180.469 85.56 179.979 84.792C179.509 84.0027 179.275 83.1387 179.275 82.2ZM190.443 83.48C190.933 82.904 191.179 82.3707 191.179 81.88V79.448C189.707 78.872 188.171 78.584 186.571 78.584C185.013 78.584 183.755 78.8933 182.795 79.512C181.835 80.1307 181.355 80.9733 181.355 82.04C181.355 82.9573 181.707 83.7893 182.411 84.536C183.136 85.2827 184.139 85.656 185.419 85.656C186.464 85.656 187.435 85.4533 188.331 85.048C189.248 84.6427 189.952 84.12 190.443 83.48ZM204.744 87.224C203.592 87.224 202.536 86.9893 201.576 86.52C200.638 86.0507 199.816 85.4213 199.112 84.632C198.43 83.8213 197.896 82.904 197.512 81.88C197.128 80.856 196.936 79.8 196.936 78.712C196.936 77.1547 197.267 75.7253 197.928 74.424C198.59 73.1013 199.496 72.0453 200.648 71.256C201.822 70.4453 203.166 70.04 204.68 70.04C206.11 70.04 207.347 70.4027 208.392 71.128C209.459 71.8533 210.355 72.7493 211.08 73.816V70.328H213.032V87.064C213.032 88.6213 212.659 89.9227 211.912 90.968C211.166 92.0133 210.174 92.8027 208.936 93.336C207.699 93.8693 206.344 94.136 204.872 94.136C202.952 94.136 201.406 93.7947 200.232 93.112C199.08 92.4293 198.131 91.512 197.384 90.36L198.728 89.304C199.39 90.3493 200.264 91.128 201.352 91.64C202.462 92.152 203.635 92.408 204.872 92.408C205.96 92.408 206.952 92.2053 207.848 91.8C208.766 91.416 209.491 90.8293 210.024 90.04C210.579 89.2507 210.856 88.2587 210.856 87.064V83.768C210.216 84.8133 209.342 85.656 208.232 86.296C207.123 86.9147 205.96 87.224 204.744 87.224ZM205.352 85.4C206.227 85.4 207.059 85.1973 207.848 84.792C208.638 84.3867 209.299 83.8747 209.832 83.256C210.387 82.616 210.728 81.9547 210.856 81.272V76.12C210.536 75.3093 210.078 74.5947 209.48 73.976C208.883 73.336 208.2 72.8453 207.432 72.504C206.664 72.1413 205.886 71.96 205.096 71.96C203.859 71.96 202.792 72.3013 201.896 72.984C201.022 73.6453 200.339 74.4987 199.848 75.544C199.379 76.568 199.144 77.6347 199.144 78.744C199.144 79.9387 199.422 81.048 199.976 82.072C200.531 83.0747 201.278 83.8853 202.216 84.504C203.155 85.1013 204.2 85.4 205.352 85.4ZM225.038 87.32C223.438 87.32 222.008 86.9253 220.75 86.136C219.491 85.3467 218.499 84.2907 217.774 82.968C217.048 81.6453 216.686 80.1947 216.686 78.616C216.686 77.0587 217.038 75.6293 217.742 74.328C218.467 73.0267 219.459 71.992 220.718 71.224C221.976 70.4347 223.406 70.04 225.006 70.04C226.648 70.04 228.088 70.4347 229.326 71.224C230.563 72.0133 231.523 73.0587 232.206 74.36C232.91 75.64 233.262 77.048 233.262 78.584C233.262 78.9253 233.251 79.2133 233.23 79.448H218.958C219.064 80.6427 219.406 81.7093 219.982 82.648C220.558 83.5653 221.294 84.3013 222.19 84.856C223.086 85.3893 224.067 85.656 225.134 85.656C226.222 85.656 227.246 85.3787 228.206 84.824C229.166 84.2693 229.848 83.544 230.254 82.648L232.142 83.16C231.8 83.9707 231.267 84.696 230.542 85.336C229.838 85.9547 229.016 86.4453 228.078 86.808C227.139 87.1493 226.126 87.32 225.038 87.32ZM218.894 77.88H231.214C231.128 76.6853 230.798 75.6293 230.222 74.712C229.646 73.7733 228.91 73.048 228.014 72.536C227.118 72.0027 226.126 71.736 225.038 71.736C223.95 71.736 222.958 72.0027 222.062 72.536C221.166 73.048 220.43 73.7733 219.854 74.712C219.299 75.6293 218.979 76.6853 218.894 77.88ZM236.299 79.288V77.272H245.643V79.288H236.299ZM48.4604 125V106.504L40.2364 120.872H38.8284L30.5724 106.504V125H28.3324V102.28H30.6364L39.5004 117.832L48.4284 102.28H50.7004V125H48.4604ZM62.8009 125.32C61.2009 125.32 59.7715 124.925 58.5129 124.136C57.2755 123.347 56.3049 122.301 55.6009 121C54.8969 119.677 54.5449 118.248 54.5449 116.712C54.5449 115.155 54.8969 113.725 55.6009 112.424C56.3262 111.101 57.3075 110.045 58.5449 109.256C59.8035 108.445 61.2222 108.04 62.8009 108.04C64.4009 108.04 65.8195 108.445 67.0569 109.256C68.3155 110.045 69.2969 111.101 70.0009 112.424C70.7262 113.725 71.0889 115.155 71.0889 116.712C71.0889 118.248 70.7369 119.677 70.0329 121C69.3289 122.301 68.3475 123.347 67.0889 124.136C65.8515 124.925 64.4222 125.32 62.8009 125.32ZM56.7529 116.744C56.7529 117.981 57.0195 119.112 57.5529 120.136C58.1075 121.139 58.8435 121.939 59.7609 122.536C60.6782 123.112 61.6915 123.4 62.8009 123.4C63.9102 123.4 64.9235 123.101 65.8409 122.504C66.7582 121.907 67.4942 121.096 68.0489 120.072C68.6035 119.048 68.8809 117.917 68.8809 116.68C68.8809 115.443 68.6035 114.312 68.0489 113.288C67.4942 112.264 66.7582 111.453 65.8409 110.856C64.9235 110.259 63.9102 109.96 62.8009 109.96C61.7129 109.96 60.7102 110.269 59.7929 110.888C58.8755 111.485 58.1395 112.296 57.5849 113.32C57.0302 114.344 56.7529 115.485 56.7529 116.744ZM82.8881 125.32C81.5868 125.32 80.3815 124.989 79.2721 124.328C78.1628 123.645 77.2988 122.792 76.6801 121.768V125H74.7281V101.64H76.9041V111.816C77.6508 110.685 78.5468 109.779 79.5921 109.096C80.6375 108.392 81.8535 108.04 83.2401 108.04C84.4135 108.04 85.4588 108.285 86.3761 108.776C87.3148 109.267 88.1148 109.928 88.7761 110.76C89.4375 111.571 89.9388 112.499 90.2801 113.544C90.6215 114.568 90.7921 115.624 90.7921 116.712C90.7921 118.269 90.4401 119.699 89.7361 121C89.0535 122.301 88.1148 123.347 86.9201 124.136C85.7255 124.925 84.3815 125.32 82.8881 125.32ZM82.3761 123.4C83.5921 123.4 84.6588 123.08 85.5761 122.44C86.5148 121.8 87.2508 120.979 87.7841 119.976C88.3175 118.952 88.5841 117.864 88.5841 116.712C88.5841 115.539 88.3281 114.44 87.8161 113.416C87.3255 112.392 86.6321 111.56 85.7361 110.92C84.8401 110.28 83.8055 109.96 82.6321 109.96C81.3308 109.96 80.1788 110.376 79.1761 111.208C78.1948 112.04 77.4375 113.011 76.9041 114.12V119.304C77.0108 120.072 77.3628 120.765 77.9601 121.384C78.5575 122.003 79.2615 122.493 80.0721 122.856C80.8828 123.219 81.6508 123.4 82.3761 123.4ZM94.4781 104.84V101.64H96.6541V104.84H94.4781ZM94.4781 125V108.328H96.6541V125H94.4781ZM101.543 101.64H103.719V121.224C103.719 122.056 103.858 122.6 104.135 122.856C104.434 123.112 104.807 123.24 105.255 123.24C105.639 123.24 106.023 123.197 106.407 123.112C106.812 123.027 107.143 122.941 107.399 122.856L107.783 124.616C107.378 124.787 106.876 124.925 106.279 125.032C105.703 125.139 105.202 125.192 104.775 125.192C103.794 125.192 103.004 124.904 102.407 124.328C101.831 123.752 101.543 122.963 101.543 121.96V101.64ZM117.366 125.32C115.766 125.32 114.336 124.925 113.078 124.136C111.819 123.347 110.827 122.291 110.102 120.968C109.376 119.645 109.014 118.195 109.014 116.616C109.014 115.059 109.366 113.629 110.07 112.328C110.795 111.027 111.787 109.992 113.046 109.224C114.304 108.435 115.734 108.04 117.334 108.04C118.976 108.04 120.416 108.435 121.654 109.224C122.891 110.013 123.851 111.059 124.534 112.36C125.238 113.64 125.59 115.048 125.59 116.584C125.59 116.925 125.579 117.213 125.558 117.448H111.286C111.392 118.643 111.734 119.709 112.31 120.648C112.886 121.565 113.622 122.301 114.518 122.856C115.414 123.389 116.395 123.656 117.462 123.656C118.55 123.656 119.574 123.379 120.534 122.824C121.494 122.269 122.176 121.544 122.582 120.648L124.47 121.16C124.128 121.971 123.595 122.696 122.87 123.336C122.166 123.955 121.344 124.445 120.406 124.808C119.467 125.149 118.454 125.32 117.366 125.32ZM111.222 115.88H123.542C123.456 114.685 123.126 113.629 122.55 112.712C121.974 111.773 121.238 111.048 120.342 110.536C119.446 110.003 118.454 109.736 117.366 109.736C116.278 109.736 115.286 110.003 114.39 110.536C113.494 111.048 112.758 111.773 112.182 112.712C111.627 113.629 111.307 114.685 111.222 115.88ZM137.551 125V102.28H152.463V104.264H139.791V112.616H150.479V114.472H139.791V125H137.551ZM163.048 110.248C161.597 110.291 160.317 110.696 159.208 111.464C158.12 112.232 157.352 113.288 156.904 114.632V125H154.728V108.328H156.776V112.328C157.352 111.155 158.109 110.205 159.048 109.48C160.008 108.755 161.021 108.349 162.088 108.264C162.301 108.243 162.483 108.232 162.632 108.232C162.781 108.232 162.92 108.243 163.048 108.264V110.248ZM165.947 104.84V101.64H168.123V104.84H165.947ZM165.947 125V108.328H168.123V125H165.947ZM180.116 125.32C178.516 125.32 177.086 124.925 175.828 124.136C174.569 123.347 173.577 122.291 172.852 120.968C172.126 119.645 171.764 118.195 171.764 116.616C171.764 115.059 172.116 113.629 172.82 112.328C173.545 111.027 174.537 109.992 175.796 109.224C177.054 108.435 178.484 108.04 180.084 108.04C181.726 108.04 183.166 108.435 184.404 109.224C185.641 110.013 186.601 111.059 187.284 112.36C187.988 113.64 188.34 115.048 188.34 116.584C188.34 116.925 188.329 117.213 188.308 117.448H174.036C174.142 118.643 174.484 119.709 175.06 120.648C175.636 121.565 176.372 122.301 177.268 122.856C178.164 123.389 179.145 123.656 180.212 123.656C181.3 123.656 182.324 123.379 183.284 122.824C184.244 122.269 184.926 121.544 185.332 120.648L187.22 121.16C186.878 121.971 186.345 122.696 185.62 123.336C184.916 123.955 184.094 124.445 183.156 124.808C182.217 125.149 181.204 125.32 180.116 125.32ZM173.972 115.88H186.292C186.206 114.685 185.876 113.629 185.3 112.712C184.724 111.773 183.988 111.048 183.092 110.536C182.196 110.003 181.204 109.736 180.116 109.736C179.028 109.736 178.036 110.003 177.14 110.536C176.244 111.048 175.508 111.773 174.932 112.712C174.377 113.629 174.057 114.685 173.972 115.88ZM205.713 125H203.537V115.688C203.537 113.725 203.238 112.296 202.641 111.4C202.065 110.483 201.169 110.024 199.953 110.024C199.1 110.024 198.257 110.237 197.425 110.664C196.593 111.069 195.857 111.635 195.217 112.36C194.598 113.064 194.15 113.875 193.873 114.792V125H191.697V108.328H193.681V112.104C194.342 110.888 195.313 109.907 196.593 109.16C197.873 108.413 199.26 108.04 200.753 108.04C201.99 108.04 202.972 108.339 203.697 108.936C204.422 109.512 204.934 110.344 205.233 111.432C205.553 112.499 205.713 113.768 205.713 115.24V125ZM209.233 116.712C209.233 115.133 209.553 113.693 210.193 112.392C210.854 111.069 211.761 110.013 212.913 109.224C214.065 108.435 215.377 108.04 216.849 108.04C218.236 108.04 219.473 108.413 220.561 109.16C221.67 109.885 222.534 110.771 223.153 111.816V101.64H225.329V122.376C225.329 122.952 225.585 123.251 226.097 123.272V125C225.67 125.064 225.34 125.085 225.105 125.064C224.636 125.043 224.23 124.872 223.889 124.552C223.569 124.211 223.409 123.827 223.409 123.4V121.768C222.748 122.856 221.852 123.72 220.721 124.36C219.59 125 218.417 125.32 217.201 125.32C216.049 125.32 214.982 125.085 214.001 124.616C213.02 124.147 212.166 123.507 211.441 122.696C210.737 121.885 210.193 120.968 209.809 119.944C209.425 118.899 209.233 117.821 209.233 116.712ZM223.153 119.272V114.12C222.876 113.352 222.428 112.659 221.809 112.04C221.19 111.4 220.486 110.899 219.697 110.536C218.929 110.152 218.161 109.96 217.393 109.96C216.198 109.96 215.153 110.291 214.257 110.952C213.382 111.592 212.7 112.435 212.209 113.48C211.718 114.504 211.473 115.581 211.473 116.712C211.473 117.907 211.74 119.016 212.273 120.04C212.828 121.064 213.574 121.885 214.513 122.504C215.452 123.101 216.508 123.4 217.681 123.4C218.406 123.4 219.164 123.219 219.953 122.856C220.764 122.472 221.468 121.971 222.065 121.352C222.684 120.733 223.046 120.04 223.153 119.272ZM230.355 101.64H232.531V121.224C232.531 122.056 232.67 122.6 232.947 122.856C233.246 123.112 233.619 123.24 234.067 123.24C234.451 123.24 234.835 123.197 235.219 123.112C235.625 123.027 235.955 122.941 236.211 122.856L236.595 124.616C236.19 124.787 235.689 124.925 235.091 125.032C234.515 125.139 234.014 125.192 233.587 125.192C232.606 125.192 231.817 124.904 231.219 124.328C230.643 123.752 230.355 122.963 230.355 121.96V101.64ZM239.407 130.12C239.706 130.141 239.994 130.152 240.271 130.152C240.548 130.173 240.751 130.163 240.879 130.12C241.135 130.099 241.37 129.949 241.583 129.672C241.818 129.416 242.095 128.925 242.415 128.2C242.756 127.496 243.215 126.429 243.791 125L236.527 108.328H238.831L244.943 122.76L250.575 108.328H252.751L244.111 129.832C243.876 130.451 243.482 130.984 242.927 131.432C242.372 131.88 241.636 132.115 240.719 132.136C240.527 132.157 240.324 132.157 240.111 132.136C239.898 132.136 239.663 132.115 239.407 132.072V130.12ZM90.5824 163V140.28H98.2944C100.705 140.28 102.71 140.792 104.31 141.816C105.932 142.819 107.148 144.184 107.958 145.912C108.769 147.619 109.174 149.517 109.174 151.608C109.174 153.912 108.726 155.917 107.83 157.624C106.934 159.331 105.676 160.653 104.054 161.592C102.433 162.531 100.513 163 98.2944 163H90.5824ZM106.934 151.608C106.934 149.795 106.593 148.184 105.91 146.776C105.249 145.368 104.268 144.269 102.966 143.48C101.686 142.669 100.129 142.264 98.2944 142.264H92.8224V161.016H98.2944C100.172 161.016 101.75 160.6 103.03 159.768C104.31 158.936 105.281 157.816 105.942 156.408C106.604 155 106.934 153.4 106.934 151.608ZM120.209 163.32C118.609 163.32 117.18 162.925 115.921 162.136C114.663 161.347 113.671 160.291 112.945 158.968C112.22 157.645 111.857 156.195 111.857 154.616C111.857 153.059 112.209 151.629 112.913 150.328C113.639 149.027 114.631 147.992 115.889 147.224C117.148 146.435 118.577 146.04 120.177 146.04C121.82 146.04 123.26 146.435 124.497 147.224C125.735 148.013 126.695 149.059 127.377 150.36C128.081 151.64 128.433 153.048 128.433 154.584C128.433 154.925 128.423 155.213 128.401 155.448H114.129C114.236 156.643 114.577 157.709 115.153 158.648C115.729 159.565 116.465 160.301 117.361 160.856C118.257 161.389 119.239 161.656 120.305 161.656C121.393 161.656 122.417 161.379 123.377 160.824C124.337 160.269 125.02 159.544 125.425 158.648L127.313 159.16C126.972 159.971 126.439 160.696 125.713 161.336C125.009 161.955 124.188 162.445 123.249 162.808C122.311 163.149 121.297 163.32 120.209 163.32ZM114.065 153.88H126.385C126.3 152.685 125.969 151.629 125.393 150.712C124.817 149.773 124.081 149.048 123.185 148.536C122.289 148.003 121.297 147.736 120.209 147.736C119.121 147.736 118.129 148.003 117.233 148.536C116.337 149.048 115.601 149.773 115.025 150.712C114.471 151.629 114.151 152.685 114.065 153.88ZM137.263 163.32C135.897 163.32 134.628 163.096 133.455 162.648C132.303 162.179 131.289 161.496 130.415 160.6L131.311 159.064C132.249 159.939 133.188 160.579 134.127 160.984C135.087 161.368 136.1 161.56 137.167 161.56C138.447 161.56 139.492 161.304 140.303 160.792C141.135 160.259 141.551 159.501 141.551 158.52C141.551 157.859 141.348 157.357 140.943 157.016C140.559 156.653 139.993 156.365 139.247 156.152C138.521 155.939 137.647 155.693 136.623 155.416C135.471 155.096 134.5 154.765 133.711 154.424C132.943 154.061 132.356 153.613 131.951 153.08C131.567 152.525 131.375 151.811 131.375 150.936C131.375 149.869 131.641 148.973 132.175 148.248C132.729 147.523 133.476 146.979 134.415 146.616C135.375 146.232 136.441 146.04 137.615 146.04C138.895 146.04 140.025 146.243 141.007 146.648C141.988 147.053 142.788 147.619 143.407 148.344L142.351 149.816C141.775 149.133 141.06 148.632 140.207 148.312C139.375 147.971 138.468 147.8 137.487 147.8C136.804 147.8 136.153 147.896 135.535 148.088C134.916 148.259 134.404 148.557 133.999 148.984C133.615 149.389 133.423 149.955 133.423 150.68C133.423 151.576 133.753 152.195 134.415 152.536C135.076 152.877 136.079 153.24 137.423 153.624C138.681 153.965 139.78 154.307 140.719 154.648C141.657 154.989 142.383 155.448 142.895 156.024C143.407 156.579 143.663 157.357 143.663 158.36C143.663 159.917 143.076 161.133 141.903 162.008C140.729 162.883 139.183 163.32 137.263 163.32ZM147.259 142.84V139.64H149.435V142.84H147.259ZM147.259 163V146.328H149.435V163H147.259ZM160.916 163.224C159.764 163.224 158.708 162.989 157.748 162.52C156.809 162.051 155.988 161.421 155.284 160.632C154.601 159.821 154.068 158.904 153.684 157.88C153.3 156.856 153.108 155.8 153.108 154.712C153.108 153.155 153.439 151.725 154.1 150.424C154.761 149.101 155.668 148.045 156.82 147.256C157.993 146.445 159.337 146.04 160.852 146.04C162.281 146.04 163.519 146.403 164.564 147.128C165.631 147.853 166.527 148.749 167.252 149.816V146.328H169.204V163.064C169.204 164.621 168.831 165.923 168.084 166.968C167.337 168.013 166.345 168.803 165.108 169.336C163.871 169.869 162.516 170.136 161.044 170.136C159.124 170.136 157.577 169.795 156.404 169.112C155.252 168.429 154.303 167.512 153.556 166.36L154.9 165.304C155.561 166.349 156.436 167.128 157.524 167.64C158.633 168.152 159.807 168.408 161.044 168.408C162.132 168.408 163.124 168.205 164.02 167.8C164.937 167.416 165.663 166.829 166.196 166.04C166.751 165.251 167.028 164.259 167.028 163.064V159.768C166.388 160.813 165.513 161.656 164.404 162.296C163.295 162.915 162.132 163.224 160.916 163.224ZM161.524 161.4C162.399 161.4 163.231 161.197 164.02 160.792C164.809 160.387 165.471 159.875 166.004 159.256C166.559 158.616 166.9 157.955 167.028 157.272V152.12C166.708 151.309 166.249 150.595 165.652 149.976C165.055 149.336 164.372 148.845 163.604 148.504C162.836 148.141 162.057 147.96 161.268 147.96C160.031 147.96 158.964 148.301 158.068 148.984C157.193 149.645 156.511 150.499 156.02 151.544C155.551 152.568 155.316 153.635 155.316 154.744C155.316 155.939 155.593 157.048 156.148 158.072C156.703 159.075 157.449 159.885 158.388 160.504C159.327 161.101 160.372 161.4 161.524 161.4ZM188.025 163H185.849V153.688C185.849 151.725 185.551 150.296 184.953 149.4C184.377 148.483 183.481 148.024 182.265 148.024C181.412 148.024 180.569 148.237 179.737 148.664C178.905 149.069 178.169 149.635 177.529 150.36C176.911 151.064 176.463 151.875 176.185 152.792V163H174.009V146.328H175.993V150.104C176.655 148.888 177.625 147.907 178.905 147.16C180.185 146.413 181.572 146.04 183.065 146.04C184.303 146.04 185.284 146.339 186.009 146.936C186.735 147.512 187.247 148.344 187.545 149.432C187.865 150.499 188.025 151.768 188.025 153.24V163Z" fill="#FFFAFA"/>
</g>
</g>
<defs>
<filter id="filter0_d" x="234" y="9" width="308" height="208" filterUnits="userSpaceOnUse" color-interpolation-filters="sRGB">
<feFlood flood-opacity="0" result="BackgroundImageFix"/>
<feColorMatrix in="SourceAlpha" type="matrix" values="0 0 0 0 0 0 0 0 0 0 0 0 0 0 0 0 0 0 127 0"/>
<feOffset dy="4"/>
<feGaussianBlur stdDeviation="2"/>
<feColorMatrix type="matrix" values="0 0 0 0 0 0 0 0 0 0 0 0 0 0 0 0 0 0 0.25 0"/>
<feBlend mode="normal" in2="BackgroundImageFix" result="effect1_dropShadow"/>
<feBlend mode="normal" in="SourceGraphic" in2="effect1_dropShadow" result="shape"/>
</filter>
<filter id="filter1_d" x="24.3324" y="25.32" width="232.419" height="152.816" filterUnits="userSpaceOnUse" color-interpolation-filters="sRGB">
<feFlood flood-opacity="0" result="BackgroundImageFix"/>
<feColorMatrix in="SourceAlpha" type="matrix" values="0 0 0 0 0 0 0 0 0 0 0 0 0 0 0 0 0 0 127 0"/>
<feOffset dy="4"/>
<feGaussianBlur stdDeviation="2"/>
<feColorMatrix type="matrix" values="0 0 0 0 0 0 0 0 0 0 0 0 0 0 0 0 0 0 0.3 0"/>
<feBlend mode="normal" in2="BackgroundImageFix" result="effect1_dropShadow"/>
<feBlend mode="normal" in="SourceGraphic" in2="effect1_dropShadow" result="shape"/>
</filter>
<linearGradient id="paint0_linear" x1="5.00001" y1="-1.91529e-05" x2="538" y2="213" gradientUnits="userSpaceOnUse">
<stop stop-color="#0CB9E4"/>
<stop offset="1" stop-color="#E055CC"/>
</linearGradient>
<clipPath id="clip0">
<rect width="538" height="218" fill="white"/>
</clipPath>
<clipPath id="clip1">
<rect width="300" height="200" fill="white" transform="translate(238 9)"/>
</clipPath>
</defs>
</svg>
