<svg width="538" height="218" viewBox="0 0 538 218" fill="none" xmlns="http://www.w3.org/2000/svg">
<g clip-path="url(#clip0)">
<rect width="538" height="218" fill="url(#paint0_linear)"/>
<g clip-path="url(#clip1)">
<path d="M275.397 60.293H273.562L265.759 84.2908C265.759 84.2908 265.606 100.246 267.442 108.029C267.442 108.029 270.502 104.656 272.644 104.656C274.785 104.656 276.774 87.6634 276.774 87.6634C276.774 87.6634 285.188 63.4063 275.397 60.293Z" fill="#575A89"/>
<path d="M315.786 106.213C315.786 106.213 310.89 117.888 315.48 118.666C320.069 119.444 322.517 109.586 321.293 108.288C320.069 106.991 315.786 106.213 315.786 106.213Z" fill="#A0616A"/>
<path d="M266.944 103.801C266.944 103.801 268.32 116.137 272.868 115.199C277.416 114.261 274.726 104.448 272.97 103.711C271.215 102.973 266.944 103.801 266.944 103.801Z" fill="#A0616A"/>
<path d="M278.763 176.001C278.763 176.001 280.905 184.822 277.233 187.157C273.562 189.492 278.457 194.421 278.457 194.421L290.084 184.044C290.084 184.044 285.188 177.558 285.494 173.666L278.763 176.001Z" fill="#A0616A"/>
<path d="M297.121 184.044L295.897 191.048L295.591 195.978L302.323 195.459L303.241 185.341L297.121 184.044Z" fill="#A0616A"/>
<path d="M271.215 105.037C271.215 105.037 267.442 106.213 267.748 109.586C268.054 112.958 268.972 123.595 268.972 123.595C268.972 123.595 266.218 146.425 268.972 154.208C271.726 161.992 276.927 177.558 276.927 177.558C276.927 177.558 284.882 178.855 286.718 173.926C286.718 173.926 286.412 157.062 283.047 153.43C279.681 149.798 282.129 148.76 282.435 148.241C282.741 147.723 283.659 146.944 283.659 146.166C283.659 145.388 283.965 142.534 283.965 141.496C283.965 140.458 283.659 140.718 284.271 139.161C284.882 137.605 285.494 137.086 285.494 136.826C285.494 136.567 290.696 122.817 290.696 122.817L297.427 154.727C297.427 154.727 295.897 186.119 296.509 186.119C297.121 186.119 303.853 188.194 306.301 186.119C306.301 186.119 312.42 159.138 311.196 157.581C309.972 156.025 309.666 155.765 309.972 154.208C310.278 152.652 310.89 151.874 310.278 151.095C309.666 150.317 308.748 147.723 309.666 146.944C310.584 146.166 310.89 142.534 310.89 142.534C310.89 142.534 316.092 117.109 312.726 113.477C309.36 109.845 271.215 105.037 271.215 105.037Z" fill="#2F2E41"/>
<path d="M281.517 187.416C281.517 187.416 277.845 183.525 276.621 185.341C275.397 187.157 273.562 190.011 273.562 190.011C273.562 190.011 259.793 200.129 267.442 200.388C275.091 200.647 279.987 195.978 279.987 195.978C279.987 195.978 281.211 190.789 284.883 190.789L285.494 192.086L292.226 188.454C292.226 188.454 291.278 181.566 288.539 181.767L281.517 187.416Z" fill="#2F2E41"/>
<path d="M294.368 195.199C294.368 195.199 302.323 192.605 303.241 195.199C304.159 197.794 304.159 199.091 304.159 199.091C304.159 199.091 310.89 208.43 304.159 208.949C297.427 209.468 294.368 205.836 294.368 205.836C294.368 205.836 295.286 201.426 294.368 200.907C293.45 200.388 294.368 195.199 294.368 195.199Z" fill="#2F2E41"/>
<path d="M299.875 51.9911C305.79 51.9911 310.584 47.9258 310.584 42.9109C310.584 37.896 305.79 33.8307 299.875 33.8307C293.961 33.8307 289.166 37.896 289.166 42.9109C289.166 47.9258 293.961 51.9911 299.875 51.9911Z" fill="#A0616A"/>
<path d="M291.92 44.9864L289.778 55.1043L304.771 58.2175C304.771 58.2175 301.252 50.8236 305.077 47.5807C306.044 46.7603 291.92 44.9864 291.92 44.9864Z" fill="#A0616A"/>
<path d="M290.691 50.7938C290.329 50.8515 289.995 50.9945 289.725 51.2063C289.455 51.4181 289.262 51.6901 289.166 51.9911C288.899 52.7365 288.485 53.4382 287.942 54.0666C287.942 54.0666 273.562 59.7741 273.562 60.5525C273.562 61.3308 279.375 77.9346 279.375 77.9346C279.375 77.9346 279.681 88.312 277.233 90.6469C274.785 92.9818 272.338 101.543 272.95 102.321C273.562 103.1 268.666 104.916 270.502 106.213C272.338 107.51 298.039 119.963 313.338 114.255C313.338 114.255 313.644 111.921 313.338 110.364C313.032 108.807 315.174 103.619 314.562 101.803C313.95 99.9866 314.562 81.3072 314.562 81.3072L317.715 59.1887C317.775 58.7686 317.659 58.3439 317.387 57.9892C317.114 57.6345 316.703 57.3726 316.226 57.2494C312.699 56.3406 304.521 52.6198 303.394 53.418C301.934 54.4515 292.827 53.7475 290.691 50.7938Z" fill="#575A89"/>
<path d="M314.868 57.1798L314.887 57.1732C315.325 57.0243 315.808 57.0033 316.262 57.1134C316.715 57.2235 317.112 57.4584 317.39 57.7811C319.286 59.981 323.277 64.9253 323.741 68.0761C324.353 72.227 326.189 83.3827 325.883 84.9393C325.577 86.496 325.271 86.7554 325.883 87.5337C326.495 88.312 326.189 88.0526 325.883 88.8309C325.577 89.6092 321.905 111.142 321.905 111.142C321.905 111.142 319.457 106.472 314.868 108.029C314.868 108.029 315.48 103.878 314.868 102.581C314.256 101.284 313.644 100.505 314.256 99.4677C314.868 98.43 314.256 88.312 313.95 87.2743C313.644 86.2365 313.95 80.7884 313.95 80.7884L311.196 70.1516L314.868 57.1798Z" fill="#575A89"/>
<path d="M297.875 44.4568L298.237 42.3187C298.321 41.8204 298.665 41.1652 299.237 41.3007C299.723 41.416 300.783 41.769 300.96 41.6624C301.625 41.2634 302.63 41.9611 303.329 41.6066C303.621 41.4581 303.812 41.1399 304.152 41.1187C304.381 41.131 304.596 41.2137 304.757 41.351C305.211 41.6854 305.745 41.9316 306.323 42.0721C306.613 42.1391 306.918 42.139 307.208 42.072C307.498 42.0051 307.761 41.8736 307.971 41.6912C308.045 41.5941 308.145 41.513 308.262 41.4543C308.401 41.4206 308.548 41.4263 308.682 41.4707L310.467 41.8828C310.729 41.0757 310.783 40.23 310.625 39.4036C310.466 38.5772 310.099 37.7895 309.549 37.0944C308.825 36.261 307.947 35.532 306.949 34.9355C305.844 34.2224 304.703 33.5517 303.527 32.9234C302.239 32.2338 300.874 31.5834 299.368 31.3895C297.863 31.1957 296.178 31.5425 295.231 32.5535C294.785 32.2802 294.451 31.8967 294.272 31.4558C294.166 31.5377 294.083 31.6383 294.027 31.7506C293.972 31.863 293.947 31.9842 293.953 32.1058C293.959 32.2274 293.996 32.3464 294.062 32.4544C294.128 32.5623 294.222 32.6567 294.336 32.7307L292.826 31.9133C292.402 32.2911 293.231 32.9763 292.869 33.3985C292.76 33.5029 292.619 33.5806 292.463 33.6235C291.643 33.8944 290.892 34.2953 290.249 34.8048C289.381 35.5426 288.91 36.544 288.506 37.5278C287.606 39.7161 286.952 42.2257 288.231 44.2741C288.375 44.5063 290.288 48.3393 290.543 48.4888C291.404 48.994 290.844 47.7712 291.461 48.4888C291.945 49.0514 291.854 46.8979 292.574 47.3706C292.856 47.5417 293.19 47.6398 293.537 47.653C293.883 47.6662 294.227 47.594 294.526 47.445C294.824 47.2697 294.728 46.2958 294.567 45.4015C294.536 45.2312 294.555 45.057 294.622 44.8944C294.689 44.7317 294.802 44.5854 294.951 44.4684C295.101 44.3514 295.281 44.2672 295.478 44.2233C295.674 44.1793 295.881 44.1769 296.079 44.2162C296.975 44.3949 297.86 44.5476 297.875 44.4568Z" fill="#2F2E41"/>
<path d="M464.509 45.0583V30.9347C459.334 29.927 454.463 28.0187 450.204 25.3307C445.945 22.6426 442.391 19.2335 439.768 15.3196L439.768 15.3198C438.509 16.111 436.983 16.5368 435.417 16.534H422.19C425.72 23.9927 431.477 30.5446 438.897 35.5457C446.316 40.5467 455.143 43.825 464.509 45.0583V45.0583Z" fill="#3F3D56"/>
<path d="M464.509 30.1252V16.5574C464.509 15.5648 464.279 14.582 463.831 13.6649C463.383 12.7479 462.727 11.9147 461.899 11.2129C461.071 10.511 460.089 9.95437 459.007 9.57468C457.925 9.195 456.766 8.99973 455.596 9.00003H442.754V10.3102C442.755 11.1505 442.555 11.9822 442.166 12.755C441.777 13.5278 441.207 14.2256 440.49 14.8059C443.027 18.6284 446.472 21.9633 450.606 24.6001C454.74 27.2368 459.474 29.1181 464.509 30.1252V30.1252Z" fill="#3F3D56"/>
<path d="M402.736 16.534H394.465C392.519 16.5335 390.653 15.8775 389.277 14.7103C387.901 13.5432 387.128 11.9604 387.128 10.3101V8.99997H375.079C373.909 8.99989 372.749 9.1953 371.668 9.57507C370.587 9.95483 369.604 10.5115 368.776 11.2133C367.949 11.9151 367.292 12.7482 366.844 13.6651C366.396 14.5821 366.166 15.5648 366.166 16.5573V184.723C366.165 185.716 366.395 186.698 366.842 187.616C367.29 188.533 367.946 189.366 368.774 190.067C369.602 190.769 370.585 191.325 371.667 191.704C372.749 192.083 373.909 192.277 375.079 192.275H455.596C455.963 192.276 456.33 192.257 456.694 192.218C458.85 191.99 460.833 191.103 462.272 189.723C463.711 188.343 464.506 186.565 464.509 184.723V60.9279C435.224 58.0507 410.823 40.3342 402.736 16.534Z" fill="#3F3D56"/>
<path d="M421.187 16.534H403.703C411.75 39.8932 435.732 57.2725 464.509 60.1367V45.8626C454.892 44.6159 445.83 41.251 438.228 36.1044C430.625 30.9577 424.749 24.2095 421.187 16.534V16.534Z" fill="#3F3D56"/>
<path opacity="0.1" d="M395.322 189.675C395.544 189.489 400.807 184.969 405.269 174.244C409.362 164.405 413.493 147.247 409.924 121.381C403.162 72.3804 437.837 41.1519 438.189 40.8421L437.162 40.0063C437.073 40.0849 428.158 48.0315 420.226 61.9821C409.726 80.4811 405.662 101.134 408.511 121.522C415.261 170.439 394.528 188.642 394.318 188.821L395.322 189.675Z" fill="black"/>
<path opacity="0.1" d="M448.836 40.021C453.943 40.021 458.083 36.5106 458.083 32.1803C458.083 27.85 453.943 24.3396 448.836 24.3396C443.729 24.3396 439.589 27.85 439.589 32.1803C439.589 36.5106 443.729 40.021 448.836 40.021Z" fill="#E055CC"/>
<path opacity="0.1" d="M412.405 62.2797C417.513 62.2797 421.653 58.7693 421.653 54.439C421.653 50.1087 417.513 46.5983 412.405 46.5983C407.298 46.5983 403.158 50.1087 403.158 54.439C403.158 58.7693 407.298 62.2797 412.405 62.2797Z" fill="#E055CC"/>
<path opacity="0.1" d="M426.355 85.0348C431.462 85.0348 435.602 81.5244 435.602 77.1941C435.602 72.8638 431.462 69.3534 426.355 69.3534C421.248 69.3534 417.108 72.8638 417.108 77.1941C417.108 81.5244 421.248 85.0348 426.355 85.0348Z" fill="black"/>
<path opacity="0.1" d="M398.305 95.9906C403.412 95.9906 407.552 92.4802 407.552 88.1499C407.552 83.8196 403.412 80.3092 398.305 80.3092C393.198 80.3092 389.058 83.8196 389.058 88.1499C389.058 92.4802 393.198 95.9906 398.305 95.9906Z" fill="black"/>
<path opacity="0.1" d="M421.623 126.894C426.73 126.894 430.871 123.383 430.871 119.053C430.871 114.723 426.73 111.212 421.623 111.212C416.516 111.212 412.376 114.723 412.376 119.053C412.376 123.383 416.516 126.894 421.623 126.894Z" fill="#E055CC"/>
<path opacity="0.1" d="M389.814 188.832C389.814 188.832 404.197 171.943 381.296 152.301L389.814 188.832Z" fill="#E055CC"/>
<path opacity="0.1" d="M400.96 190.779C400.96 190.779 410.79 171.687 442.384 178.409L400.96 190.779Z" fill="#E055CC"/>
<path d="M454.323 136.632H376.606V149.604H454.323V136.632Z" fill="#0CB9E4"/>
<path d="M416.229 61.4304C407.445 61.4311 398.977 64.205 392.474 69.2115C385.971 74.218 381.9 81.0983 381.054 88.5113C380.207 95.9243 382.647 103.339 387.897 109.31C393.147 115.281 400.831 119.38 409.452 120.809C409.515 120.82 409.58 120.83 409.645 120.84C410.663 121.004 411.696 121.129 412.743 121.215C412.808 121.221 412.872 121.227 412.937 121.231C413.958 121.311 414.99 121.354 416.035 121.359C416.1 121.36 416.164 121.36 416.229 121.36C417.273 121.36 418.306 121.322 419.327 121.246C419.392 121.242 419.456 121.237 419.521 121.231C420.568 121.15 421.6 121.03 422.619 120.871C422.684 120.861 422.749 120.851 422.813 120.84C431.459 119.449 439.183 115.374 444.472 109.41C449.762 103.446 452.237 96.0236 451.414 88.5943C450.591 81.1649 446.528 74.2633 440.021 69.2395C433.513 64.2156 425.03 61.431 416.229 61.4304H416.229Z" fill="#0CB9E4"/>
<path d="M450.039 91.3951C450.038 98.0719 447.29 104.539 442.268 109.682C437.245 114.824 430.264 118.32 422.528 119.565C422.467 119.576 422.405 119.585 422.343 119.595C421.369 119.746 420.381 119.861 419.379 119.939C419.316 119.945 419.255 119.95 419.193 119.953C418.217 120.026 417.229 120.062 416.229 120.063C416.167 120.063 416.106 120.063 416.044 120.062C415.045 120.058 414.057 120.017 413.08 119.939C413.018 119.935 412.956 119.93 412.894 119.924C411.893 119.842 410.905 119.722 409.93 119.565C409.868 119.556 409.806 119.546 409.745 119.536C403.454 118.494 397.642 115.957 392.986 112.222C388.33 108.486 385.022 103.705 383.449 98.4366C381.875 93.1679 382.1 87.6285 384.097 82.4641C386.094 77.2997 389.782 72.723 394.729 69.2676C399.677 65.8122 405.681 63.6205 412.042 62.9479C418.403 62.2753 424.858 63.1496 430.655 65.4688C436.452 67.788 441.352 71.4566 444.784 76.0469C448.216 80.6372 450.039 85.9601 450.039 91.3951V91.3951Z" fill="#3F3D56"/>
<path d="M411.45 115.255C411.168 115.255 410.892 115.184 410.658 115.051C410.423 114.918 410.24 114.73 410.133 114.509C410.025 114.288 409.996 114.045 410.051 113.81C410.106 113.576 410.242 113.361 410.442 113.192C410.641 113.022 410.895 112.907 411.171 112.861C411.448 112.814 411.735 112.838 411.995 112.93C412.256 113.021 412.478 113.176 412.635 113.375C412.792 113.573 412.875 113.807 412.875 114.046C412.875 114.367 412.724 114.674 412.457 114.9C412.19 115.127 411.828 115.255 411.45 115.255V115.255ZM411.45 113.079C411.224 113.079 411.004 113.136 410.816 113.242C410.628 113.348 410.482 113.499 410.396 113.676C410.31 113.853 410.287 114.047 410.331 114.235C410.375 114.422 410.484 114.595 410.643 114.73C410.803 114.865 411.006 114.957 411.227 114.995C411.448 115.032 411.678 115.013 411.886 114.94C412.094 114.866 412.273 114.742 412.398 114.583C412.523 114.424 412.59 114.237 412.59 114.046C412.59 113.79 412.469 113.544 412.256 113.363C412.042 113.181 411.752 113.08 411.45 113.079V113.079Z" fill="#0CB9E4"/>
<path d="M416.514 82.3297H416.229V118.168H416.514V82.3297Z" fill="#0CB9E4"/>
<path d="M416.514 66.9672H416.229V77.54H416.514V66.9672Z" fill="#0CB9E4"/>
<path d="M401.831 78.6431H401.546V114.498H401.831V78.6431Z" fill="#0CB9E4"/>
<path d="M421.931 78.6431H421.646V114.498H421.931V78.6431Z" fill="#0CB9E4"/>
<path d="M406.678 74.6543H406.393V107.936H406.678V74.6543Z" fill="#0CB9E4"/>
<path d="M411.592 65.5766H411.307V111.75H411.592V65.5766Z" fill="#0CB9E4"/>
<path d="M426.065 67.2812H425.78V74.4659H426.065V67.2812Z" fill="#0CB9E4"/>
<path d="M426.065 79.2627H425.78V112.125H426.065V79.2627Z" fill="#0CB9E4"/>
<path d="M430.912 74.1708H430.627V78.4014H430.912V74.1708Z" fill="#0CB9E4"/>
<path d="M430.912 83.1458H430.627V104.16H430.912V83.1458Z" fill="#0CB9E4"/>
<path d="M430.912 108.455H430.627V112.125H430.912V108.455Z" fill="#0CB9E4"/>
<path d="M406.535 111.399C406.253 111.399 405.978 111.329 405.743 111.196C405.509 111.063 405.326 110.874 405.218 110.653C405.11 110.432 405.082 110.189 405.137 109.955C405.192 109.72 405.328 109.505 405.527 109.336C405.727 109.167 405.981 109.052 406.257 109.005C406.534 108.959 406.82 108.983 407.081 109.074C407.341 109.165 407.564 109.32 407.721 109.519C407.877 109.718 407.961 109.952 407.961 110.191C407.96 110.511 407.81 110.818 407.543 111.045C407.276 111.272 406.913 111.399 406.535 111.399Z" fill="#0CB9E4"/>
<path d="M416.229 80.9397C415.947 80.9397 415.672 80.8688 415.437 80.736C415.203 80.6031 415.02 80.4144 414.912 80.1935C414.804 79.9727 414.776 79.7296 414.831 79.4951C414.886 79.2607 415.022 79.0453 415.221 78.8763C415.42 78.7072 415.674 78.5921 415.951 78.5455C416.228 78.4988 416.514 78.5228 416.775 78.6143C417.035 78.7057 417.258 78.8607 417.414 79.0594C417.571 79.2582 417.655 79.4919 417.655 79.731C417.654 80.0514 417.504 80.3586 417.237 80.5852C416.969 80.8118 416.607 80.9393 416.229 80.9397V80.9397ZM416.229 78.764C416.004 78.764 415.783 78.8207 415.595 78.9269C415.408 79.0332 415.262 79.1842 415.175 79.3609C415.089 79.5376 415.067 79.732 415.111 79.9196C415.155 80.1072 415.263 80.2795 415.423 80.4147C415.582 80.5499 415.785 80.642 416.007 80.6793C416.228 80.7167 416.457 80.6975 416.666 80.6243C416.874 80.5511 417.052 80.4272 417.177 80.2682C417.303 80.1092 417.37 79.9222 417.37 79.731C417.369 79.4746 417.249 79.2288 417.035 79.0475C416.821 78.8662 416.531 78.7643 416.229 78.764V78.764Z" fill="#0CB9E4"/>
<path d="M416.372 67.0394C416.09 67.0394 415.814 66.9685 415.58 66.8357C415.345 66.7029 415.162 66.5141 415.055 66.2932C414.947 66.0724 414.918 65.8293 414.973 65.5949C415.028 65.3604 415.164 65.145 415.364 64.976C415.563 64.807 415.817 64.6918 416.094 64.6452C416.37 64.5986 416.657 64.6225 416.917 64.714C417.178 64.8055 417.4 64.9604 417.557 65.1592C417.714 65.3579 417.797 65.5916 417.797 65.8307C417.797 66.1511 417.646 66.4584 417.379 66.685C417.112 66.9116 416.75 67.039 416.372 67.0394ZM416.372 64.8637C416.146 64.8637 415.926 64.9204 415.738 65.0267C415.55 65.1329 415.404 65.2839 415.318 65.4606C415.232 65.6373 415.209 65.8318 415.253 66.0193C415.297 66.2069 415.406 66.3792 415.565 66.5144C415.725 66.6497 415.928 66.7418 416.149 66.7791C416.37 66.8164 416.6 66.7972 416.808 66.724C417.016 66.6509 417.195 66.5269 417.32 66.3679C417.445 66.2089 417.512 66.0219 417.512 65.8307C417.512 65.5743 417.391 65.3285 417.178 65.1472C416.964 64.966 416.674 64.864 416.372 64.8637V64.8637Z" fill="#0CB9E4"/>
<path d="M430.77 107.531C430.488 107.531 430.212 107.461 429.978 107.328C429.743 107.195 429.56 107.006 429.453 106.785C429.345 106.564 429.316 106.321 429.371 106.087C429.426 105.853 429.562 105.637 429.762 105.468C429.961 105.299 430.215 105.184 430.491 105.137C430.768 105.091 431.055 105.115 431.315 105.206C431.576 105.298 431.798 105.452 431.955 105.651C432.111 105.85 432.195 106.084 432.195 106.323C432.195 106.643 432.044 106.95 431.777 107.177C431.51 107.404 431.148 107.531 430.77 107.531V107.531ZM430.77 105.356C430.544 105.356 430.324 105.413 430.136 105.519C429.948 105.625 429.802 105.776 429.716 105.953C429.63 106.129 429.607 106.324 429.651 106.511C429.695 106.699 429.804 106.871 429.963 107.007C430.123 107.142 430.326 107.234 430.547 107.271C430.768 107.308 430.998 107.289 431.206 107.216C431.414 107.143 431.592 107.019 431.718 106.86C431.843 106.701 431.91 106.514 431.91 106.323C431.91 106.066 431.789 105.821 431.576 105.639C431.362 105.458 431.072 105.356 430.77 105.356V105.356Z" fill="#0CB9E4"/>
<path d="M401.689 77.0718C401.407 77.0718 401.131 77.0009 400.897 76.8681C400.662 76.7353 400.479 76.5465 400.372 76.3256C400.264 76.1048 400.235 75.8617 400.29 75.6273C400.345 75.3928 400.481 75.1774 400.681 75.0084C400.88 74.8393 401.134 74.7242 401.41 74.6776C401.687 74.6309 401.974 74.6549 402.234 74.7464C402.495 74.8379 402.717 74.9928 402.874 75.1915C403.03 75.3903 403.114 75.624 403.114 75.8631C403.114 76.1835 402.963 76.4907 402.696 76.7173C402.429 76.9439 402.067 77.0714 401.689 77.0718V77.0718Z" fill="#0CB9E4"/>
<path d="M430.77 82.0275C430.488 82.0275 430.212 81.9566 429.978 81.8238C429.743 81.691 429.56 81.5022 429.453 81.2814C429.345 81.0605 429.316 80.8175 429.371 80.583C429.426 80.3485 429.562 80.1332 429.762 79.9641C429.961 79.7951 430.215 79.68 430.491 79.6333C430.768 79.5867 431.055 79.6106 431.315 79.7021C431.576 79.7936 431.798 79.9485 431.955 80.1473C432.111 80.3461 432.195 80.5798 432.195 80.8188C432.195 81.1393 432.044 81.4465 431.777 81.6731C431.51 81.8997 431.148 82.0271 430.77 82.0275ZM430.77 79.8518C430.544 79.8518 430.324 79.9085 430.136 80.0148C429.948 80.121 429.802 80.2721 429.716 80.4488C429.63 80.6255 429.607 80.8199 429.651 81.0075C429.695 81.195 429.804 81.3673 429.963 81.5026C430.123 81.6378 430.326 81.7299 430.547 81.7672C430.768 81.8045 430.998 81.7854 431.206 81.7122C431.414 81.639 431.592 81.515 431.718 81.356C431.843 81.197 431.91 81.01 431.91 80.8188C431.91 80.5624 431.789 80.3166 431.576 80.1354C431.362 79.9541 431.072 79.8521 430.77 79.8518V79.8518Z" fill="#0CB9E4"/>
<path d="M425.923 77.9179C425.641 77.9179 425.365 77.847 425.131 77.7142C424.896 77.5814 424.714 77.3926 424.606 77.1717C424.498 76.9509 424.47 76.7078 424.525 76.4734C424.58 76.2389 424.715 76.0235 424.915 75.8545C425.114 75.6854 425.368 75.5703 425.645 75.5237C425.921 75.477 426.208 75.501 426.468 75.5925C426.729 75.684 426.951 75.8389 427.108 76.0376C427.265 76.2364 427.348 76.4701 427.348 76.7092C427.348 77.0296 427.198 77.3368 426.93 77.5634C426.663 77.79 426.301 77.9175 425.923 77.9179V77.9179Z" fill="#0CB9E4"/>
<path opacity="0.5" d="M485.43 188.886C485.43 188.886 499.812 171.997 476.912 152.355L485.43 188.886Z" fill="#E055CC"/>
<path opacity="0.5" d="M496.576 189.536C496.576 189.536 506.406 170.444 538 177.166L496.576 189.536Z" fill="#E055CC"/>
</g>
<path d="M92.1704 54.144C92.1704 55.2747 91.8824 56.288 91.3064 57.184C90.7304 58.0587 89.9517 58.752 88.9704 59.264C88.0104 59.7547 86.9544 60 85.8024 60H75.0824V37.28H86.0264C87.093 37.28 88.0104 37.568 88.7784 38.144C89.5464 38.6987 90.1437 39.424 90.5704 40.32C90.997 41.1947 91.2104 42.112 91.2104 43.072C91.2104 44.2027 90.9224 45.248 90.3464 46.208C89.7704 47.168 88.9704 47.8827 87.9464 48.352C89.2264 48.736 90.2504 49.4507 91.0184 50.496C91.7864 51.5413 92.1704 52.7573 92.1704 54.144ZM77.3224 39.232V47.616H85.1304C85.877 47.616 86.5384 47.424 87.1144 47.04C87.7117 46.6347 88.1704 46.1227 88.4904 45.504C88.8317 44.864 89.0024 44.1707 89.0024 43.424C89.0024 42.656 88.8424 41.952 88.5224 41.312C88.2024 40.672 87.765 40.1707 87.2104 39.808C86.6557 39.424 86.0264 39.232 85.3224 39.232H77.3224ZM89.9304 53.76C89.9304 53.0133 89.7597 52.3093 89.4184 51.648C89.077 50.9867 88.6077 50.4533 88.0104 50.048C87.4344 49.6427 86.773 49.44 86.0264 49.44H77.3224V58.048H85.8024C86.5704 58.048 87.2637 57.8453 87.8824 57.44C88.501 57.0347 88.9917 56.512 89.3544 55.872C89.7384 55.2107 89.9304 54.5067 89.9304 53.76ZM103.147 60.32C101.547 60.32 100.118 59.9253 98.8589 59.136C97.6002 58.3467 96.6082 57.2907 95.8829 55.968C95.1575 54.6453 94.7949 53.1947 94.7949 51.616C94.7949 50.0587 95.1469 48.6293 95.8509 47.328C96.5762 46.0267 97.5682 44.992 98.8269 44.224C100.086 43.4347 101.515 43.04 103.115 43.04C104.758 43.04 106.198 43.4347 107.435 44.224C108.672 45.0133 109.632 46.0587 110.315 47.36C111.019 48.64 111.371 50.048 111.371 51.584C111.371 51.9253 111.36 52.2133 111.339 52.448H97.0669C97.1735 53.6427 97.5149 54.7093 98.0909 55.648C98.6669 56.5653 99.4029 57.3013 100.299 57.856C101.195 58.3893 102.176 58.656 103.243 58.656C104.331 58.656 105.355 58.3787 106.315 57.824C107.275 57.2693 107.958 56.544 108.363 55.648L110.251 56.16C109.91 56.9707 109.376 57.696 108.651 58.336C107.947 58.9547 107.126 59.4453 106.187 59.808C105.248 60.1493 104.235 60.32 103.147 60.32ZM97.0029 50.88H109.323C109.238 49.6853 108.907 48.6293 108.331 47.712C107.755 46.7733 107.019 46.048 106.123 45.536C105.227 45.0027 104.235 44.736 103.147 44.736C102.059 44.736 101.067 45.0027 100.171 45.536C99.2749 46.048 98.5389 46.7733 97.9629 47.712C97.4082 48.6293 97.0882 49.6853 97.0029 50.88ZM113.384 55.2C113.384 54.176 113.683 53.2907 114.28 52.544C114.877 51.776 115.699 51.1787 116.744 50.752C117.811 50.3253 119.037 50.112 120.424 50.112C121.235 50.112 122.077 50.1867 122.952 50.336C123.827 50.464 124.605 50.6453 125.288 50.88V49.472C125.288 48.064 124.872 46.944 124.04 46.112C123.208 45.28 122.056 44.864 120.584 44.864C119.709 44.864 118.835 45.0347 117.96 45.376C117.085 45.696 116.179 46.176 115.24 46.816L114.408 45.28C115.496 44.5333 116.563 43.9787 117.608 43.616C118.653 43.232 119.72 43.04 120.808 43.04C122.856 43.04 124.477 43.6267 125.672 44.8C126.867 45.9733 127.464 47.5947 127.464 49.664V57.376C127.464 57.952 127.731 58.2507 128.264 58.272V60C127.795 60.064 127.464 60.0853 127.272 60.064C126.739 60.0427 126.333 59.872 126.056 59.552C125.779 59.232 125.629 58.8907 125.608 58.528L125.576 57.312C124.829 58.272 123.859 59.0187 122.664 59.552C121.469 60.064 120.253 60.32 119.016 60.32C117.928 60.32 116.957 60.096 116.104 59.648C115.251 59.1787 114.579 58.56 114.088 57.792C113.619 57.0027 113.384 56.1387 113.384 55.2ZM124.552 56.48C125.043 55.904 125.288 55.3707 125.288 54.88V52.448C123.816 51.872 122.28 51.584 120.68 51.584C119.123 51.584 117.864 51.8933 116.904 52.512C115.944 53.1307 115.464 53.9733 115.464 55.04C115.464 55.9573 115.816 56.7893 116.52 57.536C117.245 58.2827 118.248 58.656 119.528 58.656C120.573 58.656 121.544 58.4533 122.44 58.048C123.357 57.6427 124.061 57.12 124.552 56.48ZM132.006 53.12V43.328H134.182V52.736C134.182 56.512 135.472 58.4 138.054 58.4C139.334 58.4 140.528 57.984 141.638 57.152C142.768 56.32 143.579 55.2107 144.07 53.824V43.328H146.246V57.376C146.246 57.952 146.502 58.2507 147.014 58.272V60C146.758 60.0427 146.555 60.064 146.406 60.064C146.278 60.064 146.139 60.064 145.99 60.064C145.542 60.0213 145.158 59.8507 144.838 59.552C144.539 59.2533 144.39 58.8907 144.39 58.464L144.326 56.224C143.6 57.5253 142.608 58.5387 141.35 59.264C140.112 59.968 138.768 60.32 137.318 60.32C133.776 60.32 132.006 57.92 132.006 53.12ZM159.166 59.2C158.91 59.3067 158.44 59.4987 157.758 59.776C157.075 60.0533 156.286 60.192 155.39 60.192C154.451 60.192 153.63 59.9253 152.926 59.392C152.222 58.8587 151.87 58.0587 151.87 56.992V45.056H149.566V43.328H151.87V37.696H154.046V43.328H157.886V45.056H154.046V56.384C154.088 57.0027 154.302 57.4613 154.686 57.76C155.091 58.0373 155.55 58.176 156.062 58.176C156.659 58.176 157.192 58.08 157.662 57.888C158.152 57.6747 158.462 57.5253 158.59 57.44L159.166 59.2ZM161.884 39.84V36.64H164.06V39.84H161.884ZM161.884 60V43.328H164.06V60H161.884ZM169.653 60V45.056H167.349V43.328H169.653V42.88C169.653 40.832 170.09 39.232 170.965 38.08C171.861 36.9067 173.056 36.32 174.549 36.32C175.189 36.32 175.818 36.416 176.437 36.608C177.077 36.8 177.621 37.056 178.069 37.376L177.397 38.944C176.757 38.4533 175.946 38.208 174.965 38.208C173.962 38.208 173.184 38.6027 172.629 39.392C172.096 40.1813 171.829 41.3227 171.829 42.816V43.328H176.437V45.056H171.829V60H169.653ZM179.256 53.12V43.328H181.432V52.736C181.432 56.512 182.722 58.4 185.304 58.4C186.584 58.4 187.778 57.984 188.888 57.152C190.018 56.32 190.829 55.2107 191.32 53.824V43.328H193.496V57.376C193.496 57.952 193.752 58.2507 194.264 58.272V60C194.008 60.0427 193.805 60.064 193.656 60.064C193.528 60.064 193.389 60.064 193.24 60.064C192.792 60.0213 192.408 59.8507 192.088 59.552C191.789 59.2533 191.64 58.8907 191.64 58.464L191.576 56.224C190.85 57.5253 189.858 58.5387 188.6 59.264C187.362 59.968 186.018 60.32 184.568 60.32C181.026 60.32 179.256 57.92 179.256 53.12ZM198.512 36.64H200.688V56.224C200.688 57.056 200.826 57.6 201.104 57.856C201.402 58.112 201.776 58.24 202.224 58.24C202.608 58.24 202.992 58.1973 203.376 58.112C203.781 58.0267 204.112 57.9413 204.368 57.856L204.752 59.616C204.346 59.7867 203.845 59.9253 203.248 60.032C202.672 60.1387 202.17 60.192 201.744 60.192C200.762 60.192 199.973 59.904 199.376 59.328C198.8 58.752 198.512 57.9627 198.512 56.96V36.64ZM32.1293 98V75.28H34.3693V96.016H47.4893V98H32.1293ZM48.9935 93.2C48.9935 92.176 49.2922 91.2907 49.8895 90.544C50.4868 89.776 51.3082 89.1787 52.3535 88.752C53.4202 88.3253 54.6468 88.112 56.0335 88.112C56.8442 88.112 57.6868 88.1867 58.5615 88.336C59.4362 88.464 60.2148 88.6453 60.8975 88.88V87.472C60.8975 86.064 60.4815 84.944 59.6495 84.112C58.8175 83.28 57.6655 82.864 56.1935 82.864C55.3188 82.864 54.4442 83.0347 53.5695 83.376C52.6948 83.696 51.7882 84.176 50.8495 84.816L50.0175 83.28C51.1055 82.5333 52.1722 81.9787 53.2175 81.616C54.2628 81.232 55.3295 81.04 56.4175 81.04C58.4655 81.04 60.0868 81.6267 61.2815 82.8C62.4762 83.9733 63.0735 85.5947 63.0735 87.664V95.376C63.0735 95.952 63.3402 96.2507 63.8735 96.272V98C63.4042 98.064 63.0735 98.0853 62.8815 98.064C62.3482 98.0427 61.9428 97.872 61.6655 97.552C61.3882 97.232 61.2388 96.8907 61.2175 96.528L61.1855 95.312C60.4388 96.272 59.4682 97.0187 58.2735 97.552C57.0788 98.064 55.8628 98.32 54.6255 98.32C53.5375 98.32 52.5668 98.096 51.7135 97.648C50.8602 97.1787 50.1882 96.56 49.6975 95.792C49.2282 95.0027 48.9935 94.1387 48.9935 93.2ZM60.1615 94.48C60.6522 93.904 60.8975 93.3707 60.8975 92.88V90.448C59.4255 89.872 57.8895 89.584 56.2895 89.584C54.7322 89.584 53.4735 89.8933 52.5135 90.512C51.5535 91.1307 51.0735 91.9733 51.0735 93.04C51.0735 93.9573 51.4255 94.7893 52.1295 95.536C52.8548 96.2827 53.8575 96.656 55.1375 96.656C56.1828 96.656 57.1535 96.4533 58.0495 96.048C58.9668 95.6427 59.6708 95.12 60.1615 94.48ZM81.791 98H79.615V88.688C79.615 86.7253 79.3163 85.296 78.719 84.4C78.143 83.4827 77.247 83.024 76.031 83.024C75.1777 83.024 74.335 83.2373 73.503 83.664C72.671 84.0693 71.935 84.6347 71.295 85.36C70.6763 86.064 70.2283 86.8747 69.951 87.792V98H67.775V81.328H69.759V85.104C70.4203 83.888 71.391 82.9067 72.671 82.16C73.951 81.4133 75.3377 81.04 76.831 81.04C78.0683 81.04 79.0497 81.3387 79.775 81.936C80.5003 82.512 81.0123 83.344 81.311 84.432C81.631 85.4987 81.791 86.768 81.791 88.24V98ZM85.3113 89.712C85.3113 88.1333 85.6313 86.6933 86.2713 85.392C86.9326 84.0693 87.8393 83.0133 88.9913 82.224C90.1433 81.4347 91.4553 81.04 92.9273 81.04C94.3139 81.04 95.5513 81.4133 96.6393 82.16C97.7486 82.8853 98.6126 83.7707 99.2313 84.816V74.64H101.407V95.376C101.407 95.952 101.663 96.2507 102.175 96.272V98C101.749 98.064 101.418 98.0853 101.183 98.064C100.714 98.0427 100.309 97.872 99.9673 97.552C99.6473 97.2107 99.4873 96.8267 99.4873 96.4V94.768C98.8259 95.856 97.9299 96.72 96.7993 97.36C95.6686 98 94.4953 98.32 93.2793 98.32C92.1273 98.32 91.0606 98.0853 90.0793 97.616C89.0979 97.1467 88.2446 96.5067 87.5193 95.696C86.8153 94.8853 86.2713 93.968 85.8873 92.944C85.5033 91.8987 85.3113 90.8213 85.3113 89.712ZM99.2313 92.272V87.12C98.9539 86.352 98.5059 85.6587 97.8873 85.04C97.2686 84.4 96.5646 83.8987 95.7753 83.536C95.0073 83.152 94.2393 82.96 93.4713 82.96C92.2766 82.96 91.2313 83.2907 90.3353 83.952C89.4606 84.592 88.7779 85.4347 88.2873 86.48C87.7966 87.504 87.5513 88.5813 87.5513 89.712C87.5513 90.9067 87.8179 92.016 88.3513 93.04C88.9059 94.064 89.6526 94.8853 90.5913 95.504C91.5299 96.1013 92.5859 96.4 93.7593 96.4C94.4846 96.4 95.2419 96.2187 96.0313 95.856C96.8419 95.472 97.5459 94.9707 98.1433 94.352C98.7619 93.7333 99.1246 93.04 99.2313 92.272ZM106.338 77.84V74.64H108.514V77.84H106.338ZM106.338 98V81.328H108.514V98H106.338ZM127.322 98H125.146V88.688C125.146 86.7253 124.848 85.296 124.25 84.4C123.674 83.4827 122.778 83.024 121.562 83.024C120.709 83.024 119.866 83.2373 119.034 83.664C118.202 84.0693 117.466 84.6347 116.826 85.36C116.208 86.064 115.76 86.8747 115.482 87.792V98H113.306V81.328H115.29V85.104C115.952 83.888 116.922 82.9067 118.202 82.16C119.482 81.4133 120.869 81.04 122.362 81.04C123.6 81.04 124.581 81.3387 125.306 81.936C126.032 82.512 126.544 83.344 126.842 84.432C127.162 85.4987 127.322 86.768 127.322 88.24V98ZM138.651 98.224C137.499 98.224 136.443 97.9893 135.483 97.52C134.544 97.0507 133.723 96.4213 133.019 95.632C132.336 94.8213 131.803 93.904 131.419 92.88C131.035 91.856 130.843 90.8 130.843 89.712C130.843 88.1547 131.173 86.7253 131.835 85.424C132.496 84.1013 133.403 83.0453 134.555 82.256C135.728 81.4453 137.072 81.04 138.587 81.04C140.016 81.04 141.253 81.4027 142.299 82.128C143.365 82.8533 144.261 83.7493 144.987 84.816V81.328H146.939V98.064C146.939 99.6213 146.565 100.923 145.819 101.968C145.072 103.013 144.08 103.803 142.843 104.336C141.605 104.869 140.251 105.136 138.779 105.136C136.859 105.136 135.312 104.795 134.139 104.112C132.987 103.429 132.037 102.512 131.291 101.36L132.635 100.304C133.296 101.349 134.171 102.128 135.259 102.64C136.368 103.152 137.541 103.408 138.779 103.408C139.867 103.408 140.859 103.205 141.755 102.8C142.672 102.416 143.397 101.829 143.931 101.04C144.485 100.251 144.763 99.2587 144.763 98.064V94.768C144.123 95.8133 143.248 96.656 142.139 97.296C141.029 97.9147 139.867 98.224 138.651 98.224ZM139.259 96.4C140.133 96.4 140.965 96.1973 141.755 95.792C142.544 95.3867 143.205 94.8747 143.739 94.256C144.293 93.616 144.635 92.9547 144.763 92.272V87.12C144.443 86.3093 143.984 85.5947 143.387 84.976C142.789 84.336 142.107 83.8453 141.339 83.504C140.571 83.1413 139.792 82.96 139.003 82.96C137.765 82.96 136.699 83.3013 135.803 83.984C134.928 84.6453 134.245 85.4987 133.755 86.544C133.285 87.568 133.051 88.6347 133.051 89.744C133.051 90.9387 133.328 92.048 133.883 93.072C134.437 94.0747 135.184 94.8853 136.123 95.504C137.061 96.1013 138.107 96.4 139.259 96.4ZM160.348 98V75.28H169.756C170.737 75.28 171.633 75.4827 172.444 75.888C173.276 76.2933 173.991 76.848 174.588 77.552C175.207 78.2347 175.676 79.0027 175.996 79.856C176.337 80.688 176.508 81.5413 176.508 82.416C176.508 83.6533 176.231 84.8267 175.676 85.936C175.121 87.024 174.353 87.9093 173.372 88.592C172.391 89.2747 171.249 89.616 169.948 89.616H162.588V98H160.348ZM162.588 87.632H169.852C170.748 87.632 171.527 87.3867 172.188 86.896C172.849 86.4053 173.361 85.7653 173.724 84.976C174.087 84.1867 174.268 83.3333 174.268 82.416C174.268 81.4773 174.055 80.624 173.628 79.856C173.201 79.0667 172.636 78.4373 171.932 77.968C171.249 77.4987 170.492 77.264 169.66 77.264H162.588V87.632ZM178.275 93.2C178.275 92.176 178.573 91.2907 179.171 90.544C179.768 89.776 180.589 89.1787 181.635 88.752C182.701 88.3253 183.928 88.112 185.315 88.112C186.125 88.112 186.968 88.1867 187.843 88.336C188.717 88.464 189.496 88.6453 190.179 88.88V87.472C190.179 86.064 189.763 84.944 188.931 84.112C188.099 83.28 186.947 82.864 185.475 82.864C184.6 82.864 183.725 83.0347 182.851 83.376C181.976 83.696 181.069 84.176 180.131 84.816L179.299 83.28C180.387 82.5333 181.453 81.9787 182.499 81.616C183.544 81.232 184.611 81.04 185.699 81.04C187.747 81.04 189.368 81.6267 190.563 82.8C191.757 83.9733 192.355 85.5947 192.355 87.664V95.376C192.355 95.952 192.621 96.2507 193.155 96.272V98C192.685 98.064 192.355 98.0853 192.163 98.064C191.629 98.0427 191.224 97.872 190.947 97.552C190.669 97.232 190.52 96.8907 190.499 96.528L190.467 95.312C189.72 96.272 188.749 97.0187 187.555 97.552C186.36 98.064 185.144 98.32 183.907 98.32C182.819 98.32 181.848 98.096 180.995 97.648C180.141 97.1787 179.469 96.56 178.979 95.792C178.509 95.0027 178.275 94.1387 178.275 93.2ZM189.443 94.48C189.933 93.904 190.179 93.3707 190.179 92.88V90.448C188.707 89.872 187.171 89.584 185.571 89.584C184.013 89.584 182.755 89.8933 181.795 90.512C180.835 91.1307 180.355 91.9733 180.355 93.04C180.355 93.9573 180.707 94.7893 181.411 95.536C182.136 96.2827 183.139 96.656 184.419 96.656C185.464 96.656 186.435 96.4533 187.331 96.048C188.248 95.6427 188.952 95.12 189.443 94.48ZM203.744 98.224C202.592 98.224 201.536 97.9893 200.576 97.52C199.638 97.0507 198.816 96.4213 198.112 95.632C197.43 94.8213 196.896 93.904 196.512 92.88C196.128 91.856 195.936 90.8 195.936 89.712C195.936 88.1547 196.267 86.7253 196.928 85.424C197.59 84.1013 198.496 83.0453 199.648 82.256C200.822 81.4453 202.166 81.04 203.68 81.04C205.11 81.04 206.347 81.4027 207.392 82.128C208.459 82.8533 209.355 83.7493 210.08 84.816V81.328H212.032V98.064C212.032 99.6213 211.659 100.923 210.912 101.968C210.166 103.013 209.174 103.803 207.936 104.336C206.699 104.869 205.344 105.136 203.872 105.136C201.952 105.136 200.406 104.795 199.232 104.112C198.08 103.429 197.131 102.512 196.384 101.36L197.728 100.304C198.39 101.349 199.264 102.128 200.352 102.64C201.462 103.152 202.635 103.408 203.872 103.408C204.96 103.408 205.952 103.205 206.848 102.8C207.766 102.416 208.491 101.829 209.024 101.04C209.579 100.251 209.856 99.2587 209.856 98.064V94.768C209.216 95.8133 208.342 96.656 207.232 97.296C206.123 97.9147 204.96 98.224 203.744 98.224ZM204.352 96.4C205.227 96.4 206.059 96.1973 206.848 95.792C207.638 95.3867 208.299 94.8747 208.832 94.256C209.387 93.616 209.728 92.9547 209.856 92.272V87.12C209.536 86.3093 209.078 85.5947 208.48 84.976C207.883 84.336 207.2 83.8453 206.432 83.504C205.664 83.1413 204.886 82.96 204.096 82.96C202.859 82.96 201.792 83.3013 200.896 83.984C200.022 84.6453 199.339 85.4987 198.848 86.544C198.379 87.568 198.144 88.6347 198.144 89.744C198.144 90.9387 198.422 92.048 198.976 93.072C199.531 94.0747 200.278 94.8853 201.216 95.504C202.155 96.1013 203.2 96.4 204.352 96.4ZM224.038 98.32C222.438 98.32 221.008 97.9253 219.75 97.136C218.491 96.3467 217.499 95.2907 216.774 93.968C216.048 92.6453 215.686 91.1947 215.686 89.616C215.686 88.0587 216.038 86.6293 216.742 85.328C217.467 84.0267 218.459 82.992 219.718 82.224C220.976 81.4347 222.406 81.04 224.006 81.04C225.648 81.04 227.088 81.4347 228.326 82.224C229.563 83.0133 230.523 84.0587 231.206 85.36C231.91 86.64 232.262 88.048 232.262 89.584C232.262 89.9253 232.251 90.2133 232.23 90.448H217.958C218.064 91.6427 218.406 92.7093 218.982 93.648C219.558 94.5653 220.294 95.3013 221.19 95.856C222.086 96.3893 223.067 96.656 224.134 96.656C225.222 96.656 226.246 96.3787 227.206 95.824C228.166 95.2693 228.848 94.544 229.254 93.648L231.142 94.16C230.8 94.9707 230.267 95.696 229.542 96.336C228.838 96.9547 228.016 97.4453 227.078 97.808C226.139 98.1493 225.126 98.32 224.038 98.32ZM217.894 88.88H230.214C230.128 87.6853 229.798 86.6293 229.222 85.712C228.646 84.7733 227.91 84.048 227.014 83.536C226.118 83.0027 225.126 82.736 224.038 82.736C222.95 82.736 221.958 83.0027 221.062 83.536C220.166 84.048 219.43 84.7733 218.854 85.712C218.299 86.6293 217.979 87.6853 217.894 88.88ZM235.299 90.288V88.272H244.643V90.288H235.299ZM47.4604 136V117.504L39.2364 131.872H37.8284L29.5724 117.504V136H27.3324V113.28H29.6364L38.5004 128.832L47.4284 113.28H49.7004V136H47.4604ZM61.8009 136.32C60.2009 136.32 58.7715 135.925 57.5129 135.136C56.2755 134.347 55.3049 133.301 54.6009 132C53.8969 130.677 53.5449 129.248 53.5449 127.712C53.5449 126.155 53.8969 124.725 54.6009 123.424C55.3262 122.101 56.3075 121.045 57.5449 120.256C58.8035 119.445 60.2222 119.04 61.8009 119.04C63.4009 119.04 64.8195 119.445 66.0569 120.256C67.3155 121.045 68.2969 122.101 69.0009 123.424C69.7262 124.725 70.0889 126.155 70.0889 127.712C70.0889 129.248 69.7369 130.677 69.0329 132C68.3289 133.301 67.3475 134.347 66.0889 135.136C64.8515 135.925 63.4222 136.32 61.8009 136.32ZM55.7529 127.744C55.7529 128.981 56.0195 130.112 56.5529 131.136C57.1075 132.139 57.8435 132.939 58.7609 133.536C59.6782 134.112 60.6915 134.4 61.8009 134.4C62.9102 134.4 63.9235 134.101 64.8409 133.504C65.7582 132.907 66.4942 132.096 67.0489 131.072C67.6035 130.048 67.8809 128.917 67.8809 127.68C67.8809 126.443 67.6035 125.312 67.0489 124.288C66.4942 123.264 65.7582 122.453 64.8409 121.856C63.9235 121.259 62.9102 120.96 61.8009 120.96C60.7129 120.96 59.7102 121.269 58.7929 121.888C57.8755 122.485 57.1395 123.296 56.5849 124.32C56.0302 125.344 55.7529 126.485 55.7529 127.744ZM81.8881 136.32C80.5868 136.32 79.3815 135.989 78.2721 135.328C77.1628 134.645 76.2988 133.792 75.6801 132.768V136H73.7281V112.64H75.9041V122.816C76.6508 121.685 77.5468 120.779 78.5921 120.096C79.6375 119.392 80.8535 119.04 82.2401 119.04C83.4135 119.04 84.4588 119.285 85.3761 119.776C86.3148 120.267 87.1148 120.928 87.7761 121.76C88.4375 122.571 88.9388 123.499 89.2801 124.544C89.6215 125.568 89.7921 126.624 89.7921 127.712C89.7921 129.269 89.4401 130.699 88.7361 132C88.0535 133.301 87.1148 134.347 85.9201 135.136C84.7255 135.925 83.3815 136.32 81.8881 136.32ZM81.3761 134.4C82.5921 134.4 83.6588 134.08 84.5761 133.44C85.5148 132.8 86.2508 131.979 86.7841 130.976C87.3175 129.952 87.5841 128.864 87.5841 127.712C87.5841 126.539 87.3281 125.44 86.8161 124.416C86.3255 123.392 85.6321 122.56 84.7361 121.92C83.8401 121.28 82.8055 120.96 81.6321 120.96C80.3308 120.96 79.1788 121.376 78.1761 122.208C77.1948 123.04 76.4375 124.011 75.9041 125.12V130.304C76.0108 131.072 76.3628 131.765 76.9601 132.384C77.5575 133.003 78.2615 133.493 79.0721 133.856C79.8828 134.219 80.6508 134.4 81.3761 134.4ZM93.4781 115.84V112.64H95.6541V115.84H93.4781ZM93.4781 136V119.328H95.6541V136H93.4781ZM100.543 112.64H102.719V132.224C102.719 133.056 102.858 133.6 103.135 133.856C103.434 134.112 103.807 134.24 104.255 134.24C104.639 134.24 105.023 134.197 105.407 134.112C105.812 134.027 106.143 133.941 106.399 133.856L106.783 135.616C106.378 135.787 105.876 135.925 105.279 136.032C104.703 136.139 104.202 136.192 103.775 136.192C102.794 136.192 102.004 135.904 101.407 135.328C100.831 134.752 100.543 133.963 100.543 132.96V112.64ZM116.366 136.32C114.766 136.32 113.336 135.925 112.078 135.136C110.819 134.347 109.827 133.291 109.102 131.968C108.376 130.645 108.014 129.195 108.014 127.616C108.014 126.059 108.366 124.629 109.07 123.328C109.795 122.027 110.787 120.992 112.046 120.224C113.304 119.435 114.734 119.04 116.334 119.04C117.976 119.04 119.416 119.435 120.654 120.224C121.891 121.013 122.851 122.059 123.534 123.36C124.238 124.64 124.59 126.048 124.59 127.584C124.59 127.925 124.579 128.213 124.558 128.448H110.286C110.392 129.643 110.734 130.709 111.31 131.648C111.886 132.565 112.622 133.301 113.518 133.856C114.414 134.389 115.395 134.656 116.462 134.656C117.55 134.656 118.574 134.379 119.534 133.824C120.494 133.269 121.176 132.544 121.582 131.648L123.47 132.16C123.128 132.971 122.595 133.696 121.87 134.336C121.166 134.955 120.344 135.445 119.406 135.808C118.467 136.149 117.454 136.32 116.366 136.32ZM110.222 126.88H122.542C122.456 125.685 122.126 124.629 121.55 123.712C120.974 122.773 120.238 122.048 119.342 121.536C118.446 121.003 117.454 120.736 116.366 120.736C115.278 120.736 114.286 121.003 113.39 121.536C112.494 122.048 111.758 122.773 111.182 123.712C110.627 124.629 110.307 125.685 110.222 126.88ZM136.551 136V113.28H151.463V115.264H138.791V123.616H149.479V125.472H138.791V136H136.551ZM162.048 121.248C160.597 121.291 159.317 121.696 158.208 122.464C157.12 123.232 156.352 124.288 155.904 125.632V136H153.728V119.328H155.776V123.328C156.352 122.155 157.109 121.205 158.048 120.48C159.008 119.755 160.021 119.349 161.088 119.264C161.301 119.243 161.483 119.232 161.632 119.232C161.781 119.232 161.92 119.243 162.048 119.264V121.248ZM164.947 115.84V112.64H167.123V115.84H164.947ZM164.947 136V119.328H167.123V136H164.947ZM179.116 136.32C177.516 136.32 176.086 135.925 174.828 135.136C173.569 134.347 172.577 133.291 171.852 131.968C171.126 130.645 170.764 129.195 170.764 127.616C170.764 126.059 171.116 124.629 171.82 123.328C172.545 122.027 173.537 120.992 174.796 120.224C176.054 119.435 177.484 119.04 179.084 119.04C180.726 119.04 182.166 119.435 183.404 120.224C184.641 121.013 185.601 122.059 186.284 123.36C186.988 124.64 187.34 126.048 187.34 127.584C187.34 127.925 187.329 128.213 187.308 128.448H173.036C173.142 129.643 173.484 130.709 174.06 131.648C174.636 132.565 175.372 133.301 176.268 133.856C177.164 134.389 178.145 134.656 179.212 134.656C180.3 134.656 181.324 134.379 182.284 133.824C183.244 133.269 183.926 132.544 184.332 131.648L186.22 132.16C185.878 132.971 185.345 133.696 184.62 134.336C183.916 134.955 183.094 135.445 182.156 135.808C181.217 136.149 180.204 136.32 179.116 136.32ZM172.972 126.88H185.292C185.206 125.685 184.876 124.629 184.3 123.712C183.724 122.773 182.988 122.048 182.092 121.536C181.196 121.003 180.204 120.736 179.116 120.736C178.028 120.736 177.036 121.003 176.14 121.536C175.244 122.048 174.508 122.773 173.932 123.712C173.377 124.629 173.057 125.685 172.972 126.88ZM204.713 136H202.537V126.688C202.537 124.725 202.238 123.296 201.641 122.4C201.065 121.483 200.169 121.024 198.953 121.024C198.1 121.024 197.257 121.237 196.425 121.664C195.593 122.069 194.857 122.635 194.217 123.36C193.598 124.064 193.15 124.875 192.873 125.792V136H190.697V119.328H192.681V123.104C193.342 121.888 194.313 120.907 195.593 120.16C196.873 119.413 198.26 119.04 199.753 119.04C200.99 119.04 201.972 119.339 202.697 119.936C203.422 120.512 203.934 121.344 204.233 122.432C204.553 123.499 204.713 124.768 204.713 126.24V136ZM208.233 127.712C208.233 126.133 208.553 124.693 209.193 123.392C209.854 122.069 210.761 121.013 211.913 120.224C213.065 119.435 214.377 119.04 215.849 119.04C217.236 119.04 218.473 119.413 219.561 120.16C220.67 120.885 221.534 121.771 222.153 122.816V112.64H224.329V133.376C224.329 133.952 224.585 134.251 225.097 134.272V136C224.67 136.064 224.34 136.085 224.105 136.064C223.636 136.043 223.23 135.872 222.889 135.552C222.569 135.211 222.409 134.827 222.409 134.4V132.768C221.748 133.856 220.852 134.72 219.721 135.36C218.59 136 217.417 136.32 216.201 136.32C215.049 136.32 213.982 136.085 213.001 135.616C212.02 135.147 211.166 134.507 210.441 133.696C209.737 132.885 209.193 131.968 208.809 130.944C208.425 129.899 208.233 128.821 208.233 127.712ZM222.153 130.272V125.12C221.876 124.352 221.428 123.659 220.809 123.04C220.19 122.4 219.486 121.899 218.697 121.536C217.929 121.152 217.161 120.96 216.393 120.96C215.198 120.96 214.153 121.291 213.257 121.952C212.382 122.592 211.7 123.435 211.209 124.48C210.718 125.504 210.473 126.581 210.473 127.712C210.473 128.907 210.74 130.016 211.273 131.04C211.828 132.064 212.574 132.885 213.513 133.504C214.452 134.101 215.508 134.4 216.681 134.4C217.406 134.4 218.164 134.219 218.953 133.856C219.764 133.472 220.468 132.971 221.065 132.352C221.684 131.733 222.046 131.04 222.153 130.272ZM229.355 112.64H231.531V132.224C231.531 133.056 231.67 133.6 231.947 133.856C232.246 134.112 232.619 134.24 233.067 134.24C233.451 134.24 233.835 134.197 234.219 134.112C234.625 134.027 234.955 133.941 235.211 133.856L235.595 135.616C235.19 135.787 234.689 135.925 234.091 136.032C233.515 136.139 233.014 136.192 232.587 136.192C231.606 136.192 230.817 135.904 230.219 135.328C229.643 134.752 229.355 133.963 229.355 132.96V112.64ZM238.407 141.12C238.706 141.141 238.994 141.152 239.271 141.152C239.548 141.173 239.751 141.163 239.879 141.12C240.135 141.099 240.37 140.949 240.583 140.672C240.818 140.416 241.095 139.925 241.415 139.2C241.756 138.496 242.215 137.429 242.791 136L235.527 119.328H237.831L243.943 133.76L249.575 119.328H251.751L243.111 140.832C242.876 141.451 242.482 141.984 241.927 142.432C241.372 142.88 240.636 143.115 239.719 143.136C239.527 143.157 239.324 143.157 239.111 143.136C238.898 143.136 238.663 143.115 238.407 143.072V141.12ZM89.5824 174V151.28H97.2944C99.705 151.28 101.71 151.792 103.31 152.816C104.932 153.819 106.148 155.184 106.958 156.912C107.769 158.619 108.174 160.517 108.174 162.608C108.174 164.912 107.726 166.917 106.83 168.624C105.934 170.331 104.676 171.653 103.054 172.592C101.433 173.531 99.513 174 97.2944 174H89.5824ZM105.934 162.608C105.934 160.795 105.593 159.184 104.91 157.776C104.249 156.368 103.268 155.269 101.966 154.48C100.686 153.669 99.129 153.264 97.2944 153.264H91.8224V172.016H97.2944C99.1717 172.016 100.75 171.6 102.03 170.768C103.31 169.936 104.281 168.816 104.942 167.408C105.604 166 105.934 164.4 105.934 162.608ZM119.209 174.32C117.609 174.32 116.18 173.925 114.921 173.136C113.663 172.347 112.671 171.291 111.945 169.968C111.22 168.645 110.857 167.195 110.857 165.616C110.857 164.059 111.209 162.629 111.913 161.328C112.639 160.027 113.631 158.992 114.889 158.224C116.148 157.435 117.577 157.04 119.177 157.04C120.82 157.04 122.26 157.435 123.497 158.224C124.735 159.013 125.695 160.059 126.377 161.36C127.081 162.64 127.433 164.048 127.433 165.584C127.433 165.925 127.423 166.213 127.401 166.448H113.129C113.236 167.643 113.577 168.709 114.153 169.648C114.729 170.565 115.465 171.301 116.361 171.856C117.257 172.389 118.239 172.656 119.305 172.656C120.393 172.656 121.417 172.379 122.377 171.824C123.337 171.269 124.02 170.544 124.425 169.648L126.313 170.16C125.972 170.971 125.439 171.696 124.713 172.336C124.009 172.955 123.188 173.445 122.249 173.808C121.311 174.149 120.297 174.32 119.209 174.32ZM113.065 164.88H125.385C125.3 163.685 124.969 162.629 124.393 161.712C123.817 160.773 123.081 160.048 122.185 159.536C121.289 159.003 120.297 158.736 119.209 158.736C118.121 158.736 117.129 159.003 116.233 159.536C115.337 160.048 114.601 160.773 114.025 161.712C113.471 162.629 113.151 163.685 113.065 164.88ZM136.263 174.32C134.897 174.32 133.628 174.096 132.455 173.648C131.303 173.179 130.289 172.496 129.415 171.6L130.311 170.064C131.249 170.939 132.188 171.579 133.127 171.984C134.087 172.368 135.1 172.56 136.167 172.56C137.447 172.56 138.492 172.304 139.303 171.792C140.135 171.259 140.551 170.501 140.551 169.52C140.551 168.859 140.348 168.357 139.943 168.016C139.559 167.653 138.993 167.365 138.247 167.152C137.521 166.939 136.647 166.693 135.623 166.416C134.471 166.096 133.5 165.765 132.711 165.424C131.943 165.061 131.356 164.613 130.951 164.08C130.567 163.525 130.375 162.811 130.375 161.936C130.375 160.869 130.641 159.973 131.175 159.248C131.729 158.523 132.476 157.979 133.415 157.616C134.375 157.232 135.441 157.04 136.615 157.04C137.895 157.04 139.025 157.243 140.007 157.648C140.988 158.053 141.788 158.619 142.407 159.344L141.351 160.816C140.775 160.133 140.06 159.632 139.207 159.312C138.375 158.971 137.468 158.8 136.487 158.8C135.804 158.8 135.153 158.896 134.535 159.088C133.916 159.259 133.404 159.557 132.999 159.984C132.615 160.389 132.423 160.955 132.423 161.68C132.423 162.576 132.753 163.195 133.415 163.536C134.076 163.877 135.079 164.24 136.423 164.624C137.681 164.965 138.78 165.307 139.719 165.648C140.657 165.989 141.383 166.448 141.895 167.024C142.407 167.579 142.663 168.357 142.663 169.36C142.663 170.917 142.076 172.133 140.903 173.008C139.729 173.883 138.183 174.32 136.263 174.32ZM146.259 153.84V150.64H148.435V153.84H146.259ZM146.259 174V157.328H148.435V174H146.259ZM159.916 174.224C158.764 174.224 157.708 173.989 156.748 173.52C155.809 173.051 154.988 172.421 154.284 171.632C153.601 170.821 153.068 169.904 152.684 168.88C152.3 167.856 152.108 166.8 152.108 165.712C152.108 164.155 152.439 162.725 153.1 161.424C153.761 160.101 154.668 159.045 155.82 158.256C156.993 157.445 158.337 157.04 159.852 157.04C161.281 157.04 162.519 157.403 163.564 158.128C164.631 158.853 165.527 159.749 166.252 160.816V157.328H168.204V174.064C168.204 175.621 167.831 176.923 167.084 177.968C166.337 179.013 165.345 179.803 164.108 180.336C162.871 180.869 161.516 181.136 160.044 181.136C158.124 181.136 156.577 180.795 155.404 180.112C154.252 179.429 153.303 178.512 152.556 177.36L153.9 176.304C154.561 177.349 155.436 178.128 156.524 178.64C157.633 179.152 158.807 179.408 160.044 179.408C161.132 179.408 162.124 179.205 163.02 178.8C163.937 178.416 164.663 177.829 165.196 177.04C165.751 176.251 166.028 175.259 166.028 174.064V170.768C165.388 171.813 164.513 172.656 163.404 173.296C162.295 173.915 161.132 174.224 159.916 174.224ZM160.524 172.4C161.399 172.4 162.231 172.197 163.02 171.792C163.809 171.387 164.471 170.875 165.004 170.256C165.559 169.616 165.9 168.955 166.028 168.272V163.12C165.708 162.309 165.249 161.595 164.652 160.976C164.055 160.336 163.372 159.845 162.604 159.504C161.836 159.141 161.057 158.96 160.268 158.96C159.031 158.96 157.964 159.301 157.068 159.984C156.193 160.645 155.511 161.499 155.02 162.544C154.551 163.568 154.316 164.635 154.316 165.744C154.316 166.939 154.593 168.048 155.148 169.072C155.703 170.075 156.449 170.885 157.388 171.504C158.327 172.101 159.372 172.4 160.524 172.4ZM187.025 174H184.849V164.688C184.849 162.725 184.551 161.296 183.953 160.4C183.377 159.483 182.481 159.024 181.265 159.024C180.412 159.024 179.569 159.237 178.737 159.664C177.905 160.069 177.169 160.635 176.529 161.36C175.911 162.064 175.463 162.875 175.185 163.792V174H173.009V157.328H174.993V161.104C175.655 159.888 176.625 158.907 177.905 158.16C179.185 157.413 180.572 157.04 182.065 157.04C183.303 157.04 184.284 157.339 185.009 157.936C185.735 158.512 186.247 159.344 186.545 160.432C186.865 161.499 187.025 162.768 187.025 164.24V174Z" fill="white"/>
</g>
<defs>
<linearGradient id="paint0_linear" x1="5.00001" y1="-1.91529e-05" x2="538" y2="213" gradientUnits="userSpaceOnUse">
<stop stop-color="#0CB9E4"/>
<stop offset="1" stop-color="#E055CC"/>
</linearGradient>
<clipPath id="clip0">
<rect width="538" height="218" fill="white"/>
</clipPath>
<clipPath id="clip1">
<rect width="300" height="200" fill="white" transform="translate(238 9)"/>
</clipPath>
</defs>
</svg>
