<svg width="400" height="300" viewBox="0 0 400 300" fill="none" xmlns="http://www.w3.org/2000/svg">
<rect width="400" height="300" rx="12" fill="url(#paint0_linear)"/>
<path d="M147.934 72V40.76H161.134C162.483 40.76 163.715 41.0387 164.83 41.596C165.974 42.1533 166.956 42.916 167.778 43.884C168.599 44.8227 169.23 45.8787 169.67 47.052C170.139 48.196 170.374 49.3693 170.374 50.572C170.374 52.0973 170.08 53.52 169.494 54.84C168.936 56.16 168.13 57.2747 167.074 58.184C166.018 59.0933 164.8 59.68 163.422 59.944L171.078 72H167.602L160.254 60.472H151.014V72H147.934ZM151.014 57.744H161.222C162.454 57.744 163.524 57.4067 164.434 56.732C165.343 56.028 166.047 55.1333 166.546 54.048C167.044 52.9627 167.294 51.804 167.294 50.572C167.294 49.3107 167 48.152 166.414 47.096C165.856 46.0107 165.094 45.1453 164.126 44.5C163.158 43.8253 162.102 43.488 160.958 43.488H151.014V57.744ZM185.276 72.44C183.076 72.44 181.111 71.8973 179.38 70.812C177.65 69.7267 176.286 68.2747 175.288 66.456C174.291 64.6373 173.792 62.6427 173.792 60.472C173.792 58.3307 174.276 56.3653 175.244 54.576C176.242 52.7867 177.606 51.364 179.336 50.308C181.067 49.2227 183.032 48.68 185.232 48.68C187.491 48.68 189.471 49.2227 191.172 50.308C192.874 51.3933 194.194 52.8307 195.132 54.62C196.1 56.38 196.584 58.316 196.584 60.428C196.584 60.8973 196.57 61.2933 196.54 61.616H176.916C177.063 63.2587 177.532 64.7253 178.324 66.016C179.116 67.2773 180.128 68.2893 181.36 69.052C182.592 69.7853 183.942 70.152 185.408 70.152C186.904 70.152 188.312 69.7707 189.632 69.008C190.952 68.2453 191.891 67.248 192.448 66.016L195.044 66.72C194.575 67.8347 193.842 68.832 192.844 69.712C191.876 70.5627 190.747 71.2373 189.456 71.736C188.166 72.2053 186.772 72.44 185.276 72.44ZM176.828 59.46H193.768C193.651 57.8173 193.196 56.3653 192.404 55.104C191.612 53.8133 190.6 52.816 189.368 52.112C188.136 51.3787 186.772 51.012 185.276 51.012C183.78 51.012 182.416 51.3787 181.184 52.112C179.952 52.816 178.94 53.8133 178.148 55.104C177.386 56.3653 176.946 57.8173 176.828 59.46ZM211.1 72.44C208.9 72.44 206.935 71.8973 205.204 70.812C203.474 69.7267 202.11 68.2747 201.112 66.456C200.115 64.6373 199.616 62.6427 199.616 60.472C199.616 58.3307 200.1 56.3653 201.068 54.576C202.066 52.7867 203.43 51.364 205.16 50.308C206.891 49.2227 208.856 48.68 211.056 48.68C213.315 48.68 215.295 49.2227 216.996 50.308C218.698 51.3933 220.018 52.8307 220.956 54.62C221.924 56.38 222.408 58.316 222.408 60.428C222.408 60.8973 222.394 61.2933 222.364 61.616H202.74C202.887 63.2587 203.356 64.7253 204.148 66.016C204.94 67.2773 205.952 68.2893 207.184 69.052C208.416 69.7853 209.766 70.152 211.232 70.152C212.728 70.152 214.136 69.7707 215.456 69.008C216.776 68.2453 217.715 67.248 218.272 66.016L220.868 66.72C220.399 67.8347 219.666 68.832 218.668 69.712C217.7 70.5627 216.571 71.2373 215.28 71.736C213.99 72.2053 212.596 72.44 211.1 72.44ZM202.652 59.46H219.592C219.475 57.8173 219.02 56.3653 218.228 55.104C217.436 53.8133 216.424 52.816 215.192 52.112C213.96 51.3787 212.596 51.012 211.1 51.012C209.604 51.012 208.24 51.3787 207.008 52.112C205.776 52.816 204.764 53.8133 203.972 55.104C203.21 56.3653 202.77 57.8173 202.652 59.46ZM227.157 39.88H230.149V66.808C230.149 67.952 230.339 68.7 230.721 69.052C231.131 69.404 231.645 69.58 232.261 69.58C232.789 69.58 233.317 69.5213 233.845 69.404C234.402 69.2867 234.857 69.1693 235.209 69.052L235.737 71.472C235.179 71.7067 234.49 71.8973 233.669 72.044C232.877 72.1907 232.187 72.264 231.601 72.264C230.251 72.264 229.166 71.868 228.345 71.076C227.553 70.284 227.157 69.1987 227.157 67.82V39.88ZM246.537 72.44C244.66 72.44 242.914 72.132 241.301 71.516C239.717 70.8707 238.324 69.932 237.121 68.7L238.353 66.588C239.644 67.7907 240.934 68.6707 242.225 69.228C243.545 69.756 244.938 70.02 246.405 70.02C248.165 70.02 249.602 69.668 250.717 68.964C251.861 68.2307 252.433 67.1893 252.433 65.84C252.433 64.9307 252.154 64.2413 251.597 63.772C251.069 63.2733 250.292 62.8773 249.265 62.584C248.268 62.2907 247.065 61.9533 245.657 61.572C244.073 61.132 242.738 60.6773 241.653 60.208C240.597 59.7093 239.79 59.0933 239.233 58.36C238.705 57.5973 238.441 56.6147 238.441 55.412C238.441 53.9453 238.808 52.7133 239.541 51.716C240.304 50.7187 241.33 49.9707 242.621 49.472C243.941 48.944 245.408 48.68 247.021 48.68C248.781 48.68 250.336 48.9587 251.685 49.516C253.034 50.0733 254.134 50.8507 254.985 51.848L253.533 53.872C252.741 52.9333 251.758 52.244 250.585 51.804C249.441 51.3347 248.194 51.1 246.845 51.1C245.906 51.1 245.012 51.232 244.161 51.496C243.31 51.7307 242.606 52.1413 242.049 52.728C241.521 53.2853 241.257 54.0627 241.257 55.06C241.257 56.292 241.712 57.1427 242.621 57.612C243.53 58.0813 244.909 58.58 246.757 59.108C248.488 59.5773 249.998 60.0467 251.289 60.516C252.58 60.9853 253.577 61.616 254.281 62.408C254.985 63.1707 255.337 64.2413 255.337 65.62C255.337 67.7613 254.53 69.4333 252.917 70.636C251.304 71.8387 249.177 72.44 246.537 72.44Z" fill="black"/>
<path d="M147.934 72H145.934V74H147.934V72ZM147.934 40.76V38.76H145.934V40.76H147.934ZM164.83 41.596L163.935 43.3849L163.944 43.3895L163.954 43.394L164.83 41.596ZM167.778 43.884L166.253 45.178L166.262 45.1896L166.272 45.201L167.778 43.884ZM169.67 47.052L167.797 47.7542L167.808 47.7828L167.819 47.8111L169.67 47.052ZM169.494 54.84L167.666 54.0277L167.658 54.0448L167.651 54.0621L169.494 54.84ZM167.074 58.184L168.379 59.6995L168.379 59.6995L167.074 58.184ZM163.422 59.944L163.045 57.9797L160.156 58.5329L161.733 61.0162L163.422 59.944ZM171.078 72V74H174.717L172.766 70.9278L171.078 72ZM167.602 72L165.915 73.075L166.505 74H167.602V72ZM160.254 60.472L161.94 59.397L161.351 58.472H160.254V60.472ZM151.014 60.472V58.472H149.014V60.472H151.014ZM151.014 72V74H153.014V72H151.014ZM151.014 57.744H149.014V59.744H151.014V57.744ZM164.434 56.732L165.625 58.3382L165.642 58.326L165.658 58.3134L164.434 56.732ZM166.546 54.048L164.728 53.213L164.728 53.213L166.546 54.048ZM166.414 47.096L164.634 48.0096L164.649 48.0387L164.665 48.0673L166.414 47.096ZM164.126 44.5L162.982 46.1408L162.999 46.1526L163.016 46.1641L164.126 44.5ZM151.014 43.488V41.488H149.014V43.488H151.014ZM149.934 72V40.76H145.934V72H149.934ZM147.934 42.76H161.134V38.76H147.934V42.76ZM161.134 42.76C162.199 42.76 163.121 42.9776 163.935 43.3849L165.724 39.8071C164.309 39.0997 162.767 38.76 161.134 38.76V42.76ZM163.954 43.394C164.849 43.8303 165.611 44.4216 166.253 45.178L169.303 42.59C168.302 41.4104 167.098 40.4763 165.706 39.798L163.954 43.394ZM166.272 45.201C166.935 45.9577 167.441 46.8052 167.797 47.7542L171.542 46.3498C171.018 44.9521 170.263 43.6877 169.283 42.567L166.272 45.201ZM167.819 47.8111C168.193 48.7212 168.374 49.6371 168.374 50.572H172.374C172.374 49.1016 172.085 47.6708 171.52 46.2929L167.819 47.8111ZM168.374 50.572C168.374 51.8335 168.133 52.9776 167.666 54.0277L171.321 55.6523C172.028 54.0624 172.374 52.3612 172.374 50.572H168.374ZM167.651 54.0621C167.21 55.1063 166.584 55.9661 165.769 56.6685L168.379 59.6995C169.675 58.5833 170.662 57.2137 171.336 55.6179L167.651 54.0621ZM165.769 56.6685C164.98 57.3478 164.083 57.781 163.045 57.9797L163.798 61.9083C165.517 61.579 167.056 60.8389 168.379 59.6995L165.769 56.6685ZM161.733 61.0162L169.389 73.0722L172.766 70.9278L165.11 58.8718L161.733 61.0162ZM171.078 70H167.602V74H171.078V70ZM169.288 70.925L161.94 59.397L158.567 61.547L165.915 73.075L169.288 70.925ZM160.254 58.472H151.014V62.472H160.254V58.472ZM149.014 60.472V72H153.014V60.472H149.014ZM151.014 70H147.934V74H151.014V70ZM151.014 59.744H161.222V55.744H151.014V59.744ZM161.222 59.744C162.843 59.744 164.34 59.2914 165.625 58.3382L163.242 55.1258C162.708 55.5219 162.064 55.744 161.222 55.744V59.744ZM165.658 58.3134C166.832 57.4043 167.735 56.2496 168.363 54.883L164.728 53.213C164.359 54.0171 163.854 54.6517 163.209 55.1506L165.658 58.3134ZM168.363 54.883C168.986 53.5274 169.294 52.0829 169.294 50.572H165.294C165.294 51.5251 165.103 52.3979 164.728 53.213L168.363 54.883ZM169.294 50.572C169.294 48.9864 168.921 47.4912 168.162 46.1247L164.665 48.0673C165.079 48.8128 165.294 49.635 165.294 50.572H169.294ZM168.193 46.1824C167.488 44.8092 166.501 43.6796 165.235 42.8359L163.016 46.1641C163.687 46.6111 164.225 47.2121 164.634 48.0096L168.193 46.1824ZM165.269 42.8592C163.977 41.9585 162.524 41.488 160.958 41.488V45.488C161.679 45.488 162.338 45.6921 162.982 46.1408L165.269 42.8592ZM160.958 41.488H151.014V45.488H160.958V41.488ZM149.014 43.488V57.744H153.014V43.488H149.014ZM179.38 70.812L178.318 72.5064L179.38 70.812ZM175.288 66.456L173.535 67.4177L175.288 66.456ZM175.244 54.576L173.497 53.6023L173.491 53.6133L173.485 53.6244L175.244 54.576ZM179.336 50.308L180.378 52.0153L180.388 52.0089L180.399 52.0024L179.336 50.308ZM195.132 54.62L193.361 55.5491L193.37 55.5666L193.38 55.5838L195.132 54.62ZM196.54 61.616V63.616H198.367L198.532 61.7971L196.54 61.616ZM176.916 61.616V59.616H174.73L174.924 61.7939L176.916 61.616ZM178.324 66.016L176.62 67.062L176.625 67.0708L176.63 67.0795L178.324 66.016ZM181.36 69.052L180.307 70.7525L180.322 70.7617L180.337 70.7706L181.36 69.052ZM189.632 69.008L188.632 67.2763L189.632 69.008ZM192.448 66.016L192.972 64.0857L191.328 63.64L190.626 65.1917L192.448 66.016ZM195.044 66.72L196.887 67.4961L197.775 65.3883L195.568 64.7897L195.044 66.72ZM192.844 69.712L194.164 71.2143L194.167 71.2117L192.844 69.712ZM189.456 71.736L190.14 73.6156L190.158 73.6088L190.177 73.6016L189.456 71.736ZM176.828 59.46L174.833 59.3175L174.68 61.46H176.828V59.46ZM193.768 59.46V61.46H195.916L195.763 59.3175L193.768 59.46ZM192.404 55.104L190.7 56.15L190.705 56.1588L190.71 56.1675L192.404 55.104ZM189.368 52.112L188.345 53.8306L188.36 53.8397L188.376 53.8485L189.368 52.112ZM181.184 52.112L182.176 53.8485L182.192 53.8397L182.207 53.8306L181.184 52.112ZM178.148 55.104L176.443 54.0579L176.437 54.0692L178.148 55.104ZM185.276 70.44C183.422 70.44 181.83 69.9878 180.443 69.1176L178.318 72.5064C180.391 73.8068 182.73 74.44 185.276 74.44V70.44ZM180.443 69.1176C179.006 68.2165 177.878 67.0186 177.042 65.4943L173.535 67.4177C174.693 69.5307 176.293 71.2369 178.318 72.5064L180.443 69.1176ZM177.042 65.4943C176.214 63.9843 175.792 62.3227 175.792 60.472H171.792C171.792 62.9626 172.368 65.2903 173.535 67.4177L177.042 65.4943ZM175.792 60.472C175.792 58.6449 176.202 57.0092 177.003 55.5276L173.485 53.6244C172.351 55.7215 171.792 58.0164 171.792 60.472H175.792ZM176.991 55.5497C177.822 54.0583 178.945 52.8897 180.378 52.0153L178.294 48.6007C176.266 49.8383 174.661 51.515 173.497 53.6023L176.991 55.5497ZM180.399 52.0024C181.786 51.1322 183.378 50.68 185.232 50.68V46.68C182.686 46.68 180.347 47.3132 178.274 48.6136L180.399 52.0024ZM185.232 50.68C187.157 50.68 188.754 51.1376 190.097 51.9941L192.248 48.6219C190.188 47.3077 187.825 46.68 185.232 46.68V50.68ZM190.097 51.9941C191.504 52.8918 192.584 54.068 193.361 55.5491L196.903 53.6909C195.803 51.5934 194.243 49.8949 192.248 48.6219L190.097 51.9941ZM193.38 55.5838C194.177 57.0332 194.584 58.635 194.584 60.428H198.584C198.584 57.997 198.023 55.7268 196.885 53.6562L193.38 55.5838ZM194.584 60.428C194.584 60.8611 194.57 61.1925 194.548 61.4349L198.532 61.7971C198.569 61.3941 198.584 60.9336 198.584 60.428H194.584ZM196.54 59.616H176.916V63.616H196.54V59.616ZM174.924 61.7939C175.096 63.7163 175.652 65.4852 176.62 67.062L180.029 64.97C179.412 63.9655 179.03 62.801 178.908 61.4381L174.924 61.7939ZM176.63 67.0795C177.58 68.5919 178.809 69.8247 180.307 70.7525L182.413 67.3515C181.448 66.754 180.652 65.9628 180.018 64.9525L176.63 67.0795ZM180.337 70.7706C181.886 71.6925 183.59 72.152 185.408 72.152V68.152C184.293 68.152 183.298 67.8782 182.383 67.3334L180.337 70.7706ZM185.408 72.152C187.262 72.152 189.015 71.6746 190.633 70.7397L188.632 67.2763C187.61 67.8667 186.546 68.152 185.408 68.152V72.152ZM190.633 70.7397C192.267 69.7957 193.519 68.5009 194.27 66.8403L190.626 65.1917C190.262 65.9951 189.638 66.695 188.632 67.2763L190.633 70.7397ZM191.925 67.9463L194.521 68.6503L195.568 64.7897L192.972 64.0857L191.925 67.9463ZM193.201 65.9439C192.86 66.7546 192.316 67.5112 191.521 68.2123L194.167 71.2117C195.368 70.1528 196.29 68.9147 196.887 67.4961L193.201 65.9439ZM191.524 68.2097C190.745 68.8938 189.823 69.4503 188.735 69.8704L190.177 73.6016C191.671 73.0244 193.007 72.2315 194.164 71.2143L191.524 68.2097ZM188.773 69.8564C187.72 70.2393 186.56 70.44 185.276 70.44V74.44C186.984 74.44 188.611 74.1714 190.14 73.6156L188.773 69.8564ZM176.828 61.46H193.768V57.46H176.828V61.46ZM195.763 59.3175C195.625 57.383 195.082 55.6079 194.098 54.0405L190.71 56.1675C191.31 57.1227 191.677 58.2517 191.773 59.6025L195.763 59.3175ZM194.109 54.058C193.153 52.5008 191.904 51.2574 190.36 50.3755L188.376 53.8485C189.297 54.3746 190.071 55.1259 190.7 56.15L194.109 54.058ZM190.391 50.3934C188.836 49.4677 187.116 49.012 185.276 49.012V53.012C186.428 53.012 187.436 53.2896 188.345 53.8306L190.391 50.3934ZM185.276 49.012C183.436 49.012 181.716 49.4677 180.161 50.3934L182.207 53.8306C183.116 53.2896 184.124 53.012 185.276 53.012V49.012ZM180.192 50.3755C178.649 51.2574 177.399 52.5008 176.444 54.058L179.853 56.15C180.481 55.1259 181.256 54.3746 182.176 53.8485L180.192 50.3755ZM176.437 54.0692C175.492 55.6318 174.97 57.3966 174.833 59.3175L178.823 59.6025C178.921 58.238 179.279 57.0989 179.86 56.1388L176.437 54.0692ZM205.204 70.812L204.142 72.5064L205.204 70.812ZM201.112 66.456L199.359 67.4177L201.112 66.456ZM201.068 54.576L199.321 53.6023L199.315 53.6133L199.309 53.6244L201.068 54.576ZM205.16 50.308L206.202 52.0153L206.213 52.0089L206.223 52.0024L205.16 50.308ZM220.956 54.62L219.185 55.5491L219.194 55.5666L219.204 55.5838L220.956 54.62ZM222.364 61.616V63.616H224.191L224.356 61.7971L222.364 61.616ZM202.74 61.616V59.616H200.554L200.748 61.7939L202.74 61.616ZM204.148 66.016L202.444 67.062L202.449 67.0708L202.455 67.0795L204.148 66.016ZM207.184 69.052L206.132 70.7525L206.146 70.7617L206.161 70.7706L207.184 69.052ZM215.456 69.008L214.456 67.2763L215.456 69.008ZM218.272 66.016L218.796 64.0857L217.152 63.64L216.45 65.1917L218.272 66.016ZM220.868 66.72L222.712 67.4961L223.599 65.3883L221.392 64.7897L220.868 66.72ZM218.668 69.712L219.989 71.2143L219.992 71.2117L218.668 69.712ZM215.28 71.736L215.964 73.6156L215.983 73.6088L216.001 73.6016L215.28 71.736ZM202.652 59.46L200.657 59.3175L200.504 61.46H202.652V59.46ZM219.592 59.46V61.46H221.74L221.587 59.3175L219.592 59.46ZM218.228 55.104L216.524 56.15L216.529 56.1588L216.535 56.1675L218.228 55.104ZM215.192 52.112L214.169 53.8306L214.185 53.8397L214.2 53.8485L215.192 52.112ZM207.008 52.112L208.001 53.8485L208.016 53.8397L208.031 53.8306L207.008 52.112ZM203.972 55.104L202.268 54.0579L202.261 54.0692L203.972 55.104ZM211.1 70.44C209.246 70.44 207.655 69.9878 206.267 69.1176L204.142 72.5064C206.215 73.8068 208.555 74.44 211.1 74.44V70.44ZM206.267 69.1176C204.83 68.2165 203.702 67.0186 202.866 65.4943L199.359 67.4177C200.518 69.5307 202.117 71.2369 204.142 72.5064L206.267 69.1176ZM202.866 65.4943C202.038 63.9843 201.616 62.3227 201.616 60.472H197.616C197.616 62.9626 198.192 65.2903 199.359 67.4177L202.866 65.4943ZM201.616 60.472C201.616 58.6449 202.026 57.0092 202.827 55.5276L199.309 53.6244C198.175 55.7215 197.616 58.0164 197.616 60.472H201.616ZM202.815 55.5497C203.647 54.0583 204.769 52.8897 206.202 52.0153L204.119 48.6007C202.09 49.8383 200.485 51.515 199.321 53.6023L202.815 55.5497ZM206.223 52.0024C207.611 51.1322 209.202 50.68 211.056 50.68V46.68C208.511 46.68 206.171 47.3132 204.098 48.6136L206.223 52.0024ZM211.056 50.68C212.981 50.68 214.578 51.1376 215.921 51.9941L218.072 48.6219C216.012 47.3077 213.649 46.68 211.056 46.68V50.68ZM215.921 51.9941C217.328 52.8918 218.408 54.068 219.185 55.5491L222.727 53.6909C221.627 51.5934 220.068 49.8949 218.072 48.6219L215.921 51.9941ZM219.204 55.5838C220.001 57.0332 220.408 58.635 220.408 60.428H224.408C224.408 57.997 223.848 55.7268 222.709 53.6562L219.204 55.5838ZM220.408 60.428C220.408 60.8611 220.395 61.1925 220.373 61.4349L224.356 61.7971C224.393 61.3941 224.408 60.9336 224.408 60.428H220.408ZM222.364 59.616H202.74V63.616H222.364V59.616ZM200.748 61.7939C200.92 63.7163 201.476 65.4852 202.444 67.062L205.853 64.97C205.237 63.9655 204.854 62.801 204.732 61.4381L200.748 61.7939ZM202.455 67.0795C203.404 68.5919 204.633 69.8247 206.132 70.7525L208.237 67.3515C207.272 66.754 206.477 65.9628 205.842 64.9525L202.455 67.0795ZM206.161 70.7706C207.71 71.6925 209.414 72.152 211.232 72.152V68.152C210.117 68.152 209.123 67.8782 208.207 67.3334L206.161 70.7706ZM211.232 72.152C213.087 72.152 214.839 71.6746 216.457 70.7397L214.456 67.2763C213.434 67.8667 212.37 68.152 211.232 68.152V72.152ZM216.457 70.7397C218.091 69.7957 219.343 68.5009 220.095 66.8403L216.45 65.1917C216.087 65.9951 215.462 66.695 214.456 67.2763L216.457 70.7397ZM217.749 67.9463L220.345 68.6503L221.392 64.7897L218.796 64.0857L217.749 67.9463ZM219.025 65.9439C218.684 66.7546 218.14 67.5112 217.345 68.2123L219.992 71.2117C221.192 70.1528 222.114 68.9147 222.712 67.4961L219.025 65.9439ZM217.348 68.2097C216.57 68.8938 215.647 69.4503 214.56 69.8704L216.001 73.6016C217.495 73.0244 218.831 72.2315 219.989 71.2143L217.348 68.2097ZM214.597 69.8564C213.544 70.2393 212.384 70.44 211.1 70.44V74.44C212.809 74.44 214.435 74.1714 215.964 73.6156L214.597 69.8564ZM202.652 61.46H219.592V57.46H202.652V61.46ZM221.587 59.3175C221.449 57.383 220.906 55.6079 219.922 54.0405L216.535 56.1675C217.134 57.1227 217.501 58.2517 217.597 59.6025L221.587 59.3175ZM219.933 54.058C218.978 52.5008 217.728 51.2574 216.185 50.3755L214.2 53.8485C215.121 54.3746 215.895 55.1259 216.524 56.15L219.933 54.058ZM216.215 50.3934C214.66 49.4677 212.94 49.012 211.1 49.012V53.012C212.253 53.012 213.261 53.2896 214.169 53.8306L216.215 50.3934ZM211.1 49.012C209.261 49.012 207.541 49.4677 205.985 50.3934L208.031 53.8306C208.94 53.2896 209.948 53.012 211.1 53.012V49.012ZM206.016 50.3755C204.473 51.2574 203.223 52.5008 202.268 54.058L205.677 56.15C206.306 55.1259 207.08 54.3746 208.001 53.8485L206.016 50.3755ZM202.261 54.0692C201.316 55.6318 200.795 57.3966 200.657 59.3175L204.647 59.6025C204.745 58.238 205.103 57.0989 205.684 56.1388L202.261 54.0692ZM227.157 39.88V37.88H225.157V39.88H227.157ZM230.149 39.88H232.149V37.88H230.149V39.88ZM230.721 69.052L229.364 70.5216L229.391 70.5466L229.419 70.5705L230.721 69.052ZM233.845 69.404L233.433 67.4469L233.422 67.4492L233.411 67.4516L233.845 69.404ZM235.209 69.052L237.163 68.6257L236.688 66.4507L234.576 67.1546L235.209 69.052ZM235.737 71.472L236.513 73.3153L238.045 72.6701L237.691 71.0457L235.737 71.472ZM233.669 72.044L233.317 70.0751L233.304 70.0774L233.669 72.044ZM228.345 71.076L226.93 72.4902L226.943 72.5031L226.956 72.5157L228.345 71.076ZM227.157 41.88H230.149V37.88H227.157V41.88ZM228.149 39.88V66.808H232.149V39.88H228.149ZM228.149 66.808C228.149 67.4748 228.202 68.1283 228.354 68.721C228.501 69.2982 228.783 69.9848 229.364 70.5216L232.077 67.5824C232.277 67.7672 232.273 67.9038 232.23 67.733C232.19 67.5777 232.149 67.2852 232.149 66.808H228.149ZM229.419 70.5705C230.242 71.2762 231.238 71.58 232.261 71.58V67.58C232.144 67.58 232.084 67.5636 232.062 67.5561C232.044 67.5499 232.035 67.5443 232.022 67.5335L229.419 70.5705ZM232.261 71.58C232.938 71.58 233.612 71.5046 234.278 71.3564L233.411 67.4516C233.022 67.5381 232.639 67.58 232.261 67.58V71.58ZM234.257 71.3611C234.854 71.2354 235.389 71.0999 235.841 70.9494L234.576 67.1546C234.324 67.2388 233.95 67.3379 233.433 67.4469L234.257 71.3611ZM233.255 69.4783L233.783 71.8983L237.691 71.0457L237.163 68.6257L233.255 69.4783ZM234.96 69.6287C234.58 69.7889 234.043 69.9455 233.317 70.0751L234.02 74.0129C234.937 73.8492 235.779 73.6244 236.513 73.3153L234.96 69.6287ZM233.304 70.0774C232.592 70.2094 232.03 70.264 231.601 70.264V74.264C232.345 74.264 233.162 74.1719 234.033 74.0106L233.304 70.0774ZM231.601 70.264C230.668 70.264 230.115 70.0043 229.733 69.6363L226.956 72.5157C228.217 73.7317 229.835 74.264 231.601 74.264V70.264ZM229.759 69.6618C229.425 69.3278 229.157 68.7983 229.157 67.82H225.157C225.157 69.5991 225.68 71.2402 226.93 72.4902L229.759 69.6618ZM229.157 67.82V39.88H225.157V67.82H229.157ZM241.301 71.516L240.546 73.3682L240.567 73.3765L240.587 73.3844L241.301 71.516ZM237.121 68.7L235.393 67.6923L234.626 69.0075L235.69 70.0971L237.121 68.7ZM238.353 66.588L239.716 65.1248L237.886 63.4192L236.625 65.5803L238.353 66.588ZM242.225 69.228L241.432 71.0641L241.457 71.0749L241.482 71.085L242.225 69.228ZM250.717 68.964L251.785 70.655L251.796 70.6478L250.717 68.964ZM251.597 63.772L250.224 65.226L250.265 65.2651L250.309 65.3018L251.597 63.772ZM249.265 62.584L248.701 64.5027L248.708 64.5049L248.715 64.507L249.265 62.584ZM245.657 61.572L245.122 63.4991L245.134 63.5025L245.657 61.572ZM241.653 60.208L240.799 62.0165L240.829 62.0306L240.859 62.0437L241.653 60.208ZM239.233 58.36L237.589 59.4984L237.614 59.5349L237.641 59.5702L239.233 58.36ZM239.541 51.716L237.952 50.5011L237.941 50.5161L237.93 50.5312L239.541 51.716ZM242.621 49.472L243.342 51.3376L243.353 51.3333L243.364 51.329L242.621 49.472ZM251.685 49.516L252.448 47.6675L252.448 47.6675L251.685 49.516ZM254.985 51.848L256.61 53.0138L257.523 51.7415L256.507 50.5501L254.985 51.848ZM253.533 53.872L252.004 55.1617L253.661 57.1249L255.158 55.0378L253.533 53.872ZM250.585 51.804L249.826 53.6543L249.854 53.6659L249.883 53.6767L250.585 51.804ZM244.161 51.496L244.693 53.424L244.723 53.4155L244.754 53.4061L244.161 51.496ZM242.049 52.728L240.599 51.3505L240.597 51.3525L242.049 52.728ZM246.757 59.108L246.207 61.031L246.22 61.0348L246.233 61.0383L246.757 59.108ZM251.289 60.516L250.605 62.3956L250.605 62.3956L251.289 60.516ZM254.281 62.408L252.786 63.7367L252.799 63.7508L252.811 63.7646L254.281 62.408ZM252.917 70.636L254.112 72.2395L254.112 72.2395L252.917 70.636ZM246.537 70.44C244.882 70.44 243.381 70.1693 242.014 69.6476L240.587 73.3844C242.448 74.0947 244.437 74.44 246.537 74.44V70.44ZM242.055 69.6638C240.728 69.1228 239.564 68.3397 238.552 67.3029L235.69 70.0971C237.083 71.5243 238.706 72.6185 240.546 73.3682L242.055 69.6638ZM238.848 69.7077L240.08 67.5957L236.625 65.5803L235.393 67.6923L238.848 69.7077ZM236.989 68.0512C238.407 69.3718 239.885 70.3963 241.432 71.0641L243.018 67.3919C241.983 66.9451 240.88 66.2095 239.716 65.1248L236.989 68.0512ZM241.482 71.085C243.046 71.7105 244.692 72.02 246.405 72.02V68.02C245.184 68.02 244.044 67.8015 242.968 67.371L241.482 71.085ZM246.405 72.02C248.42 72.02 250.26 71.6179 251.785 70.655L249.649 67.273C248.944 67.7181 247.91 68.02 246.405 68.02V72.02ZM251.796 70.6478C253.509 69.5498 254.433 67.8766 254.433 65.84H250.433C250.433 66.502 250.213 66.9115 249.638 67.2802L251.796 70.6478ZM254.433 65.84C254.433 64.4998 254.003 63.1833 252.885 62.2422L250.309 65.3018C250.333 65.322 250.35 65.3418 250.37 65.3906C250.394 65.4504 250.433 65.5866 250.433 65.84H254.433ZM252.97 62.318C252.125 61.5201 251.015 61.004 249.814 60.661L248.715 64.507C249.568 64.7506 250.012 65.0266 250.224 65.226L252.97 62.318ZM249.829 60.6653C248.814 60.3666 247.597 60.0253 246.18 59.6415L245.134 63.5025C246.533 63.8814 247.721 64.2147 248.701 64.5027L249.829 60.6653ZM246.192 59.645C244.665 59.2208 243.423 58.7944 242.447 58.3723L240.859 62.0437C242.054 62.5603 243.481 63.0432 245.122 63.499L246.192 59.645ZM242.507 58.3995C241.666 58.0022 241.143 57.5679 240.825 57.1498L237.641 59.5702C238.437 60.6188 239.528 61.4165 240.799 62.0165L242.507 58.3995ZM240.877 57.2216C240.641 56.88 240.441 56.3277 240.441 55.412H236.441C236.441 56.9016 236.769 58.3147 237.589 59.4984L240.877 57.2216ZM240.441 55.412C240.441 54.2905 240.716 53.4946 241.152 52.9008L237.93 50.5312C236.9 51.932 236.441 53.6002 236.441 55.412H240.441ZM241.13 52.9309C241.646 52.2556 242.359 51.7174 243.342 51.3376L241.9 47.6064C240.302 48.2239 238.961 49.1817 237.952 50.5011L241.13 52.9309ZM243.364 51.329C244.418 50.9073 245.628 50.68 247.021 50.68V46.68C245.187 46.68 243.464 46.9807 241.878 47.615L243.364 51.329ZM247.021 50.68C248.572 50.68 249.858 50.9255 250.921 51.3645L252.448 47.6675C250.813 46.9918 248.99 46.68 247.021 46.68V50.68ZM250.921 51.3645C252.012 51.8149 252.841 52.4159 253.463 53.1459L256.507 50.5501C255.428 49.2855 254.057 48.3318 252.448 47.6675L250.921 51.3645ZM253.36 50.6822L251.908 52.7062L255.158 55.0378L256.61 53.0138L253.36 50.6822ZM255.061 52.5823C254.044 51.3762 252.774 50.4891 251.287 49.9313L249.883 53.6767C250.742 53.9989 251.438 54.4905 252.004 55.1617L255.061 52.5823ZM251.344 49.9537C249.938 49.3768 248.431 49.1 246.845 49.1V53.1C247.958 53.1 248.944 53.2925 249.826 53.6543L251.344 49.9537ZM246.845 49.1C245.716 49.1 244.621 49.2592 243.568 49.5859L244.754 53.4061C245.402 53.2048 246.096 53.1 246.845 53.1V49.1ZM243.629 49.568C242.461 49.8903 241.429 50.4767 240.599 51.3505L243.499 54.1055C243.783 53.806 244.16 53.571 244.693 53.424L243.629 49.568ZM240.597 51.3525C239.621 52.3822 239.257 53.7092 239.257 55.06H243.257C243.257 54.4161 243.42 54.1885 243.501 54.1035L240.597 51.3525ZM239.257 55.06C239.257 56.8564 239.98 58.4998 241.704 59.3892L243.538 55.8348C243.421 55.7741 243.386 55.7247 243.362 55.6792C243.327 55.6134 243.257 55.436 243.257 55.06H239.257ZM241.704 59.3892C242.792 59.9508 244.322 60.4924 246.207 61.031L247.306 57.185C245.495 56.6676 244.269 56.2119 243.538 55.8348L241.704 59.3892ZM246.233 61.0383C247.925 61.4971 249.38 61.9501 250.605 62.3956L251.972 58.6364C250.616 58.1432 249.05 57.6576 247.28 57.1777L246.233 61.0383ZM250.605 62.3956C251.674 62.7841 252.358 63.2555 252.786 63.7367L255.776 61.0793C254.795 59.9765 253.485 59.1866 251.972 58.6364L250.605 62.3956ZM252.811 63.7646C253.075 64.0501 253.337 64.5754 253.337 65.62H257.337C257.337 63.9073 256.895 62.2912 255.75 61.0514L252.811 63.7646ZM253.337 65.62C253.337 67.177 252.792 68.2347 251.722 69.0325L254.112 72.2395C256.269 70.632 257.337 68.3457 257.337 65.62H253.337ZM251.722 69.0325C250.548 69.9077 248.88 70.44 246.537 70.44V74.44C249.474 74.44 252.06 73.7696 254.112 72.2395L251.722 69.0325Z" fill="black"/>
<path d="M267.259 179.785H216.01V178.775H192.771V179.785H141.311C140.855 179.785 140.405 179.87 139.984 180.037C139.564 180.204 139.181 180.448 138.859 180.756C138.538 181.063 138.282 181.429 138.108 181.831C137.934 182.233 137.844 182.664 137.844 183.1V250.204C137.844 251.083 138.209 251.926 138.859 252.548C139.51 253.17 140.391 253.519 141.311 253.519H267.259C268.178 253.519 269.06 253.17 269.71 252.548C270.36 251.926 270.726 251.083 270.726 250.204V183.1C270.726 182.664 270.636 182.233 270.462 181.831C270.287 181.429 270.032 181.063 269.71 180.756C269.388 180.448 269.006 180.204 268.586 180.037C268.165 179.87 267.714 179.785 267.259 179.785Z" fill="#3F3D56"/>
<path opacity="0.1" d="M266.078 185.643H142.492V252.307H266.078V185.643Z" fill="black"/>
<path d="M204.179 183.825C204.879 183.825 205.447 183.282 205.447 182.613C205.447 181.944 204.879 181.401 204.179 181.401C203.479 181.401 202.912 181.944 202.912 182.613C202.912 183.282 203.479 183.825 204.179 183.825Z" fill="#0CB9E4"/>
<path d="M274.196 251.095H262.134V250.264C262.134 250.242 262.13 250.221 262.121 250.201C262.113 250.181 262.1 250.163 262.084 250.147C262.068 250.132 262.049 250.12 262.028 250.112C262.007 250.103 261.985 250.099 261.962 250.099H257.827C257.804 250.099 257.782 250.103 257.761 250.112C257.74 250.12 257.721 250.132 257.705 250.147C257.689 250.163 257.676 250.181 257.668 250.201C257.659 250.221 257.655 250.242 257.655 250.264V251.095H255.07V250.264C255.07 250.242 255.066 250.221 255.057 250.201C255.048 250.181 255.036 250.163 255.02 250.147C255.004 250.132 254.985 250.12 254.964 250.112C254.943 250.103 254.92 250.099 254.898 250.099H250.762C250.74 250.099 250.717 250.103 250.697 250.112C250.676 250.12 250.657 250.132 250.641 250.147C250.625 250.163 250.612 250.181 250.603 250.201C250.595 250.221 250.59 250.242 250.59 250.264V251.095H248.006V250.264C248.006 250.242 248.001 250.221 247.992 250.201C247.984 250.181 247.971 250.163 247.955 250.147C247.939 250.132 247.92 250.12 247.899 250.112C247.878 250.103 247.856 250.099 247.833 250.099H243.698C243.675 250.099 243.653 250.103 243.632 250.112C243.611 250.12 243.592 250.132 243.576 250.147C243.56 250.163 243.548 250.181 243.539 250.201C243.53 250.221 243.526 250.242 243.526 250.264V251.095H240.941V250.264C240.941 250.242 240.937 250.221 240.928 250.201C240.919 250.181 240.907 250.163 240.891 250.147C240.875 250.132 240.856 250.12 240.835 250.112C240.814 250.103 240.792 250.099 240.769 250.099H236.634C236.611 250.099 236.589 250.103 236.568 250.112C236.547 250.12 236.528 250.132 236.512 250.147C236.496 250.163 236.483 250.181 236.474 250.201C236.466 250.221 236.461 250.242 236.461 250.264V251.095H233.877V250.264C233.877 250.242 233.872 250.221 233.864 250.201C233.855 250.181 233.842 250.163 233.826 250.147C233.81 250.132 233.791 250.12 233.77 250.112C233.75 250.103 233.727 250.099 233.704 250.099H229.569C229.547 250.099 229.524 250.103 229.503 250.112C229.482 250.12 229.463 250.132 229.447 250.147C229.431 250.163 229.419 250.181 229.41 250.201C229.401 250.221 229.397 250.242 229.397 250.264V251.095H226.812V250.264C226.812 250.242 226.808 250.221 226.799 250.201C226.791 250.181 226.778 250.163 226.762 250.147C226.746 250.132 226.727 250.12 226.706 250.112C226.685 250.103 226.663 250.099 226.64 250.099H222.505C222.482 250.099 222.46 250.103 222.439 250.112C222.418 250.12 222.399 250.132 222.383 250.147C222.367 250.163 222.354 250.181 222.346 250.201C222.337 250.221 222.332 250.242 222.333 250.264V251.095H219.748V250.264C219.748 250.242 219.743 250.221 219.735 250.201C219.726 250.181 219.713 250.163 219.697 250.147C219.681 250.132 219.662 250.12 219.642 250.112C219.621 250.103 219.598 250.099 219.576 250.099H187.183C187.16 250.099 187.138 250.103 187.117 250.112C187.096 250.12 187.077 250.132 187.061 250.147C187.045 250.163 187.032 250.181 187.024 250.201C187.015 250.221 187.01 250.242 187.01 250.264V251.095H184.426V250.264C184.426 250.242 184.421 250.221 184.413 250.201C184.404 250.181 184.391 250.163 184.375 250.147C184.359 250.132 184.34 250.12 184.32 250.112C184.299 250.103 184.276 250.099 184.254 250.099H180.118C180.096 250.099 180.073 250.103 180.052 250.112C180.031 250.12 180.012 250.132 179.996 250.147C179.98 250.163 179.968 250.181 179.959 250.201C179.95 250.221 179.946 250.242 179.946 250.264V251.095H177.361V250.264C177.361 250.242 177.357 250.221 177.348 250.201C177.34 250.181 177.327 250.163 177.311 250.147C177.295 250.132 177.276 250.12 177.255 250.112C177.234 250.103 177.212 250.099 177.189 250.099H173.054C173.031 250.099 173.009 250.103 172.988 250.112C172.967 250.12 172.948 250.132 172.932 250.147C172.916 250.163 172.903 250.181 172.895 250.201C172.886 250.221 172.882 250.242 172.882 250.264V251.095H170.297V250.264C170.297 250.242 170.293 250.221 170.284 250.201C170.275 250.181 170.263 250.163 170.247 250.147C170.231 250.132 170.212 250.12 170.191 250.112C170.17 250.103 170.147 250.099 170.125 250.099H165.989C165.967 250.099 165.944 250.103 165.924 250.112C165.903 250.12 165.884 250.132 165.868 250.147C165.852 250.163 165.839 250.181 165.83 250.201C165.822 250.221 165.817 250.242 165.817 250.264V251.095H163.233V250.264C163.233 250.242 163.228 250.221 163.22 250.201C163.211 250.181 163.198 250.163 163.182 250.147C163.166 250.132 163.147 250.12 163.126 250.112C163.105 250.103 163.083 250.099 163.06 250.099H158.925C158.902 250.099 158.88 250.103 158.859 250.112C158.838 250.12 158.819 250.132 158.803 250.147C158.787 250.163 158.775 250.181 158.766 250.201C158.757 250.221 158.753 250.242 158.753 250.264V251.095H156.168V250.264C156.168 250.242 156.164 250.221 156.155 250.201C156.146 250.181 156.134 250.163 156.118 250.147C156.102 250.132 156.083 250.12 156.062 250.112C156.041 250.103 156.019 250.099 155.996 250.099H151.861C151.838 250.099 151.816 250.103 151.795 250.112C151.774 250.12 151.755 250.132 151.739 250.147C151.723 250.163 151.71 250.181 151.701 250.201C151.693 250.221 151.688 250.242 151.688 250.264V251.095H149.104V250.264C149.104 250.242 149.099 250.221 149.091 250.201C149.082 250.181 149.069 250.163 149.053 250.147C149.037 250.132 149.018 250.12 148.997 250.112C148.977 250.103 148.954 250.099 148.932 250.099H144.796C144.774 250.099 144.751 250.103 144.73 250.112C144.709 250.12 144.69 250.132 144.674 250.147C144.658 250.163 144.646 250.181 144.637 250.201C144.628 250.221 144.624 250.242 144.624 250.264V251.095H136.698C135.601 251.095 134.549 251.511 133.774 252.253C132.998 252.995 132.563 254 132.563 255.049V256.837C132.563 257.886 132.998 258.892 133.774 259.633C134.549 260.375 135.601 260.791 136.698 260.791H274.196C275.292 260.791 276.344 260.375 277.12 259.633C277.895 258.892 278.331 257.886 278.331 256.837V255.049C278.331 254 277.895 252.995 277.12 252.253C276.344 251.511 275.292 251.095 274.196 251.095V251.095Z" fill="#3F3D56"/>
<path d="M229.323 193.21H179.289V243.503H229.323V193.21Z" fill="#0CB9E4"/>
<path d="M205.752 191.122C205.752 191.122 201.486 189.665 198.743 195.493C196 201.321 191.734 207.732 191.734 207.732L194.172 208.315C194.172 208.315 194.782 204.235 196.305 203.652L195.696 208.897C195.696 208.897 213.98 215.017 222.208 208.315L221.903 206.275C221.903 206.275 223.122 206.566 223.122 208.315L224.036 207.44C224.036 207.44 223.122 205.692 220.38 203.361C218.579 201.831 217.961 198.92 217.748 197.1C217.589 195.58 216.953 194.142 215.924 192.974C214.101 190.954 210.78 188.807 205.752 191.122Z" fill="#2F2E41"/>
<path d="M182.177 196.62L180.404 178.914C180.404 178.914 176.859 169.308 182.177 170.061C187.496 170.815 184.344 178.161 184.344 178.161L187.299 196.62H182.177Z" fill="#A0616A"/>
<path d="M207.982 209.806C211.899 209.806 215.074 206.77 215.074 203.025C215.074 199.28 211.899 196.244 207.982 196.244C204.066 196.244 200.891 199.28 200.891 203.025C200.891 206.77 204.066 209.806 207.982 209.806Z" fill="#A0616A"/>
<path d="M202.861 206.039C202.861 206.039 202.467 213.761 200.497 214.327C198.527 214.892 193.011 221.108 195.572 222.991C198.133 224.875 212.907 223.556 212.907 223.556L211.528 213.761C211.528 213.761 208.376 211.689 210.937 208.111L202.861 206.039Z" fill="#A0616A"/>
<path d="M217.648 243.879H189.794C189.895 242.175 190.147 239.767 190.47 237.121C190.568 236.319 190.673 235.492 190.781 234.657C191.736 227.302 193.011 219.225 193.011 219.225L193.346 218.484L196.754 210.937L196.789 210.95L201.284 212.632L201.444 213.355L202.663 218.848L210.552 212.758L217.831 211.669L218.323 211.596L219.21 219.601C219.21 219.601 219.17 221.391 219.129 223.939C219.082 226.868 219.031 230.801 219.035 234.171C219.036 235.782 219.05 237.264 219.084 238.447C219.111 239.443 219.153 240.229 219.21 240.698C219.342 241.766 218.641 242.875 217.648 243.879Z" fill="#3F3D56"/>
<path d="M196.951 211.878L196.754 210.748L191.239 204.344L188.087 193.607L180.404 196.432L185.92 209.429L193.799 219.036L196.951 211.878Z" fill="#3F3D56"/>
<path d="M198.666 203.836C198.666 203.836 201.104 200.631 203.237 200.048C205.37 199.465 205.675 196.551 205.675 196.551C205.675 196.551 211.16 202.379 214.512 202.67C217.864 202.962 214.817 195.677 214.817 195.677L208.722 194.22L202.932 194.803L198.361 197.717L198.666 203.836Z" fill="#2F2E41"/>
<path d="M218.292 237.475L199.446 238.19C199.446 238.19 189.061 240.463 190.45 235.496C191.839 230.529 199.112 234.361 199.112 234.361L218.628 233.659L218.292 237.475Z" fill="#A0616A"/>
<path d="M216.157 212.914L217.93 211.595C217.93 211.595 220.885 210.088 221.476 215.362C222.067 220.637 226.4 238.154 222.067 238.343C217.733 238.531 206.702 238.719 206.702 238.719L207.884 232.88L216.945 232.315L216.157 212.914Z" fill="#3F3D56"/>
<path opacity="0.15" d="M216.748 221.013L216.157 231.75L207.49 233.445L215.369 230.432L216.748 221.013Z" fill="black"/>
<path d="M313 260.623H104V261H313V260.623Z" fill="#3F3D56"/>
<path d="M292.702 247.464C295.534 250.369 295.68 254.64 295.68 254.64C295.68 254.64 291.235 254.2 288.404 251.294C285.572 248.389 285.425 244.118 285.425 244.118C285.425 244.118 289.87 244.558 292.702 247.464Z" fill="#E055CC"/>
<path d="M301.617 251.999C298.578 254.707 294.112 254.847 294.112 254.847C294.112 254.847 294.573 250.596 297.611 247.889C300.65 245.181 305.116 245.041 305.116 245.041C305.116 245.041 304.656 249.291 301.617 251.999Z" fill="#0CB9E4"/>
<path d="M300.862 260.623H289.685C289.471 260.623 289.261 260.566 289.079 260.457C288.897 260.348 288.751 260.193 288.657 260.008L286.224 255.225C286.139 255.059 286.1 254.874 286.11 254.689C286.12 254.504 286.18 254.324 286.283 254.167C286.385 254.01 286.528 253.881 286.698 253.791C286.867 253.701 287.058 253.654 287.252 253.654H303.295C303.489 253.654 303.68 253.701 303.849 253.791C304.019 253.881 304.162 254.01 304.264 254.167C304.367 254.324 304.427 254.504 304.437 254.689C304.447 254.874 304.408 255.059 304.323 255.225L301.89 260.008C301.796 260.193 301.65 260.348 301.468 260.457C301.286 260.566 301.076 260.623 300.862 260.623V260.623Z" fill="#3F3D56"/>
<path d="M116.008 247.464C118.839 250.369 118.986 254.64 118.986 254.64C118.986 254.64 114.541 254.2 111.709 251.294C108.877 248.389 108.731 244.118 108.731 244.118C108.731 244.118 113.176 244.558 116.008 247.464Z" fill="#E055CC"/>
<path d="M122.394 260.623H111.218C111.003 260.623 110.793 260.566 110.611 260.457C110.43 260.348 110.284 260.193 110.19 260.008L107.756 255.225C107.672 255.059 107.632 254.874 107.643 254.689C107.653 254.504 107.712 254.324 107.815 254.167C107.918 254.01 108.061 253.881 108.23 253.791C108.4 253.701 108.59 253.654 108.784 253.654H124.828C125.022 253.654 125.212 253.701 125.382 253.791C125.551 253.881 125.694 254.01 125.797 254.167C125.9 254.324 125.959 254.504 125.969 254.689C125.98 254.874 125.941 255.059 125.856 255.225L123.422 260.008C123.329 260.193 123.182 260.348 123.001 260.457C122.819 260.566 122.609 260.623 122.394 260.623V260.623Z" fill="#3F3D56"/>
<path d="M115.444 127.07C114.66 127.07 113.998 126.93 113.456 126.65C112.924 126.37 112.495 125.992 112.168 125.516C111.842 125.04 111.608 124.508 111.468 123.92C111.328 123.323 111.258 122.707 111.258 122.072V117.06H112.224V122.072C112.224 122.595 112.276 123.103 112.378 123.598C112.49 124.083 112.668 124.522 112.91 124.914C113.153 125.306 113.48 125.619 113.89 125.852C114.301 126.076 114.814 126.188 115.43 126.188C116.065 126.188 116.588 126.071 116.998 125.838C117.418 125.605 117.75 125.292 117.992 124.9C118.235 124.499 118.403 124.055 118.496 123.57C118.599 123.075 118.65 122.576 118.65 122.072V117.06H119.63V122.072C119.63 122.735 119.556 123.369 119.406 123.976C119.257 124.573 119.014 125.105 118.678 125.572C118.352 126.039 117.922 126.407 117.39 126.678C116.858 126.939 116.21 127.07 115.444 127.07ZM127.821 127H126.869V122.926C126.869 122.067 126.738 121.442 126.477 121.05C126.225 120.649 125.833 120.448 125.301 120.448C124.927 120.448 124.559 120.541 124.195 120.728C123.831 120.905 123.509 121.153 123.229 121.47C122.958 121.778 122.762 122.133 122.641 122.534V127H121.689V119.706H122.557V121.358C122.846 120.826 123.271 120.397 123.831 120.07C124.391 119.743 124.997 119.58 125.651 119.58C126.192 119.58 126.621 119.711 126.939 119.972C127.256 120.224 127.48 120.588 127.611 121.064C127.751 121.531 127.821 122.086 127.821 122.73V127ZM129.851 118.18V116.78H130.803V118.18H129.851ZM129.851 127V119.706H130.803V127H129.851ZM135.714 127.14C135.051 127.14 134.472 126.963 133.978 126.608C133.483 126.253 133.096 125.791 132.816 125.222C132.545 124.643 132.41 124.023 132.41 123.36C132.41 122.847 132.498 122.366 132.676 121.918C132.853 121.461 133.096 121.059 133.404 120.714C133.721 120.359 134.09 120.084 134.51 119.888C134.93 119.683 135.387 119.58 135.882 119.58C136.451 119.58 136.974 119.729 137.45 120.028C137.935 120.317 138.313 120.686 138.584 121.134V119.706H139.438V129.982H138.486V125.488C137.767 126.589 136.843 127.14 135.714 127.14ZM136.008 126.3C136.577 126.3 137.067 126.132 137.478 125.796C137.898 125.451 138.234 125.045 138.486 124.578V122.324C138.439 121.988 138.285 121.675 138.024 121.386C137.772 121.097 137.468 120.863 137.114 120.686C136.759 120.509 136.409 120.42 136.064 120.42C135.541 120.42 135.074 120.565 134.664 120.854C134.262 121.134 133.945 121.503 133.712 121.96C133.488 122.408 133.376 122.879 133.376 123.374C133.376 123.906 133.488 124.396 133.712 124.844C133.936 125.283 134.244 125.637 134.636 125.908C135.037 126.169 135.494 126.3 136.008 126.3ZM141.47 123.99V119.706H142.422V123.822C142.422 125.474 142.987 126.3 144.116 126.3C144.676 126.3 145.199 126.118 145.684 125.754C146.179 125.39 146.534 124.905 146.748 124.298V119.706H147.7V125.852C147.7 126.104 147.812 126.235 148.036 126.244V127C147.924 127.019 147.836 127.028 147.77 127.028C147.714 127.028 147.654 127.028 147.588 127.028C147.392 127.009 147.224 126.935 147.084 126.804C146.954 126.673 146.888 126.515 146.888 126.328L146.86 125.348C146.543 125.917 146.109 126.361 145.558 126.678C145.017 126.986 144.429 127.14 143.794 127.14C142.245 127.14 141.47 126.09 141.47 123.99ZM153.003 127.14C152.303 127.14 151.677 126.967 151.127 126.622C150.576 126.277 150.142 125.815 149.825 125.236C149.507 124.657 149.349 124.023 149.349 123.332C149.349 122.651 149.503 122.025 149.811 121.456C150.128 120.887 150.562 120.434 151.113 120.098C151.663 119.753 152.289 119.58 152.989 119.58C153.707 119.58 154.337 119.753 154.879 120.098C155.42 120.443 155.84 120.901 156.139 121.47C156.447 122.03 156.601 122.646 156.601 123.318C156.601 123.467 156.596 123.593 156.587 123.696H150.343C150.389 124.219 150.539 124.685 150.791 125.096C151.043 125.497 151.365 125.819 151.757 126.062C152.149 126.295 152.578 126.412 153.045 126.412C153.521 126.412 153.969 126.291 154.389 126.048C154.809 125.805 155.107 125.488 155.285 125.096L156.111 125.32C155.961 125.675 155.728 125.992 155.411 126.272C155.103 126.543 154.743 126.757 154.333 126.916C153.922 127.065 153.479 127.14 153.003 127.14ZM150.315 123.01H155.705C155.667 122.487 155.523 122.025 155.271 121.624C155.019 121.213 154.697 120.896 154.305 120.672C153.913 120.439 153.479 120.322 153.003 120.322C152.527 120.322 152.093 120.439 151.701 120.672C151.309 120.896 150.987 121.213 150.735 121.624C150.492 122.025 150.352 122.487 150.315 123.01ZM164.788 127.14C164.088 127.14 163.463 126.967 162.912 126.622C162.361 126.277 161.927 125.815 161.61 125.236C161.293 124.657 161.134 124.023 161.134 123.332C161.134 122.651 161.288 122.025 161.596 121.456C161.913 120.887 162.347 120.434 162.898 120.098C163.449 119.753 164.074 119.58 164.774 119.58C165.493 119.58 166.123 119.753 166.664 120.098C167.205 120.443 167.625 120.901 167.924 121.47C168.232 122.03 168.386 122.646 168.386 123.318C168.386 123.467 168.381 123.593 168.372 123.696H162.128C162.175 124.219 162.324 124.685 162.576 125.096C162.828 125.497 163.15 125.819 163.542 126.062C163.934 126.295 164.363 126.412 164.83 126.412C165.306 126.412 165.754 126.291 166.174 126.048C166.594 125.805 166.893 125.488 167.07 125.096L167.896 125.32C167.747 125.675 167.513 125.992 167.196 126.272C166.888 126.543 166.529 126.757 166.118 126.916C165.707 127.065 165.264 127.14 164.788 127.14ZM162.1 123.01H167.49C167.453 122.487 167.308 122.025 167.056 121.624C166.804 121.213 166.482 120.896 166.09 120.672C165.698 120.439 165.264 120.322 164.788 120.322C164.312 120.322 163.878 120.439 163.486 120.672C163.094 120.896 162.772 121.213 162.52 121.624C162.277 122.025 162.137 122.487 162.1 123.01ZM180.705 127H179.753V122.926C179.753 122.086 179.617 121.465 179.347 121.064C179.076 120.653 178.675 120.448 178.143 120.448C177.583 120.448 177.088 120.644 176.659 121.036C176.229 121.428 175.926 121.932 175.749 122.548V127H174.797V122.926C174.797 122.067 174.661 121.442 174.391 121.05C174.129 120.649 173.733 120.448 173.201 120.448C172.65 120.448 172.155 120.639 171.717 121.022C171.287 121.405 170.984 121.909 170.807 122.534V127H169.855V119.706H170.723V121.358C171.021 120.798 171.413 120.364 171.899 120.056C172.384 119.739 172.921 119.58 173.509 119.58C174.115 119.58 174.605 119.757 174.979 120.112C175.352 120.457 175.581 120.905 175.665 121.456C176.337 120.205 177.275 119.58 178.479 119.58C179.3 119.58 179.874 119.869 180.201 120.448C180.537 121.017 180.705 121.778 180.705 122.73V127ZM182.132 124.9C182.132 124.452 182.263 124.065 182.524 123.738C182.785 123.402 183.145 123.141 183.602 122.954C184.069 122.767 184.605 122.674 185.212 122.674C185.567 122.674 185.935 122.707 186.318 122.772C186.701 122.828 187.041 122.907 187.34 123.01V122.394C187.34 121.778 187.158 121.288 186.794 120.924C186.43 120.56 185.926 120.378 185.282 120.378C184.899 120.378 184.517 120.453 184.134 120.602C183.751 120.742 183.355 120.952 182.944 121.232L182.58 120.56C183.056 120.233 183.523 119.991 183.98 119.832C184.437 119.664 184.904 119.58 185.38 119.58C186.276 119.58 186.985 119.837 187.508 120.35C188.031 120.863 188.292 121.573 188.292 122.478V125.852C188.292 126.104 188.409 126.235 188.642 126.244V127C188.437 127.028 188.292 127.037 188.208 127.028C187.975 127.019 187.797 126.944 187.676 126.804C187.555 126.664 187.489 126.515 187.48 126.356L187.466 125.824C187.139 126.244 186.715 126.571 186.192 126.804C185.669 127.028 185.137 127.14 184.596 127.14C184.12 127.14 183.695 127.042 183.322 126.846C182.949 126.641 182.655 126.37 182.44 126.034C182.235 125.689 182.132 125.311 182.132 124.9ZM187.018 125.46C187.233 125.208 187.34 124.975 187.34 124.76V123.696C186.696 123.444 186.024 123.318 185.324 123.318C184.643 123.318 184.092 123.453 183.672 123.724C183.252 123.995 183.042 124.363 183.042 124.83C183.042 125.231 183.196 125.595 183.504 125.922C183.821 126.249 184.26 126.412 184.82 126.412C185.277 126.412 185.702 126.323 186.094 126.146C186.495 125.969 186.803 125.74 187.018 125.46ZM190.349 118.18V116.78H191.301V118.18H190.349ZM190.349 127V119.706H191.301V127H190.349ZM193.44 116.78H194.392V125.348C194.392 125.712 194.452 125.95 194.574 126.062C194.704 126.174 194.868 126.23 195.064 126.23C195.232 126.23 195.4 126.211 195.568 126.174C195.745 126.137 195.89 126.099 196.002 126.062L196.17 126.832C195.992 126.907 195.773 126.967 195.512 127.014C195.26 127.061 195.04 127.084 194.854 127.084C194.424 127.084 194.079 126.958 193.818 126.706C193.566 126.454 193.44 126.109 193.44 125.67V116.78ZM203.521 127.14C202.811 127.14 202.181 126.967 201.631 126.622C201.08 126.267 200.646 125.805 200.329 125.236C200.011 124.657 199.853 124.023 199.853 123.332C199.853 122.641 200.007 122.016 200.315 121.456C200.623 120.887 201.052 120.434 201.603 120.098C202.153 119.753 202.788 119.58 203.507 119.58C204.188 119.58 204.785 119.739 205.299 120.056C205.821 120.364 206.213 120.784 206.475 121.316L205.551 121.61C205.345 121.237 205.056 120.947 204.683 120.742C204.319 120.527 203.913 120.42 203.465 120.42C202.97 120.42 202.522 120.546 202.121 120.798C201.729 121.05 201.411 121.4 201.169 121.848C200.935 122.287 200.819 122.781 200.819 123.332C200.819 123.883 200.94 124.382 201.183 124.83C201.425 125.278 201.747 125.637 202.149 125.908C202.55 126.169 202.993 126.3 203.479 126.3C203.796 126.3 204.104 126.244 204.403 126.132C204.701 126.02 204.958 125.871 205.173 125.684C205.387 125.488 205.532 125.278 205.607 125.054L206.545 125.334C206.414 125.679 206.199 125.992 205.901 126.272C205.602 126.543 205.247 126.757 204.837 126.916C204.426 127.065 203.987 127.14 203.521 127.14ZM207.452 124.9C207.452 124.452 207.583 124.065 207.844 123.738C208.106 123.402 208.465 123.141 208.922 122.954C209.389 122.767 209.926 122.674 210.532 122.674C210.887 122.674 211.256 122.707 211.638 122.772C212.021 122.828 212.362 122.907 212.66 123.01V122.394C212.66 121.778 212.478 121.288 212.114 120.924C211.75 120.56 211.246 120.378 210.602 120.378C210.22 120.378 209.837 120.453 209.454 120.602C209.072 120.742 208.675 120.952 208.264 121.232L207.9 120.56C208.376 120.233 208.843 119.991 209.3 119.832C209.758 119.664 210.224 119.58 210.7 119.58C211.596 119.58 212.306 119.837 212.828 120.35C213.351 120.863 213.612 121.573 213.612 122.478V125.852C213.612 126.104 213.729 126.235 213.962 126.244V127C213.757 127.028 213.612 127.037 213.528 127.028C213.295 127.019 213.118 126.944 212.996 126.804C212.875 126.664 212.81 126.515 212.8 126.356L212.786 125.824C212.46 126.244 212.035 126.571 211.512 126.804C210.99 127.028 210.458 127.14 209.916 127.14C209.44 127.14 209.016 127.042 208.642 126.846C208.269 126.641 207.975 126.37 207.76 126.034C207.555 125.689 207.452 125.311 207.452 124.9ZM212.338 125.46C212.553 125.208 212.66 124.975 212.66 124.76V123.696C212.016 123.444 211.344 123.318 210.644 123.318C209.963 123.318 209.412 123.453 208.992 123.724C208.572 123.995 208.362 124.363 208.362 124.83C208.362 125.231 208.516 125.595 208.824 125.922C209.142 126.249 209.58 126.412 210.14 126.412C210.598 126.412 211.022 126.323 211.414 126.146C211.816 125.969 212.124 125.74 212.338 125.46ZM226.519 127H225.567V122.926C225.567 122.086 225.432 121.465 225.161 121.064C224.89 120.653 224.489 120.448 223.957 120.448C223.397 120.448 222.902 120.644 222.473 121.036C222.044 121.428 221.74 121.932 221.563 122.548V127H220.611V122.926C220.611 122.067 220.476 121.442 220.205 121.05C219.944 120.649 219.547 120.448 219.015 120.448C218.464 120.448 217.97 120.639 217.531 121.022C217.102 121.405 216.798 121.909 216.621 122.534V127H215.669V119.706H216.537V121.358C216.836 120.798 217.228 120.364 217.713 120.056C218.198 119.739 218.735 119.58 219.323 119.58C219.93 119.58 220.42 119.757 220.793 120.112C221.166 120.457 221.395 120.905 221.479 121.456C222.151 120.205 223.089 119.58 224.293 119.58C225.114 119.58 225.688 119.869 226.015 120.448C226.351 121.017 226.519 121.778 226.519 122.73V127ZM232.258 127.14C231.652 127.14 231.106 126.981 230.62 126.664C230.144 126.347 229.766 125.955 229.486 125.488V129.982H228.534V119.706H229.388V121.12C229.678 120.663 230.06 120.294 230.536 120.014C231.022 119.725 231.544 119.58 232.104 119.58C232.608 119.58 233.07 119.687 233.49 119.902C233.91 120.107 234.274 120.387 234.582 120.742C234.9 121.097 235.142 121.503 235.31 121.96C235.478 122.408 235.562 122.875 235.562 123.36C235.562 124.041 235.422 124.671 235.142 125.25C234.872 125.819 234.484 126.277 233.98 126.622C233.486 126.967 232.912 127.14 232.258 127.14ZM231.992 126.3C232.524 126.3 232.982 126.16 233.364 125.88C233.756 125.591 234.06 125.222 234.274 124.774C234.489 124.326 234.596 123.855 234.596 123.36C234.596 122.837 234.475 122.352 234.232 121.904C233.99 121.456 233.663 121.097 233.252 120.826C232.851 120.555 232.394 120.42 231.88 120.42C231.563 120.42 231.227 120.504 230.872 120.672C230.527 120.831 230.219 121.05 229.948 121.33C229.687 121.601 229.533 121.899 229.486 122.226V124.466C229.701 124.979 230.037 125.413 230.494 125.768C230.952 126.123 231.451 126.3 231.992 126.3ZM236.587 124.9C236.587 124.452 236.718 124.065 236.979 123.738C237.24 123.402 237.6 123.141 238.057 122.954C238.524 122.767 239.06 122.674 239.667 122.674C240.022 122.674 240.39 122.707 240.773 122.772C241.156 122.828 241.496 122.907 241.795 123.01V122.394C241.795 121.778 241.613 121.288 241.249 120.924C240.885 120.56 240.381 120.378 239.737 120.378C239.354 120.378 238.972 120.453 238.589 120.602C238.206 120.742 237.81 120.952 237.399 121.232L237.035 120.56C237.511 120.233 237.978 119.991 238.435 119.832C238.892 119.664 239.359 119.58 239.835 119.58C240.731 119.58 241.44 119.837 241.963 120.35C242.486 120.863 242.747 121.573 242.747 122.478V125.852C242.747 126.104 242.864 126.235 243.097 126.244V127C242.892 127.028 242.747 127.037 242.663 127.028C242.43 127.019 242.252 126.944 242.131 126.804C242.01 126.664 241.944 126.515 241.935 126.356L241.921 125.824C241.594 126.244 241.17 126.571 240.647 126.804C240.124 127.028 239.592 127.14 239.051 127.14C238.575 127.14 238.15 127.042 237.777 126.846C237.404 126.641 237.11 126.37 236.895 126.034C236.69 125.689 236.587 125.311 236.587 124.9ZM241.473 125.46C241.688 125.208 241.795 124.975 241.795 124.76V123.696C241.151 123.444 240.479 123.318 239.779 123.318C239.098 123.318 238.547 123.453 238.127 123.724C237.707 123.995 237.497 124.363 237.497 124.83C237.497 125.231 237.651 125.595 237.959 125.922C238.276 126.249 238.715 126.412 239.275 126.412C239.732 126.412 240.157 126.323 240.549 126.146C240.95 125.969 241.258 125.74 241.473 125.46ZM244.804 118.18V116.78H245.756V118.18H244.804ZM244.804 127V119.706H245.756V127H244.804ZM250.779 127.098C250.275 127.098 249.813 126.995 249.393 126.79C248.982 126.585 248.623 126.309 248.315 125.964C248.016 125.609 247.783 125.208 247.615 124.76C247.447 124.312 247.363 123.85 247.363 123.374C247.363 122.693 247.507 122.067 247.797 121.498C248.086 120.919 248.483 120.457 248.987 120.112C249.5 119.757 250.088 119.58 250.751 119.58C251.376 119.58 251.917 119.739 252.375 120.056C252.841 120.373 253.233 120.765 253.551 121.232V119.706H254.405V127.028C254.405 127.709 254.241 128.279 253.915 128.736C253.588 129.193 253.154 129.539 252.613 129.772C252.071 130.005 251.479 130.122 250.835 130.122C249.995 130.122 249.318 129.973 248.805 129.674C248.301 129.375 247.885 128.974 247.559 128.47L248.147 128.008C248.436 128.465 248.819 128.806 249.295 129.03C249.78 129.254 250.293 129.366 250.835 129.366C251.311 129.366 251.745 129.277 252.137 129.1C252.538 128.932 252.855 128.675 253.089 128.33C253.331 127.985 253.453 127.551 253.453 127.028V125.586C253.173 126.043 252.79 126.412 252.305 126.692C251.819 126.963 251.311 127.098 250.779 127.098ZM251.045 126.3C251.427 126.3 251.791 126.211 252.137 126.034C252.482 125.857 252.771 125.633 253.005 125.362C253.247 125.082 253.397 124.793 253.453 124.494V122.24C253.313 121.885 253.112 121.573 252.851 121.302C252.589 121.022 252.291 120.807 251.955 120.658C251.619 120.499 251.278 120.42 250.933 120.42C250.391 120.42 249.925 120.569 249.533 120.868C249.15 121.157 248.851 121.531 248.637 121.988C248.431 122.436 248.329 122.903 248.329 123.388C248.329 123.911 248.45 124.396 248.693 124.844C248.935 125.283 249.262 125.637 249.673 125.908C250.083 126.169 250.541 126.3 251.045 126.3ZM262.639 127H261.687V122.926C261.687 122.067 261.556 121.442 261.295 121.05C261.043 120.649 260.651 120.448 260.119 120.448C259.746 120.448 259.377 120.541 259.013 120.728C258.649 120.905 258.327 121.153 258.047 121.47C257.776 121.778 257.58 122.133 257.459 122.534V127H256.507V119.706H257.375V121.358C257.664 120.826 258.089 120.397 258.649 120.07C259.209 119.743 259.816 119.58 260.469 119.58C261.01 119.58 261.44 119.711 261.757 119.972C262.074 120.224 262.298 120.588 262.429 121.064C262.569 121.531 262.639 122.086 262.639 122.73V127ZM267.063 127.14C266.466 127.14 265.91 127.042 265.397 126.846C264.893 126.641 264.45 126.342 264.067 125.95L264.459 125.278C264.87 125.661 265.28 125.941 265.691 126.118C266.111 126.286 266.554 126.37 267.021 126.37C267.581 126.37 268.038 126.258 268.393 126.034C268.757 125.801 268.939 125.469 268.939 125.04C268.939 124.751 268.85 124.531 268.673 124.382C268.505 124.223 268.258 124.097 267.931 124.004C267.614 123.911 267.231 123.803 266.783 123.682C266.279 123.542 265.854 123.397 265.509 123.248C265.173 123.089 264.916 122.893 264.739 122.66C264.571 122.417 264.487 122.105 264.487 121.722C264.487 121.255 264.604 120.863 264.837 120.546C265.08 120.229 265.406 119.991 265.817 119.832C266.237 119.664 266.704 119.58 267.217 119.58C267.777 119.58 268.272 119.669 268.701 119.846C269.13 120.023 269.48 120.271 269.751 120.588L269.289 121.232C269.037 120.933 268.724 120.714 268.351 120.574C267.987 120.425 267.59 120.35 267.161 120.35C266.862 120.35 266.578 120.392 266.307 120.476C266.036 120.551 265.812 120.681 265.635 120.868C265.467 121.045 265.383 121.293 265.383 121.61C265.383 122.002 265.528 122.273 265.817 122.422C266.106 122.571 266.545 122.73 267.133 122.898C267.684 123.047 268.164 123.197 268.575 123.346C268.986 123.495 269.303 123.696 269.527 123.948C269.751 124.191 269.863 124.531 269.863 124.97C269.863 125.651 269.606 126.183 269.093 126.566C268.58 126.949 267.903 127.14 267.063 127.14ZM283.793 119.706H284.731L281.595 127H280.769L279.243 123.374L277.731 127H276.905L273.769 119.706H274.693L277.353 126.02L278.697 122.73L277.465 119.72H278.319L279.243 122.086L280.181 119.72H281.021L279.803 122.73L281.147 126.02L283.793 119.706ZM285.997 118.18V116.78H286.949V118.18H285.997ZM285.997 127V119.706H286.949V127H285.997ZM292.546 126.65C292.434 126.697 292.229 126.781 291.93 126.902C291.631 127.023 291.286 127.084 290.894 127.084C290.483 127.084 290.124 126.967 289.816 126.734C289.508 126.501 289.354 126.151 289.354 125.684V120.462H288.346V119.706H289.354V117.242H290.306V119.706H291.986V120.462H290.306V125.418C290.325 125.689 290.418 125.889 290.586 126.02C290.763 126.141 290.964 126.202 291.188 126.202C291.449 126.202 291.683 126.16 291.888 126.076C292.103 125.983 292.238 125.917 292.294 125.88L292.546 126.65ZM299.868 127H298.916V122.926C298.916 121.274 298.356 120.448 297.236 120.448C296.872 120.448 296.517 120.541 296.172 120.728C295.826 120.905 295.518 121.153 295.248 121.47C294.986 121.778 294.8 122.133 294.688 122.534V127H293.736V116.78H294.688V121.358C294.977 120.817 295.378 120.387 295.892 120.07C296.414 119.743 296.97 119.58 297.558 119.58C298.118 119.58 298.566 119.715 298.902 119.986C299.238 120.247 299.48 120.616 299.63 121.092C299.788 121.559 299.868 122.105 299.868 122.73V127ZM168.243 143H167.291V138.926C167.291 138.086 167.155 137.465 166.885 137.064C166.614 136.653 166.213 136.448 165.681 136.448C165.121 136.448 164.626 136.644 164.197 137.036C163.767 137.428 163.464 137.932 163.287 138.548V143H162.335V138.926C162.335 138.067 162.199 137.442 161.929 137.05C161.667 136.649 161.271 136.448 160.739 136.448C160.188 136.448 159.693 136.639 159.255 137.022C158.825 137.405 158.522 137.909 158.345 138.534V143H157.393V135.706H158.261V137.358C158.559 136.798 158.951 136.364 159.437 136.056C159.922 135.739 160.459 135.58 161.047 135.58C161.653 135.58 162.143 135.757 162.517 136.112C162.89 136.457 163.119 136.905 163.203 137.456C163.875 136.205 164.813 135.58 166.017 135.58C166.838 135.58 167.412 135.869 167.739 136.448C168.075 137.017 168.243 137.778 168.243 138.73V143ZM173.366 143.14C172.666 143.14 172.041 142.967 171.49 142.622C170.949 142.277 170.524 141.819 170.216 141.25C169.908 140.671 169.754 140.046 169.754 139.374C169.754 138.693 169.908 138.067 170.216 137.498C170.533 136.919 170.963 136.457 171.504 136.112C172.055 135.757 172.675 135.58 173.366 135.58C174.066 135.58 174.687 135.757 175.228 136.112C175.779 136.457 176.208 136.919 176.516 137.498C176.833 138.067 176.992 138.693 176.992 139.374C176.992 140.046 176.838 140.671 176.53 141.25C176.222 141.819 175.793 142.277 175.242 142.622C174.701 142.967 174.075 143.14 173.366 143.14ZM170.72 139.388C170.72 139.929 170.837 140.424 171.07 140.872C171.313 141.311 171.635 141.661 172.036 141.922C172.437 142.174 172.881 142.3 173.366 142.3C173.851 142.3 174.295 142.169 174.696 141.908C175.097 141.647 175.419 141.292 175.662 140.844C175.905 140.396 176.026 139.901 176.026 139.36C176.026 138.819 175.905 138.324 175.662 137.876C175.419 137.428 175.097 137.073 174.696 136.812C174.295 136.551 173.851 136.42 173.366 136.42C172.89 136.42 172.451 136.555 172.05 136.826C171.649 137.087 171.327 137.442 171.084 137.89C170.841 138.338 170.72 138.837 170.72 139.388ZM178.094 139.374C178.094 138.683 178.234 138.053 178.514 137.484C178.804 136.905 179.2 136.443 179.704 136.098C180.208 135.753 180.782 135.58 181.426 135.58C182.033 135.58 182.574 135.743 183.05 136.07C183.536 136.387 183.914 136.775 184.184 137.232V132.78H185.136V141.852C185.136 142.104 185.248 142.235 185.472 142.244V143C185.286 143.028 185.141 143.037 185.038 143.028C184.833 143.019 184.656 142.944 184.506 142.804C184.366 142.655 184.296 142.487 184.296 142.3V141.586C184.007 142.062 183.615 142.44 183.12 142.72C182.626 143 182.112 143.14 181.58 143.14C181.076 143.14 180.61 143.037 180.18 142.832C179.751 142.627 179.378 142.347 179.06 141.992C178.752 141.637 178.514 141.236 178.346 140.788C178.178 140.331 178.094 139.859 178.094 139.374ZM184.184 140.494V138.24C184.063 137.904 183.867 137.601 183.596 137.33C183.326 137.05 183.018 136.831 182.672 136.672C182.336 136.504 182 136.42 181.664 136.42C181.142 136.42 180.684 136.565 180.292 136.854C179.91 137.134 179.611 137.503 179.396 137.96C179.182 138.408 179.074 138.879 179.074 139.374C179.074 139.897 179.191 140.382 179.424 140.83C179.667 141.278 179.994 141.637 180.404 141.908C180.815 142.169 181.277 142.3 181.79 142.3C182.108 142.3 182.439 142.221 182.784 142.062C183.139 141.894 183.447 141.675 183.708 141.404C183.979 141.133 184.138 140.83 184.184 140.494ZM190.443 143.14C189.743 143.14 189.118 142.967 188.567 142.622C188.016 142.277 187.582 141.815 187.265 141.236C186.948 140.657 186.789 140.023 186.789 139.332C186.789 138.651 186.943 138.025 187.251 137.456C187.568 136.887 188.002 136.434 188.553 136.098C189.104 135.753 189.729 135.58 190.429 135.58C191.148 135.58 191.778 135.753 192.319 136.098C192.86 136.443 193.28 136.901 193.579 137.47C193.887 138.03 194.041 138.646 194.041 139.318C194.041 139.467 194.036 139.593 194.027 139.696H187.783C187.83 140.219 187.979 140.685 188.231 141.096C188.483 141.497 188.805 141.819 189.197 142.062C189.589 142.295 190.018 142.412 190.485 142.412C190.961 142.412 191.409 142.291 191.829 142.048C192.249 141.805 192.548 141.488 192.725 141.096L193.551 141.32C193.402 141.675 193.168 141.992 192.851 142.272C192.543 142.543 192.184 142.757 191.773 142.916C191.362 143.065 190.919 143.14 190.443 143.14ZM187.755 139.01H193.145C193.108 138.487 192.963 138.025 192.711 137.624C192.459 137.213 192.137 136.896 191.745 136.672C191.353 136.439 190.919 136.322 190.443 136.322C189.967 136.322 189.533 136.439 189.141 136.672C188.749 136.896 188.427 137.213 188.175 137.624C187.932 138.025 187.792 138.487 187.755 139.01ZM199.15 136.546C198.515 136.565 197.955 136.742 197.47 137.078C196.994 137.414 196.658 137.876 196.462 138.464V143H195.51V135.706H196.406V137.456C196.658 136.943 196.989 136.527 197.4 136.21C197.82 135.893 198.263 135.715 198.73 135.678C198.823 135.669 198.903 135.664 198.968 135.664C199.033 135.664 199.094 135.669 199.15 135.678V136.546ZM206.55 143H205.598V138.926C205.598 138.067 205.467 137.442 205.206 137.05C204.954 136.649 204.562 136.448 204.03 136.448C203.657 136.448 203.288 136.541 202.924 136.728C202.56 136.905 202.238 137.153 201.958 137.47C201.687 137.778 201.491 138.133 201.37 138.534V143H200.418V135.706H201.286V137.358C201.575 136.826 202 136.397 202.56 136.07C203.12 135.743 203.727 135.58 204.38 135.58C204.921 135.58 205.351 135.711 205.668 135.972C205.985 136.224 206.209 136.588 206.34 137.064C206.48 137.531 206.55 138.086 206.55 138.73V143ZM211.659 139.374C211.659 138.683 211.799 138.053 212.079 137.484C212.368 136.905 212.765 136.443 213.269 136.098C213.773 135.753 214.347 135.58 214.991 135.58C215.597 135.58 216.139 135.743 216.615 136.07C217.1 136.387 217.478 136.775 217.749 137.232V132.78H218.701V141.852C218.701 142.104 218.813 142.235 219.037 142.244V143C218.85 143.028 218.705 143.037 218.603 143.028C218.397 143.019 218.22 142.944 218.071 142.804C217.931 142.655 217.861 142.487 217.861 142.3V141.586C217.571 142.062 217.179 142.44 216.685 142.72C216.19 143 215.677 143.14 215.145 143.14C214.641 143.14 214.174 143.037 213.745 142.832C213.315 142.627 212.942 142.347 212.625 141.992C212.317 141.637 212.079 141.236 211.911 140.788C211.743 140.331 211.659 139.859 211.659 139.374ZM217.749 140.494V138.24C217.627 137.904 217.431 137.601 217.161 137.33C216.89 137.05 216.582 136.831 216.237 136.672C215.901 136.504 215.565 136.42 215.229 136.42C214.706 136.42 214.249 136.565 213.857 136.854C213.474 137.134 213.175 137.503 212.961 137.96C212.746 138.408 212.639 138.879 212.639 139.374C212.639 139.897 212.755 140.382 212.989 140.83C213.231 141.278 213.558 141.637 213.969 141.908C214.379 142.169 214.841 142.3 215.355 142.3C215.672 142.3 216.003 142.221 216.349 142.062C216.703 141.894 217.011 141.675 217.273 141.404C217.543 141.133 217.702 140.83 217.749 140.494ZM224.008 143.14C223.308 143.14 222.682 142.967 222.132 142.622C221.581 142.277 221.147 141.815 220.83 141.236C220.512 140.657 220.354 140.023 220.354 139.332C220.354 138.651 220.508 138.025 220.816 137.456C221.133 136.887 221.567 136.434 222.118 136.098C222.668 135.753 223.294 135.58 223.994 135.58C224.712 135.58 225.342 135.753 225.884 136.098C226.425 136.443 226.845 136.901 227.144 137.47C227.452 138.03 227.606 138.646 227.606 139.318C227.606 139.467 227.601 139.593 227.592 139.696H221.348C221.394 140.219 221.544 140.685 221.796 141.096C222.048 141.497 222.37 141.819 222.762 142.062C223.154 142.295 223.583 142.412 224.05 142.412C224.526 142.412 224.974 142.291 225.394 142.048C225.814 141.805 226.112 141.488 226.29 141.096L227.116 141.32C226.966 141.675 226.733 141.992 226.416 142.272C226.108 142.543 225.748 142.757 225.338 142.916C224.927 143.065 224.484 143.14 224.008 143.14ZM221.32 139.01H226.71C226.672 138.487 226.528 138.025 226.276 137.624C226.024 137.213 225.702 136.896 225.31 136.672C224.918 136.439 224.484 136.322 224.008 136.322C223.532 136.322 223.098 136.439 222.706 136.672C222.314 136.896 221.992 137.213 221.74 137.624C221.497 138.025 221.357 138.487 221.32 139.01ZM231.468 143.14C230.871 143.14 230.316 143.042 229.802 142.846C229.298 142.641 228.855 142.342 228.472 141.95L228.864 141.278C229.275 141.661 229.686 141.941 230.096 142.118C230.516 142.286 230.96 142.37 231.426 142.37C231.986 142.37 232.444 142.258 232.798 142.034C233.162 141.801 233.344 141.469 233.344 141.04C233.344 140.751 233.256 140.531 233.078 140.382C232.91 140.223 232.663 140.097 232.336 140.004C232.019 139.911 231.636 139.803 231.188 139.682C230.684 139.542 230.26 139.397 229.914 139.248C229.578 139.089 229.322 138.893 229.144 138.66C228.976 138.417 228.892 138.105 228.892 137.722C228.892 137.255 229.009 136.863 229.242 136.546C229.485 136.229 229.812 135.991 230.222 135.832C230.642 135.664 231.109 135.58 231.622 135.58C232.182 135.58 232.677 135.669 233.106 135.846C233.536 136.023 233.886 136.271 234.156 136.588L233.694 137.232C233.442 136.933 233.13 136.714 232.756 136.574C232.392 136.425 231.996 136.35 231.566 136.35C231.268 136.35 230.983 136.392 230.712 136.476C230.442 136.551 230.218 136.681 230.04 136.868C229.872 137.045 229.788 137.293 229.788 137.61C229.788 138.002 229.933 138.273 230.222 138.422C230.512 138.571 230.95 138.73 231.538 138.898C232.089 139.047 232.57 139.197 232.98 139.346C233.391 139.495 233.708 139.696 233.932 139.948C234.156 140.191 234.268 140.531 234.268 140.97C234.268 141.651 234.012 142.183 233.498 142.566C232.985 142.949 232.308 143.14 231.468 143.14ZM235.842 134.18V132.78H236.794V134.18H235.842ZM235.842 143V135.706H236.794V143H235.842ZM241.817 143.098C241.313 143.098 240.851 142.995 240.431 142.79C240.02 142.585 239.661 142.309 239.353 141.964C239.054 141.609 238.821 141.208 238.653 140.76C238.485 140.312 238.401 139.85 238.401 139.374C238.401 138.693 238.545 138.067 238.835 137.498C239.124 136.919 239.521 136.457 240.025 136.112C240.538 135.757 241.126 135.58 241.789 135.58C242.414 135.58 242.955 135.739 243.413 136.056C243.879 136.373 244.271 136.765 244.589 137.232V135.706H245.443V143.028C245.443 143.709 245.279 144.279 244.953 144.736C244.626 145.193 244.192 145.539 243.651 145.772C243.109 146.005 242.517 146.122 241.873 146.122C241.033 146.122 240.356 145.973 239.843 145.674C239.339 145.375 238.923 144.974 238.597 144.47L239.185 144.008C239.474 144.465 239.857 144.806 240.333 145.03C240.818 145.254 241.331 145.366 241.873 145.366C242.349 145.366 242.783 145.277 243.175 145.1C243.576 144.932 243.893 144.675 244.127 144.33C244.369 143.985 244.491 143.551 244.491 143.028V141.586C244.211 142.043 243.828 142.412 243.343 142.692C242.857 142.963 242.349 143.098 241.817 143.098ZM242.083 142.3C242.465 142.3 242.829 142.211 243.175 142.034C243.52 141.857 243.809 141.633 244.043 141.362C244.285 141.082 244.435 140.793 244.491 140.494V138.24C244.351 137.885 244.15 137.573 243.889 137.302C243.627 137.022 243.329 136.807 242.993 136.658C242.657 136.499 242.316 136.42 241.971 136.42C241.429 136.42 240.963 136.569 240.571 136.868C240.188 137.157 239.889 137.531 239.675 137.988C239.469 138.436 239.367 138.903 239.367 139.388C239.367 139.911 239.488 140.396 239.731 140.844C239.973 141.283 240.3 141.637 240.711 141.908C241.121 142.169 241.579 142.3 242.083 142.3ZM253.677 143H252.725V138.926C252.725 138.067 252.594 137.442 252.333 137.05C252.081 136.649 251.689 136.448 251.157 136.448C250.784 136.448 250.415 136.541 250.051 136.728C249.687 136.905 249.365 137.153 249.085 137.47C248.814 137.778 248.618 138.133 248.497 138.534V143H247.545V135.706H248.413V137.358C248.702 136.826 249.127 136.397 249.687 136.07C250.247 135.743 250.854 135.58 251.507 135.58C252.048 135.58 252.478 135.711 252.795 135.972C253.112 136.224 253.336 136.588 253.467 137.064C253.607 137.531 253.677 138.086 253.677 138.73V143Z" fill="black"/>
<defs>
<linearGradient id="paint0_linear" x1="-9.54999e-07" y1="13" x2="442.928" y2="116.772" gradientUnits="userSpaceOnUse">
<stop stop-color="#0CB9E4"/>
<stop offset="1" stop-color="#E055CC"/>
</linearGradient>
</defs>
</svg>
